/* XPM */
static char *_dcfa497d3864b65db4889b4c6771e7eI8rNnPPL4XBhY427[] = {
/* columns rows colors chars-per-pixel */
"64 64 247 2 ",
"   c #7F4726",
".  c #992D15",
"X  c #8D3117",
"o  c #89371D",
"O  c #953315",
"+  c #9D3416",
"@  c #95341A",
"#  c #9A351B",
"$  c #94391B",
"%  c #9B3B1D",
"&  c #9C3816",
"*  c #9B290F",
"=  c #A52D18",
"-  c #A23116",
";  c #A5351A",
":  c #AA351D",
">  c #A43A1C",
",  c #AC3A1D",
"<  c #A93317",
"1  c #B43C1C",
"2  c #B93917",
"3  c #B2370E",
"4  c #8B3D2C",
"5  c #873B26",
"6  c #9B3424",
"7  c #953C24",
"8  c #9C3B23",
"9  c #9C3529",
"0  c #933D2B",
"q  c #9C3C2B",
"w  c #953422",
"e  c #8D3E32",
"r  c #953F32",
"t  c #962E23",
"y  c #A42E24",
"u  c #A33424",
"i  c #A33C24",
"p  c #AB3C23",
"a  c #A33D2B",
"s  c #A8382B",
"d  c #B83A25",
"f  c #A43C31",
"g  c #AC3B34",
"h  c #B03A36",
"j  c #C03318",
"k  c #9A421D",
"l  c #A6411D",
"z  c #BA401B",
"x  c #8A4224",
"c  c #8A4329",
"v  c #954125",
"b  c #9C4225",
"n  c #94432C",
"m  c #9C442B",
"M  c #934A2B",
"N  c #9C4A2D",
"B  c #9D4B23",
"V  c #8B4333",
"C  c #8D4A3A",
"Z  c #8C4934",
"A  c #934333",
"S  c #9C4434",
"D  c #934B33",
"F  c #9C4C34",
"G  c #94463A",
"H  c #9B453A",
"J  c #944B3C",
"K  c #9C4C3C",
"L  c #8D5337",
"P  c #955234",
"I  c #9C5335",
"U  c #9C533C",
"Y  c #9D5B3B",
"T  c #975639",
"R  c #A44323",
"E  c #AB4225",
"W  c #A54B26",
"Q  c #A4442D",
"!  c #AB442C",
"~  c #A44A2C",
"^  c #AC4B2D",
"/  c #AC4825",
"(  c #B24325",
")  c #B4442B",
"_  c #B9432B",
"`  c #B34C2D",
"'  c #BC4C2C",
"]  c #BB4825",
"[  c #A6522B",
"{  c #B8542D",
"}  c #A34432",
"|  c #AB4433",
" . c #A34B33",
".. c #AB4B33",
"X. c #A44538",
"o. c #AC463A",
"O. c #A34C3B",
"+. c #AB4C3B",
"@. c #B14633",
"#. c #B34C34",
"$. c #BA4C34",
"%. c #B34D3B",
"&. c #BA4D39",
"*. c #B54538",
"=. c #A45235",
"-. c #AB5334",
";. c #AB5B35",
":. c #A4533C",
">. c #AB533C",
",. c #A45A3C",
"<. c #AC5B3C",
"1. c #A75932",
"2. c #B35334",
"3. c #BB5334",
"4. c #B35936",
"5. c #BD5936",
"6. c #B4533B",
"7. c #BB543B",
"8. c #B35B3B",
"9. c #BC5B3C",
"0. c #98603E",
"q. c #A7603D",
"w. c #B3623E",
"e. c #B9633C",
"r. c #C54E2A",
"t. c #C4542D",
"y. c #C8562C",
"u. c #C14C31",
"i. c #C25434",
"p. c #CB5D33",
"a. c #C3543C",
"s. c #C25C3B",
"d. c #CB5C3C",
"f. c #C45A34",
"g. c #D85A3A",
"h. c #C7633B",
"j. c #D7643A",
"k. c #9C4D41",
"l. c #974E41",
"z. c #9C5342",
"x. c #9E5C42",
"c. c #9A5746",
"v. c #A44E43",
"b. c #A84941",
"n. c #B44E42",
"m. c #A35443",
"M. c #AC5543",
"N. c #A45B43",
"B. c #AB5B43",
"V. c #A5564A",
"C. c #AB554B",
"Z. c #A45C4B",
"A. c #AC5B4B",
"S. c #B45543",
"D. c #BA5544",
"F. c #B35C44",
"G. c #BB5C43",
"H. c #B4564A",
"J. c #B35D4A",
"K. c #BB5B4B",
"L. c #B9574C",
"P. c #AD5D51",
"I. c #BC5C52",
"U. c #B55B51",
"Y. c #9A6343",
"T. c #A36344",
"R. c #AB6245",
"E. c #A4634B",
"W. c #AC634B",
"Q. c #A46C4B",
"!. c #AC6A4C",
"~. c #AB6B45",
"^. c #B36344",
"/. c #BC6344",
"(. c #B46A46",
"). c #BC6A45",
"_. c #B4634C",
"`. c #BA634C",
"'. c #B36B4B",
"]. c #BB6A4C",
"[. c #B4714D",
"{. c #BB714E",
"}. c #A56451",
"|. c #AD6354",
" X c #AC6B53",
".X c #AA6B56",
"XX c #B46552",
"oX c #BB6452",
"OX c #B46B53",
"+X c #BC6B53",
"@X c #B46C59",
"#X c #BB6D5A",
"$X c #B86459",
"%X c #AE7358",
"&X c #B47254",
"*X c #BC7253",
"=X c #B4745B",
"-X c #BC725B",
";X c #BA7957",
":X c #A4724F",
">X c #BC7D64",
",X c #B87562",
"<X c #C35D43",
"1X c #CA5D44",
"2X c #C15D4B",
"3X c #C55843",
"4X c #C15E52",
"5X c #D25F4A",
"6X c #C46443",
"7X c #CB6444",
"8X c #C36A45",
"9X c #C3644B",
"0X c #CB644A",
"qX c #C46B4B",
"wX c #CB6B4B",
"eX c #CD6946",
"rX c #D26444",
"tX c #D1644C",
"yX c #D36B4C",
"uX c #D66946",
"iX c #CE724D",
"pX c #C7724B",
"aX c #D6744D",
"sX c #C36453",
"dX c #C36B53",
"fX c #CB6A55",
"gX c #C26C59",
"hX c #CD6D5A",
"jX c #C46657",
"kX c #D56C52",
"lX c #D96B53",
"zX c #C47254",
"xX c #CD7252",
"cX c #C3735B",
"vX c #CB745D",
"bX c #C77A5A",
"nX c #D77556",
"mX c #E46A4E",
"MX c #CC6F60",
"NX c #C37363",
"BX c #CA7463",
"VX c #C57C68",
"CX c #D37765",
"ZX c #B9856A",
"AX c #C6836C",
"SX c #CA8777",
"DX c #D68776",
/* pixels */
"MXCXBXjXJ.S.H.H.oXI.K.J.K.oX#XXXN.!.T.!.T.0.&XQ.;X%X~.~.!.OX'.!.ZXZX%X%X=XOX|._._.oXgX+X_.].cX*XCXhXjXI.4XsXsX4X2XL.H.hXCXBXBXcX",
"cXjX_.M.M.>.F n B.W._._.W.XXoX_.N.,.I T P T  XT.!.T.,.U ,.<.:.U ,X:X}.E..X X+XjXvXhXdX6.N  .B.<.:.m.B.J.J.S.b.+.+.+.K K.gX$X#X+X",
"&X~.,.T Y 0.Y M U T.T.T.Y.,.T.T.B.M.H O.O.O.XXM.A.M.C.M.M.b.b.M.ZX=XZ.N.W.XXoXjXoXK.D.} q Q <.>.,.T.OX!.W.R.A.'.,.:.K R.W.Y N.T ",
",.<.,.:.=.,.<.8.R.(.(.R.^.^.R.^.K.L.D.D.+.S.L.+.} } X.g g | o.o.gXC.U O.M.M.M.F.D.6.K.G.6.L.9XL.,.N.R.N.N.,.B.F._.+X'.+XOX,.B.N.",
"kXnXnXlXlXCXnXCXyX0X1X1X0XtXtXtXa.a.3X7.p E R > ! ` $.$.#.) $.&.+.} S M.K.K.oXoXdXsXfXhXfXhXfX2X9X].qXdXfX0X<X6.#.D.6.7.6.#.0XvX",
"tX0X7X<XyXlX0Xd.1X7.$.3.a.5X1X1X0X9.<X^ @ # @ # # # ; # # . . . a 0 O.J.#X+XOX+X*X:XOX+X`.oX9XF.dX`.F.F.`.`.F...} ..a Q a | kXCX",
"^.~.(.(.qXzX{.~.^.<.1.,.R.^.^.).+XJ.XXm.D U J K K K K K S 0 q 0 n c Z x.Y.L L 0.0.L L T T T.W.T.AX&X!.Q.'.&XOX!.B.R.U =.,.B.cXzX",
"P q.'.[.[.&X;XbX;X*X{.*X*X{.+X*XoXM.#XK.J.gXJ._.B.J.F.J.H.S.b.+.M.:.,.W.B.P L Y.L   c M T N.R.N.T.Y.N.T. X'.N.F U ,.F B._.B.A.F ",
"5 >.].+X_._._.].+X].].dX)._./.9X! ; - < > ; ; + + - * - d u.d = d d y g u w } F.Q q X q 6 f 6 u f 0 t t 4Xo.w 6 9 s 9 g t g y s ",
"6.`.sX_.6.>.6.6.K.D.S.S.S.M.S.D., - * - ; < ; ; < < = < _ r.d : : y y y u u | D.Q q w a 6 u u s f 9 0 9 4Xb.q f f f f g y h h h ",
"`.`.J.>.>.:.M.M.]._.J.oXgXcXcXBXfXsX`.+XdXdXsXdX`.dX`.2XhXhX9X2XD.3X1X2XG.^._.+X<.>.B.B.J.>.J.XX#X,X,XgXDXNX#XNXNXcXNX$XgX$X4X4X",
"D.M...O.O.>.:.>.F n F >.+XcXvXbXbXcXcXbXcX*X+X*X,.B.=.F :.+.} ~ m  .-. . .N N n F U _.,.W.,.'.OX!.$X X X=X}.E.%X,X.X XN.XXZ.|.P.",
"8.+...~  .~ Q m m v M >.(.*X*XzXw.).e.e.e.w.;.1.1.1.B k k k $ k $ v m m N ~ m b 5 n B.U m.F N.N.E.Q.T.Y.0.Y Y.:X:XY.Q.0.Q.T.%X[.",
"7.#.#.2.#...^ ~ ~ m W -.8.<.<.-.N W [ [ [ [ [ B 4.;.[ k R k k W b b b Q .. .Q b  .2.`.F._.N.B.:.I ,.,.q.P Y 0.~.0.Y q.Y ,.Y ,.T.",
"_ _ _ $.' ) ` 7.nXwX6XqXqX8X/.e.<Xh.9.9.8XwXwX6X9X6Xs.9.<Xs.7.s.9.-.^ 2.6.7.@.@.@.&.6.S.<.J.M.>.&.a.7.7X3.<X3Xs.5.s.7.7.) ) ) ` ",
"p p p ( p u E 3.lXeX6XG.e.8.8.G.G.G.2...6.9X9X/.G.G.9.G.9X6X6.G.>.n 7 m +...o.#.a X.0 +.S F.:.O.*.u._ 1X_ a.$.$.( $._ $.; p : p ",
"0 q 7 7 q q Q S.fX`.S.S.S.B.B.W.F  .I B.].#X).M.M.B.B.B.,.,.B.W.U U J U U c.z.z.l.U z.z.A.@X|.N.F :.:.O.M.6...@.#.&.7.2.Q q v v ",
">.8.>...>...| 6.D.6.+.-.>.=. . .=.,.>.<.<.D.6.>.-.>.-. .N =.,.B.OX X XQ. X X XQ. X X X|.$X#X$XB.Z.|.m.S  . .| | %.6.6.4. .=.=.N.",
"7.9.3.$.$.! p p : ; u p E > % + > R , > - - - - : : > ; > i ` 2.<.N.q.,.,.0.Y I ,.,.1.,.,.<. .m 8.<.N # 8 l > , > , > > % l -.4.",
"$.3.#.) ' d : p : : p p p p p E ; p p ; . * - ; - - - - + ; E ^ N N M N N M M x I I I N N  .m q S F $ X % % O + & & & O O % R ..",
"n.n.*.| %.o.h h *.%.o.n.*.n.D.K.J.K.K.K.D.S.S.n.%.S.L.S.S.b.>.M.m.M.Z.A.Z.V.z.K A A r r A A H k.A.P.z.J m.B.:.K B.M.M.:.U K m.C.",
"X.v.O.S X.X.S X.+.X.f r q r v.J.U._._.J.J.J.S.O.M.A.I.oXoXJ.J.A.A.P.P.P.A.Z.V.V.J J G G H K v.J.P.V.K K XX#XOXOXW.W.B.N.:.O.v.O.",
"I ,.Y P P I F T 1.T I P D M I R.:.<.,.=.=.I O.m $ m  .=.=. . .I =.:.:.:.U =.,.N.x o o o 5 o o m 0 a 7 q S.].(.8.>.=.-. . .Q } } ",
"T.&X[.'.[.[.[.[.*X;X;X*X!.~.[.;X~.(.).^.q.w.w.w.1.w.(.).^.<.;.;.=.-.-.-.-.<./.qX(./.).]./.8.8.9XG.3XG.9XnXvX).8.4.8.8.4.7.6.7.7.",
"<.^.^.-.<.].dX^.-./.(.dX(.8.<.[ w.^.(.[.(.{.].<.(.(.=.=.=.~ ;.-.^ ! ) @.$.7.7.&.&.1XkX0X$.G.9XD.#.2.7.7.9.8.w.8.pX^.9.).G.<X9X<X",
"=.:. .m O._.+X_.:._.J.).M.F O.F =.U <.,.,.,.I x R.<.v o o o v 0 6 8 8 a a a a a . a +.| @ 6 q w q 8 q 7 7 v N =.^.=. .>.>.S.L.D.",
"Z.Z.c.l.V.@X,X|.c..X}.P.c.G l.z.z.K U J A J K 4 ,X#Xm.H H H v.K k.l.l.J G V 4 e A z.P.c.e V V 5 r A A r 4 n F ,._.,.m.N.m.V.V.V.",
"$X@X$X$X,X,X@XZ.|.@X|.@XA.m.|.U.XXJ.C.m.v.A.#XJ.MXBXU.oX4XL.4XH.OXZ.z.J U z.m.V.c.Z.|.|.E.@X.X}.K m.B.B.B._._._.#X_.XX#XXX|.P.P.",
"&.7.7.&.7.6.! @ ..D.7.7.&.! &.7.7.6.#...^ 9.9X6.%.6.^ 7.&.#.$.p 6X+.8 w Q 7.<X2XD.7.D.8.6.F.<.m 8 8 W ^ 2.5.{ ` / E ..6.>.6.M.>.",
"$.#.@.` #.#.! % ^ 7.#.6.#.! $.#.2...4.4.-.8.8.W W ^ i ! ! p @.p <X| # . u ! @.@.7.@.@.2.2.8.>.b % k k R ` ` ' ) E R / $... .=.~ ",
"XXXXXXXXOX&X=X XOX=XOX@XOX_.#XOXOXOX&X=XOX=X&XE.x.W.,.N.B.:.F.B.$XJ.m.k.O.O.S 0 r 4 A k.N.XX@XW.N.<.F./.K.<X0X2X9XG.K.`.B.Z.E.E.",
":.:.N.W. X X XE..X%XY.|. XE.@X.X X X:X}.E.%X&XY.E.OXW.OX_.m.J.C.XXXX$X@X$XA.k.J z.l.k.l.C C C V Z U B.B.>...+.6.6.| O.>.F K x.Z.",
"E ) #...<.G.]._.A.A._.XX_.'._.OX&X!.T.~.'._.(.F.J.`.qX`.L.D.D.D.L.sXoXL.J.Z.K 5 4 J G e l.G e e e V ,.A.O. .2.S.&.6.! +.Q  .(.N ",
"( ( ( p ! | } }  .} O. .O.:...=.,.:.I =.=.8.8.G.6.2.$.@.) ! o.o.*.&.%.>.S.K.A.z.k.A.V.m.v.v.k.v.k.k.Z.B.S m | | 6 a @ i 8 8 ..W ",
"t.u.3.$.$.$.+.~ S.<.6.<.>.4.-.=.<.>.>. .~ ..4.9.9.3.` #.@.#.#.&.*.2.+.+.>.F._.C.oXNXNXXXU.C.U.I.C.Z.A.M.S +.D.n.a *.| +.%.>.G.F.",
"a.5.7.7.K.G.D.6.K.`.J.<.=.} ~ } O.M.6.+. .~ Q ^ R i % 8 8 m q q } } m q n S S n A K K V e e e l.G K K G G m.U.C.O.H.M.O.K.6.+.>.",
"S H S k.V.V.z.z.z.Z.c.J c 4 c A e k.k.r r H O.O.0 0 4 5 4 4 4 5 x x x x 5 c c   Z L Z V L C L l.C C l.l.l.c.}.c.x.E.x.U W.N.A D ",
"H.M.C.A.C.C.A.|.P.XXOXA.B.<.B.B.v.C.v.b.v.J.I.I.oXJ.J.D.B.B.m.,.q.0.q.R.R.B.N.U -X-X@X&X>XZXZX,XVXVXSXVX>XSXSXAX%X X@XOX&X+XN.B.",
"fXwX9X6X/.9.6XpXwXnXnXnXaXaXaXiX<X2Xn.&.s.yXyX0XrXrXh.d.s.i.f.7.bXbXCXBXvXfXsXsX9XsXK.`.-X,XOX|.U.I.I.$X$X#XNX-XXXB.gXzX9XsXK.9X",
"9X9.6.2.^ R #.5.h.eXiXuXaXaXuXf.^ ..! ! i.rXrXt.t.t.t.' ] ' ' 7.qX*XzXgXfX9X2X<XL.2XK.J.+X$XB.,.L.n.I.I.U.@X#X#XB.:.cXzXG.9X2X0X",
"B.B.B.M.F.].`.`.4.-.~ -.4.9.e.;._.W.~.(./.G.F.9.7.3Xs.$.&.7.3X&.(.T.W.N.N.B.<.O.:.O.=.B.W.E.E.x.M. .O.:.R.R.T.T.T.~.[.(.q.1.4.9.",
"cXjX+XsXdXdXqX8XeX8X6X7XeXwXaXaX].*XzXbXdX8XqX0XtXmXlX5X5XlXlX5X^.W.N.I F O.+.+.>.M.N.m.,.N.x.N.8. .<. .<.I (.{.[.{.pXzX8X8XwXiX",
"yXwXeX7Xj.h.d.f.p.j.j.j.j.j.j.j.h.pXiXh.h.f.p.j.j.j.j.g.g.mXmXg.2XK.S...a a f f g o.%.| } q O.+.D.$.<X! 2.% 8.9X8XwXwXuX7Xh.rXuX",
"6X9.5.s.s.f.y.y.r.y.p.p.y.r.] { { e.h.h.{ { t.p.y.y.g.r.r.g.g.a.D.K.L.S.+.o.+.o.| n.D.J.S.+.n.S.2X7.G.$.7.! $.s.f.d.h.h.d.i.p.d.",
"M.>.:.6.G.7.7.5.2.3.3.3.3.7.s.9X^./.(.).e.8X8X8X6X6XG.#...| +.v.O.:.M.N.C.W.XX#XXXXXOXoXXXJ.A.F.>.=.=.`.^.qX9.6X9.<X6XwX7X6X6X8X",
"m.K S F O. . ...9.#.| ~ 2.`.vXCXdXdX].qXzXxXzXdXdX`.J.:.A 4 4 e 4 A A V A z.W. XE.E.c.F D A n 0 x n x +X/.vX`.9X9XwXxXkXwX6X8X6X",
"m.S 0 }  .Q Q ^ 2...Q Q +.K.sXfX/.9.F.9.G.8X8XG.F.(._.m.A 5 5 V A S e 4 4 J c.x.c.c.D A 0 0 0 0 4 D F ].`.sXD.2X<X1X7X9X<XG.9./.",
"G.+. .-.$.#.2.7.#.#.$.2.$.+.>.#.%.#.#.#.2.2.>.>.=.S.].'.N.J H m.+.b.+.O.M.W.W.W.R.W._.oX`.`.`.9XS.F.9XdXG.%.#.3X! | @.@.2.7.9X7X",
"eX<Xs.h.eXtXlXnXlXnX1X! 6 Q ..u *.@.@.Q .. .m /.>.m 7 q o.o.g s s p @.@.! ..#.-.W 9.xXiXqXwXiXeXlXlXuXrX7X6X6X7X9.R R R 3.yX0XtX",
"1Xf.5.1X7XeX7XwX0X0XG.Q w 8 q 6 u 9 a q 0 7 4 m.F 0 w w 9 u u y y u p u i 8 8 R @ -.e./.e.qXxXnXuXrXrXrX7XeXqXxX8.~ b q -.fXfXnX",
"S.<.>.S.F.J.F.B.J.A.C.O.S A K K r H V.k.k.l.G |.V.k.J k.b.b.b.b.b.o.o.X.} } O.O.B._.+XB.>.O.:. .+.&.&.6.S.F._.oXOXA._.W.XXNXoXoX",
"vXdX+XdXcXjXoXoXJ.M.:.v.m.C.M.J.C.v.C.V.P.P.c.XXP.V.C.C.H.C.H.L.4XL.J.H.J.K.oX+X+XcXgX+X^.<.8.8.2.7.D.D.6.K.`.oX+X+XbXcX#XcX'.XX",
"nXiXeXwXwXwX8XwX/ > O O % > # # $ X X X b ~ X $ X X $ @ X X # 8 3Xi.` $.7.4.5.9.5.5.5.e.s.3.{ 3.` i.i.3.3.s.s.s.6X9.6X4.8././.pX",
"8.4.4.4.4.1.2.9.W k O # i R R % 8 $ $ $ ~ ..$ $ 8 # # # # @ # R 9.` ! / / W E / 2.` ` { { E l E l / / / E ' { ' f.5.9.2.-.4.q.].",
"'.OXOX+XJ.B.B._.].].].dXdXdX]._.W.'.+X+XgXcXK.jXgX+XoXoXoX_.'.#XF.-. .<.S.<.>.=.F.>.<.G.qXG.G.K.-.S.F.6.6.G.K.D.K.F.dX_.W.W.q.!.",
"NXVXAXAX-XOXOX#X'.#XcX#X+X_.B.:.D N.=XW.A.J.M.gXK.A.B.B.m.U U x.W.:.:._.+XXX'.OX*XW.B.].dX`.J.`._.OXOX_.J.oXsX`.sXJ.$X'.W.&X XZX",
"VXVXVX>X-X#X'.W.A.+X#X]._.B.} I D N.W.W.:.:.B.J.A._. .I ,.D T N.B.U I N.W.,.F N.B.N.B._.J.M.M.M.:.Z.N.:.M.F.J.>.D.J.F.m.m.N.%X;X",
")._.)._._.R.S.B.:.F.G.F.G.F.8.F.w._.'._.D.F.^.`.G.`.>.F.^.:.R._.(.R.,.~.(.I M I I F  .>.<. . .>.B.N.B.B.S.K.G.S.8.F.G.F.R.^.OXbX",
"6X6Xh.h.s.h.s.s.s.6Xd.9.s.9.s.7XyXeX6X6X8XeXeX7X6XyXe.s.6X4.6X8XnXxXpXpXpX4.1.e.pXqXqXwXwXwX0XwX8X/.6X6X8X7Xs.s.$.5.s.s.9.5.9.h.",
"7Xd.s.5.3.5.f.s.h.7Xs.3.i.3.3.d.7X7X6X3X6XeXeX0X6XiX5.2.2.-.9.8X).).e.w.<.=.;.).^.w.w.F.G./././.8.-.1.8.9.4.^ ` ` 3.5.3.3.{ { 3.",
"6.6.-...~ ......+.+.....>.O.o.S.%.S.D.S.M.B.B.B.B.'.:.:.:.O.>.B.N.E.N.Y.T.x.E. XL L T l.z.c.Z.Z.N.T U A.W.W.B.M.:.>.M.6.#.#.%.&.",
"..#...^ ` +...+.| ..X.+.S.+.X.n.o.n.S.n.+.:.O.I F W.C.J.K.M.S.M.T.&X&X&XZX>X,X=X}.}.}.}.Z.|.|.|.$XOXXXOX+X_.W._. .}  .~ | | *.&.",
"] ] ] r.r.' ' $.' ` _ 7.a.#.! &._ u.$.$.#...~ m N F.8./.<X7.3X7.8._.(.'.bXbX&X~.T.W.W.N.,.m.:.F <.^.F.8.-.<.1.[ ~ R E , : 2 d d ",
"3 3 2 z z 1 1 2 , , , _ $.) p d d d d ( E ^ W l W e.2.` ' ) i.i.4.;.I [ (.).~.,.,.<.,.:.=.<.B.-.R ` 2.~ W 1.2.4.` ` / d 2 2 j j "
};
