/* XPM */
static char *_a54a50eecea46c5fd2ee4aa5d96c7feRgR8VEaRM1tl1EC9[] = {
/* columns rows colors chars-per-pixel */
"64 64 200 2 ",
"   c #43230E",
".  c #472712",
"X  c #4A2713",
"o  c #522D15",
"O  c #552F1A",
"+  c #503115",
"@  c #55301A",
"#  c #5A341F",
"$  c #5D3B22",
"%  c #593A28",
"&  c #573B25",
"*  c #623E23",
"=  c #633F29",
"-  c #5E4226",
";  c #5F4429",
":  c #5C4434",
">  c #644125",
",  c #65442C",
"<  c #6B462C",
"1  c #67492F",
"2  c #6A4A2E",
"3  c #6A4324",
"4  c #704429",
"5  c #714C2F",
"6  c #644532",
"7  c #6A4630",
"8  c #6D4B32",
"9  c #654B3C",
"0  c #6D4C3A",
"q  c #724D34",
"w  c #734E3A",
"e  c #6E5135",
"r  c #63503F",
"t  c #6D503F",
"y  c #755236",
"u  c #7A5137",
"i  c #75533B",
"p  c #7A553C",
"a  c #75593D",
"s  c #7B593E",
"d  c #6B5442",
"f  c #6F5D47",
"g  c #67574A",
"h  c #735542",
"j  c #7B5641",
"k  c #765A43",
"l  c #7C5B43",
"z  c #745B4B",
"x  c #7B5D4A",
"c  c #7A5F50",
"v  c #7D6144",
"b  c #76644E",
"n  c #7E614B",
"m  c #776656",
"M  c #7D6554",
"N  c #7C6954",
"B  c #75665B",
"V  c #7D6A5C",
"C  c #7E7164",
"Z  c #81563C",
"A  c #815A3E",
"S  c #815644",
"D  c #825D44",
"F  c #895F44",
"G  c #825D49",
"H  c #885F49",
"J  c #846145",
"K  c #8A6246",
"L  c #85634B",
"P  c #8A654C",
"I  c #85694D",
"U  c #8C6A4E",
"Y  c #92654C",
"T  c #926A4E",
"R  c #856552",
"E  c #8A6551",
"W  c #866955",
"Q  c #8C6B53",
"!  c #856B5B",
"~  c #8B6D5A",
"^  c #916752",
"/  c #926D54",
"(  c #996F55",
")  c #936E59",
"_  c #986E59",
"`  c #8E7155",
"'  c #86725D",
"]  c #8D725B",
"[  c #937256",
"{  c #9A7255",
"}  c #94735B",
"|  c #9A755C",
" . c #96795D",
".. c #9B7A5E",
"X. c #A1755C",
"o. c #A1795E",
"O. c #846D62",
"+. c #896F61",
"@. c #8C7362",
"#. c #84776B",
"$. c #8B7569",
"%. c #86796D",
"&. c #8D7A6C",
"*. c #887564",
"=. c #947562",
"-. c #9A7662",
";. c #957A63",
":. c #9D7B63",
">. c #937B6B",
",. c #9C7D6B",
"<. c #8D7F74",
"1. c #957E71",
"2. c #9A7E70",
"3. c #A27D64",
"4. c #A97E64",
"5. c #A37D69",
"6. c #AB7F6A",
"7. c #9D8165",
"8. c #96826E",
"9. c #9D816C",
"0. c #948374",
"q. c #9B8472",
"w. c #9E8975",
"e. c #978778",
"r. c #9D857A",
"t. c #9D8A7C",
"y. c #A38265",
"u. c #A98266",
"i. c #A4846A",
"p. c #AA856B",
"a. c #A6896D",
"s. c #AB8A6D",
"d. c #B1866D",
"f. c #B28A6D",
"g. c #A48672",
"h. c #AB8672",
"j. c #A58A73",
"k. c #A98A75",
"l. c #AC8B72",
"z. c #A18679",
"x. c #A48C7B",
"c. c #AA8E7C",
"v. c #B18772",
"b. c #B58D70",
"n. c #B28D73",
"m. c #B98D76",
"M. c #B38D79",
"N. c #AD9175",
"B. c #A7917E",
"V. c #AD917B",
"C. c #B39276",
"Z. c #B99276",
"A. c #B2907A",
"S. c #B4937A",
"D. c #BA957B",
"F. c #B5987B",
"G. c #BB9A7E",
"H. c #C1997E",
"J. c #948A80",
"K. c #9D9389",
"L. c #A48E81",
"P. c #A59282",
"I. c #AC9483",
"U. c #AC9589",
"Y. c #A6998E",
"T. c #AE9986",
"R. c #B49583",
"E. c #BB9782",
"W. c #B69B80",
"Q. c #BD9C82",
"!. c #BC9B82",
"~. c #B39B8C",
"^. c #BE9E88",
"/. c #AF9B91",
"(. c #BEA184",
"). c #B6A18C",
"_. c #BDA48B",
"`. c #AEA095",
"'. c #BCA693",
"]. c #C29C83",
"[. c #C29E88",
"{. c #C3A285",
"}. c #C9A186",
"|. c #C4A48A",
" X c #C9A68C",
".X c #C5A98C",
"XX c #CAAB8E",
"oX c #C4A793",
"OX c #CCA692",
"+X c #CCAC92",
"@X c #C4AC95",
"#X c #D1AD93",
"$X c #D2AF99",
"%X c #CCB194",
"&X c #D5B096",
"*X c #D9B197",
"=X c #D3B59A",
"-X c #D9B79C",
";X c #E0BEA3",
":X c #E6C2A8",
/* pixels */
"E j X . k.k.=.k.k.R.E.5.E 5.M._ | 7.y.G.u...o.Z.b.T K y } w . O j 8 | :.^ L 3.} U 1 } ` I ;.n ] S.k.;.-.x ~ ].-.p 4.D.D.m.{ S Z ",
"E.) x R :.9.,.} V.i.,.5.) E E _ T 7.7.u...b.f.Z.b.y.y.u.5.) 0 l :.5.| | -.3.-.:.-.~ U W ` I l } ,.;.5.,.5.i.) Q P ) | 3.6.4.o.4.",
"$ G p.k.n k L n k I R L E E _ 6.y.7.I ` { f.T u { T T T 7 ) 5.E.p _ 8 q j D $ p :.a.} } Q l } a.L L R k ) E * G 5.^ H Y ( { { ( ",
"w g.M.D.i.k.} ` } k.i.} 5.M.6.v.G.b.s.Z.Z.f.{ T b.b.o.P j 5.M.v.-.M.5.s.D.i.L n.[.|..X!.a.h.XXS.W g.c.h.k.-.q L D.:.3.6.3.X.3._ ",
"5.h.-.} h k l ;.L v i l 3._ S j A K { T Z Z K u.Z A F K m.5.) ) } ;.7.} :.} :.p.-.| [ P / ^ i q :.h.5.-.) R U p q < p J u D ^ ( ",
"$Xp , :.i.a.i.W k ~ -.5.6.M.6._ { { { K F Y f.f.o.b.d.m.[.u w :.3.:.:.i L :.D.} Q 3.| / h.H O ^ $X[.:.} ) y. X5.q 5 p q 4 u / 3.",
"| p =.!.!.S.!.j.i.!.OX!.h.M.E.6.H.f.f.u.Z.f.f.u.X.f.4.4._ S 5.[.!.{.(.7.7.C.Q.l.3.D.h.b.Z.| X.m.D.n.n.Z.S.D.D...D.].m.y.u.s.b.n.",
"P n.S.Q :.:.j.a.N.v p L H S H H 4 4 { f.H.F Z Z Z T Z A E M.E.E } a.y.C.:.[ s } 3.^ A / u P ].5 w p ) Q P L 2 H -.u.| P | ..D < ",
"D.OX&X.X!.!.!.(.!.:.a.-.3.u.].p.K s.F.XXH.f.u.F Z 4 H p.OX[.OXOX|.l.!.(.G.} s.{.&Xn.P K o.Z.u.T F U [ { 3 T C.s.}.Z.s.].]...^ y.",
"S.M.l.l.N.N.N.N.V.i.p.l.| -.5.4.a.G.Z.F.Z.f.b.u.X.{ X.H.M.[.M.l.l.G.|.G.y.l.D.m.| y.3.Y F T X.o.| T 7.y.7.u.s.K L P s.[ U ..U ].",
"Q P P I v a v  .`  .:.C._ P Z F f.y.J a F T y.y.b.].].D.G G x Q J s p [ T u.o.../ p.D.m.Z.H.#X*XH.u.Z.H.H.{ U K l D ..D U Z.i.!.",
"G.D.D.C.a.7.a.F.7.l.l.G.Z.D.v.m.H.C.7.7.y.b.Z.Z.H.d.D.n.[.!.^.g.D.u...C.p.p.3...u.u.b.H.H.H.Z.u.u.f.b.f.Z.y.y.Z.C.G.} ..l.G. X].",
"../ P P [ 7. .v  .[ K 2 D P / T a v I 7.I T U I K A | | ;.L Q L D ..D.u.{ ( f.b...^ T 7.| A y y { H.{ A A { F s J [ s Q Q 8 P ` ",
"/ [ [ ` y.N.s.7.(.N.s.} s.h.m.3.I 7.G.G.f.s.u.Z.u.J 2 J W ,.` ~ 4.u.H.d.X.F o.o.u.[ [ ..| J y A 3 A 5 A A K A { y s y.G.N.` i ` ",
"T | :.y.7.y.y.a. .I ..C.D.D.H.Z.a.N.G.F.f.F.s.G.{.G.s.a.n ] =.a.d.( Y { u.p.d.u.s.u.s.b.b.p.7.{ u.{ y.f.u.K I b...y.C.Q.|.S.;...",
"..[ U [ [ I v v ` y s y.P J J / a.7.v e a ` I J y J a. . .Q :.} / T u u u d...5 y [ D.H.{.#X#XXXH.b.u.{ C.b.b.o.D.#XQ j l L l.} ",
"{.D. XD.[ {.D.7.N.G.=X=X%X.X.XXX(.G.C.a.y.V.(.%XN..X%X.XF.G.#Xu.Z.H.b.7.y.7.7.y.C.C.G..X%XXXXXXXH.H.H.b.y.a.y.{ y.{  .s.s.F.%X.X",
"{ | ..[ [ C.u.| I  .y.7.a.C.G.G.F..XG.s.7.a.N.N.7.7.7.F.s.U [ [ J s.7.7.U I ` ` {.N.7.y.s.N.F.C.H.G.a.7.T 7.{ v I v ` y.a. .y.F.",
"U ..U J y.y.s.N.7.a.i.[ ` 7.y. .s U { ` 7.a.7.7._.7.v s J U ..^  .N.N.C.y.y.N.7.s.I $ + $ 2 2 e 7.G.G.7.I I T I I 7.b.a.F.s.T 5 ",
"G.(.G.N.G. .F.C.a.C.F.N.N.N.C.a.a.7.[  .a.G._._..X_.C.y.C.XX X..C.y.N.N.y.N.F.a.a.7. .` I v ` 7.s.H.%XF.7.{ 7.a.a..X.XF.(.XXF.7.",
"N.N.C.N.` 1 ` v s I [ | ..[ / } u.y.7.u.7.I a a 2 v y.(.F.N.f.C.I - I I v N e a y  .G..XN.7.7.F.y.7.` ` {  .7.y.a.{ A y a A { %X",
"G.a.C.N.K s y.7.y.;.y.a.y.| -.i.u.G.-X;XG.7.I I 7. .C.(.b.y.p.G.I v a.a.7.7.v 7.N.N.(.%X%X.X.X%X7.7.7.b.(.(.(.(.F. .v I  .7.s.{.",
"F.9.j.N.7.j.a.a.y.:.| | } } :.4.I o.p. .J I 7.G.%XG..XG.C.C.7.7.a.N.a.7.7.a.a.7.j.7.` ` 7.7.7.[ ` y.b.Z.F.G.F.b.y.y.a.F.{.XX{.f.",
"j.V.).%X=X=X` L y.-./ j i p u 7 s { ..J J 7.F.G.J y ` 7.a.(..X=X.X=XI v 7.7.(.a.a v 7. .v 1 2 v 7.y.y.K K o.o.J f.7.b.b.T y I 7.",
"N.N.j.@X%XF..X|.|.W.} L | 5.| | u.]. XG. X:X:XQ.| [ S.y.N.G.7.=X(..X%XXX.XG._..XN.a.F.(.F.a.F.%X%XXX X{..X}.D.C.{  .b.a.7.y.F.G.",
"7.` v ` Q W 9.F.D.S./ w 7 7 D :.s.y./ U / P J ^ p C.p. .` N I I ` ` I 7.7.7.` 7.i. .] 7.7.N.N.s.y.y...[ T T 7.s.7.J A A ` y.o.{ ",
";.`  . .} :.a.^.k.S.n.-.L j E h.b./ u F f.d.3.v.b.{.U U 7.` 7.` 7.` `  .` J I 7.l. .[ ` 7.s.N. .U { o.[ I I | s.{ ` { 7.a.f.y.J ",
"9.a.W.j.,.g.} ;.| g.S.k.h.a.i.a.D.3./ | 6.d.X.S u.l.n.a.a.a.7.N.7.7.y.7.7. . . .p.y.y.y.7.7.a.[ u.b.G.H.C.f.p.h.f.f.a.y. .7.f.f.",
"L W _ h w } E L ~ } ` n L ;.7.[ 7 u X.4.^ 3.m.X.p / P e a [ I e s P / U [ y.T p D s P [ U P L G [ Q / -.:.) H j J J J J J A A 5 ",
"| 3.,.E Q M.E.S.S.S.k.} W i.V.9.H F 3.d.^ ( 6.4.u.3.< e Q 7.N.a [ u.s.3.{ 7.u.7.[ P T :.../ ^ L l.:.-.3.p.5.5.:.s J y.s.y.{ v 3 ",
":.5.=._ ) ~ -.=.;.~ =.=.R W ` n -./ H F Y ^ Y Y Z K Q u.7.I ]  .[ / P A p s K P / Y T ^ K P P F j h j l i 0 w G U / 7.{ A J `  .",
"-.5._ c.h.~ 5.h.,.I ~ a.9.;.} Q 3.Z.E q Y ( F _ F G [.s.` i.` a.a.p * D 3.o.J 5 / -.y./ J | 5.4.w H :.3.E q w L -.-.7.` J ` N.(.",
"h.5.5.9.;.7.9.` j.7.]  .i. . .s.o.o.3...| [ / [ } h.i.i.i.i.l.:.i.i.` ..;.} y.} l.h.D.i.p.E.p.p.l.i.h.G.D.:.} 3.i.} | ..} i.n.-.",
"0 p 8 , k I v v v  . .I I / [ T T I J s s s s p P J 8 8 8 8 p 1 8 I W v 1 - l Q l 8 L Q I j 8 P :.} L j L } -.~ $ > 8 p L L p i ",
"5.M.:.E l.V.7.j.8.N.N.s.C..X{.C.a.C.{.G.s.y.p.C.{.u.[ 3.l.p...L N.W._.B.i.N.W.+Xa.Q ..l.S.-.U y...u.h.a.l.D.Z.i.Q i.i.l.!.a.Q } ",
"h.M.5.=.a.7.] i.N. .} y.u.y...| 7.p.s.y...[ 7.u.a.y.:.h.S.l.i.} N.:.a.7.j.!.l.F.a.:.i.y.i.i.-.:.:.:.:.3.:.| =.:.P | -.:.s.h.a.S.",
"E G E } L k n ` a ; e U J 8 s U 7.J 3 - y s s 8 y U :./ s D [ i.a 1 l I I W j } -.a.3.Q E } :.| P p 8 8 p p < $ 8 e p w < l } / ",
"-.E -.h.} W ;.l.] W 7.N.a.p.C.f.Z.u.7.y.Z.G.Z.a.Q } a.| ~ | } i.i.;.k.W.!.N.l.F.M.i./ } i.u.h.3.} ;.} } :.k.i.} [.D.Q.l./ -.l.:.",
") ) ~ ) =.| ;.7.7.` ` I s K T y A ` u.Z.s.y.5.y.| P Q / | -.L L Q } Q } :.:...Q P L i Q | / / G [ ~ K s v | l.D.a.3.a.i.} U P ~ ",
") 5.Q l a.l.:.7.l. .y.[ q D 3.| { y.C.b.y.o.y.n.y.P } } ) / L 3.;.F.a.i.7.7.h.} $ Q 3.p./ G | :.l.Q D [ y.:.-.a.5.i.:.p.C./ l 3.",
"-.) 5.h.) =.a.;.} 9.y.s.n.3.( u.Z.7.u.u.b.y.u.u.p.f.3.P Q | 5.u.3.i.i.7.y.a.s.p.3.p.h.3.| | _ P J J ~ j J :.) p ~ | :.a.a.i.| / ",
"G E -.5.L w i 8 l P v a [ y.....y.T T 5 J K T 5 q U | ^ ^ / } | P l i i j L D i :.} P L ^ _ Q G L 2 P } p , i a.U U P J L Q } } ",
"-.-._ _ -.:.-.:.a.9.Q P | 3...( y.7.y.{ o.s.C.y.| 5.6._ _ _ } | :.} }  .:.-./ U 5.3.3.:.3.3.4.5.:./ p.l.:.[ ..C.3.a.5.} ~ | :.-.",
"w S G S j l I :.} I P / U p u T A A { y.[ A ` { / G w q j P P j p J ~ ..} L P / i p G P G j G / Q } :.L L i.3.j l [ -.../ L p 8 ",
"E j # O 8 L Q } } Q } 3./ Z A ( { { f.H.u.X.3.f.d./ _ 3.v.m.h.^ 8 l } | / P ^ -./ G G ^ _ / ^ / h.l.i.| Q :.h.i.y ~ a.h.a...P j ",
"v.^ w j _ h.i.} :.y.y...^ ..o./ { 3.4.p.o.C.m.b.d.:.6.D.M.v.v.:.-.:.-.} } } :.:._ / ) ^ ^ P E _ -.../ [ Q U ..[ ..:.p.n.n.a.y.:.",
"S ^ h.D.} l p 0 8 j L s y P / Z { { P K u P P F ^ Z ^ 5._ 3.v.n.U L j q i L D i P _ 3._ H F ^ -.l L p L Q Q Q 8 ..P L L L s l ~ ",
"6._ 4.s.| -.i.[ i.i.Z.Z.| / | U Q K s ^ y H P -.| H | p.| _ 6.3.} :.3.} 5.Z.R.p.| 3.p.5.5.p.p.3.:.Q D 7.i.} -.} !.:.[ :.} Q } u.",
"S u H Y H J P o.#X[. X XoXJ e ~ k p i R -.R w G j G E i j G w / G R E 6.OX$XOX$XS.Q j Q } ..} ~ L I 7.~ P Q I [  . .L v 1 l s J ",
"^ H _ H q p L ..l.-.=.,.i.W x W :.9.=.-.5.h.:.~ Q -.5.P Q :.Q P 0 S +.,.g.-.-.5.h.x p -.l.i.U i y.7.y.[ Q } ;.s. .:.[ }  .C.7.v ",
"6.| 4./ D P L P D l l I n Q } } ` T [ T P } | _ | / } E E 3.5.:.j G R G x j j ! R L ~  .` ` } Q ~ [ U [ | } ) E U } y.} } Q ` / ",
"E G Q L L ) j , i v Q } 8 l Q ~ o.[ ..T < o * 3 q > D -.} J D G _ +.j 6 d x ~ =.0 W ,.! i R ,.l.} E 8 y Q ) 3.R y o o $ i > j } ",
",.,.g.5.g.R.g.=.k.N.G.^.Q } :.l.s.y.f.f.{ T u.Z.^ y H p.l.;.i.g.R.L.2.-.6.U.R.R.R ~ ;.,.=.2.k.,.3.3.E ) -.-.M.5.2._ v.M.5.q H h.",
"R c ! c d x ! =.~ I l L a a v U K K Y T { G.&XXX-XS.W n J n W k d z R +.=.! z h ~ d d ~ ~ x h h j Q _ 5._ G E _ S G -.R.OXE.5.R ",
"t.1.z.1.! @.,.c.k.i. . .C.s.l.n.C.G.C.....y.9.} ;.;.n ` w.8.w.@.+.2.r.L.I.2.+.@.x.! W ;.~ x R _ z.h.R.v.,.-.5.E.0 R -.5.,.-.R h ",
"L.&.r.r.1.2.=.=.i.g.y.[ C.s.y.| | s.l.i.7.I k Q n ' N e.P.&.8.P.1.+.! +.>.+.+.,.>.=.@.~ R +.+.! =.R 2.2.2.2.! =.,.=.E ! z R ) 2.",
"O.V O.$.&.! W ~ x & i L J s 5 P :.I & 9 W ] ;.m d m e.%.C #.#.1.1.% 9 z z c d d M ! x h h G ! x : z ;.8.=.N z d +.c ;.N d M @.B.",
"/.U.U.U.L.q.w.V.=.` ..p.y.o.s.s.N.B.>.w.B.8.e.$.0.e././.Y.K.J.Y.J.V +.L.U.x.+.z ~ 2.,.=.! ! ,.@.>.8.e.B.P.P.q.' I.r.w.q.&.w.T.@X",
"$.O.V O.+.! ~ =.,.-.l U { { y.A x ' >.r.8.V V V V g B #.%.C B <.1.+.O.2.2.+.! h 9 0 6 w j d w = b N b f b ' 8.q.>.' b N b r m b ",
"2.+.! @.g.k.8.;.k.i./ [ | o.y.s ] g.~.oX).T.U.~.L.$.%.1.<.O.B &.2.U.2.>.! x +.! % h G Q j = j ~ V.B.j.8.@.8.x.~.'.).B.).V.>.q.;.",
"I.z.2.2.g.g.;.} ` T y.y.T { { 7.k.x.c.I.I.I.c.c.I.x.T.L.x.x.q.x.x.).B.x.,.] ;.] h R ) :.) G =.6.;.] @.9.2.=.~ ;.k.g.,.I.V.8.V.j.",
"=.-.=.Q h i j G v 5 7.{ I T F ..3.R G j H Q x x k L -.} -.5.;.:.n ! k i x k i 6 ~ G 0 G ) ) _ H l l I ] ~ R ~ k.=.~ E ~ W W ;.:.",
"~ =.=.~ R Q ` | y.[ y.u.u.u.y.y.n.-.3.| 3.h.| 3._ / 3._ ( ../ ^ ;.;.=.! :.9.! ) -.:.) -._ _ 5.5.-.5.h.-.E E -.h.g.:.:.) E ) =.) ",
"G G G H ) | [ U A T U { T K { T _ P _ | | 4._ 3.{ Y H Z Z K F U x ~ 8.>.7.,.x } ^ ) G H H E _ ^ ) 5.5.-.-.5.-.E S w G w w E G j "
};
