/* XPM */
static char *a21546a37fc24c95a6fa1df50fbf7a952C11SvCXTQlmmUHZ[] = {
/* columns rows colors chars-per-pixel */
"64 64 256 2 ",
"   c #353713",
".  c #333221",
"X  c #1D0E07",
"o  c #5B2619",
"O  c #5A3718",
"+  c #51360D",
"@  c #663B1C",
"#  c #672F1C",
"$  c #593A25",
"%  c #5A3E32",
"&  c #473827",
"*  c #683826",
"=  c #6D392E",
"-  c #324B00",
";  c #2E4E05",
":  c #1F7302",
">  c #396504",
",  c #317104",
"<  c #274E1D",
"1  c #495703",
"2  c #5A5A04",
"3  c #514B0F",
"4  c #665A04",
"5  c #795807",
"6  c #7E5A12",
"7  c #7C5519",
"8  c #6F4C17",
"9  c #4A6A02",
"0  c #536C10",
"q  c #766408",
"w  c #736D12",
"e  c #594537",
"r  c #53492B",
"t  c #684528",
"y  c #774929",
"u  c #6C5826",
"i  c #7D5323",
"p  c #7D532B",
"a  c #765A2B",
"s  c #694A37",
"d  c #7A4C33",
"f  c #784939",
"g  c #69553A",
"h  c #7A5638",
"j  c #596D27",
"k  c #686521",
"l  c #777622",
"z  c #7B6636",
"x  c #726B33",
"c  c #555347",
"v  c #654840",
"b  c #6C5745",
"n  c #7B5946",
"m  c #72534A",
"M  c #766B4F",
"N  c #6E755F",
"B  c #825C0A",
"V  c #80591B",
"C  c #84561C",
"Z  c #8E5215",
"A  c #85630B",
"S  c #876A0D",
"D  c #876A19",
"F  c #967815",
"G  c #907012",
"H  c #A4680E",
"J  c #815624",
"K  c #825924",
"L  c #845A2A",
"P  c #8A5829",
"I  c #955828",
"U  c #824C39",
"Y  c #855B33",
"T  c #875839",
"R  c #965B35",
"E  c #8A4F2D",
"W  c #886728",
"Q  c #976529",
"!  c #897728",
"~  c #987B2A",
"^  c #8A6538",
"/  c #946539",
"(  c #957837",
")  c #A77733",
"_  c #A35C16",
"`  c #8B5C44",
"'  c #885746",
"]  c #935D47",
"[  c #8A544A",
"{  c #A85C45",
"}  c #866347",
"|  c #9B6C4B",
" . c #966747",
".. c #9A744C",
"X. c #886755",
"o. c #976954",
"O. c #987556",
"+. c #8A7751",
"@. c #A46A4A",
"#. c #A8764A",
"$. c #B27849",
"%. c #A56D54",
"&. c #A37355",
"*. c #AD7B54",
"=. c #A57B5B",
"-. c #AB7C5B",
";. c #A87656",
":. c #B37B5B",
">. c #B57956",
",. c #B66954",
"<. c #977566",
"1. c #916E65",
"2. c #A77C65",
"3. c #B57F65",
"4. c #C3785E",
"5. c #30910C",
"6. c #33AA18",
"7. c #29BC26",
"8. c #38B428",
"9. c #21901D",
"0. c #4A8717",
"q. c #459B16",
"w. c #538B0E",
"e. c #6B8E16",
"r. c #4BAD1A",
"t. c #6BB618",
"y. c #4D8F29",
"u. c #718D2A",
"i. c #49B32D",
"p. c #6FAC2F",
"a. c #15D709",
"s. c #34D417",
"d. c #0DEB04",
"f. c #1BEC0A",
"g. c #03FE02",
"h. c #0CFF03",
"j. c #05FF0A",
"k. c #0CFF0B",
"l. c #0BF604",
"z. c #14F503",
"x. c #1CF602",
"c. c #14FE04",
"v. c #1AFC04",
"b. c #1DF50C",
"n. c #14FD0B",
"m. c #1BFB0B",
"M. c #16F40C",
"N. c #1DEB14",
"B. c #0BFF13",
"V. c #09FA13",
"C. c #1CF513",
"Z. c #15FC13",
"A. c #1CFB13",
"S. c #17F718",
"D. c #25EC0A",
"F. c #34E80E",
"G. c #24F505",
"H. c #21FB04",
"J. c #23F50B",
"K. c #23FB0B",
"L. c #29F20C",
"P. c #24ED13",
"I. c #29E91A",
"U. c #37E717",
"Y. c #23F414",
"T. c #26F718",
"R. c #32F619",
"E. c #37CA27",
"W. c #37D924",
"Q. c #3ACA33",
"!. c #36D735",
"~. c #29CE28",
"^. c #1CEF25",
"/. c #28E925",
"(. c #38E826",
"). c #28F823",
"_. c #36F624",
"`. c #38EA31",
"'. c #1FCA23",
"]. c #4DD01B",
"[. c #44E218",
"{. c #45C829",
"}. c #58CA27",
"|. c #48D728",
" X c #45C837",
".X c #46D73A",
"XX c #57D030",
"oX c #67C829",
"OX c #68CE2F",
"+X c #45E527",
"@X c #48E537",
"#X c #53EB37",
"$X c #64CF1F",
"%X c #3DB549",
"&X c #589250",
"*X c #4EB04D",
"=X c #6BB24F",
"-X c #59A964",
";X c #6BB26F",
":X c #6B966B",
">X c #3CC643",
",X c #47C644",
"<X c #53C64A",
"1X c #74D16F",
"2X c #73F06D",
"3X c #60D757",
"4X c #918E2E",
"5X c #A78130",
"6X c #86971A",
"7X c #978A52",
"8X c #A98359",
"9X c #BA845B",
"0X c #B68458",
"qX c #AB884F",
"wX c #948367",
"eX c #A98668",
"rX c #B68666",
"tX c #B5906A",
"yX c #82AA6B",
"uX c #C4865B",
"iX c #C68866",
"pX c #C4916C",
"aX c #CC8C71",
"sX c #84D577",
"dX c #777F81",
"fX c #7CD881",
"gX c #92958F",
"hX c #A6998F",
"jX c #92B292",
"kX c #ABA599",
"lX c #B0B2AB",
"zX c #9DA9A3",
"xX c #CABCB5",
"cX c #91D291",
"vX c #93EC92",
"bX c #B3D2B2",
"nX c #A9F9A6",
"mX c #B3F4B2",
"MX c #A3E39B",
"NX c #C5CFB6",
"BX c #C7EFBB",
"VX c #BCB9C1",
"CX c #BCCFC4",
"ZX c #BBF3C3",
"AX c #D7D9D5",
"SX c #CBD0CA",
"DX c #E8DAD2",
"FX c #D6FCCC",
"GX c #D7F8D7",
"HX c #CFEFCF",
"JX c #EBEED9",
"KX c #E1DDE2",
"LX c #DCEFE4",
"PX c #E6FCE5",
"IX c #FAF7F6",
"UX c #EFEEEB",
/* pixels */
"k.k.k.g.j.j.j.k.k.m.m.J.J.G.G.K.T.S.Y.C.n.v.v.v.v.v.v.v.v.c.c.c.n.n.n.v.v.H.H.G.H.H.G.v.v.v.c.n.n.n.n.n.k.k.k.j.k.j.k.h.c.c.c.c.",
"c.n.k.j.k.j.j.n.n.m.H.m.m.v.v.m.C.C.C.k.k.g.g.c.c.v.v.v.v.v.v.n.n.n.n.c.n.v.v.v.v.v.v.v.v.c.n.n.n.n.n.n.n.k.k.k.k.k.k.k.c.c.n.c.",
"J.m.n.n.n.k.k.c.v.m.v.c.c.g.g.g.m.Z.c.k.g.g.g.g.g.c.v.H.K.b.m.m.m.n.k.c.c.c.c.c.c.c.c.n.c.n.n.n.n.n.n.n.n.n.k.n.n.k.n.n.n.c.c.v.",
"m.m.m.v.c.c.c.c.c.c.c.c.h.g.g.g.x.b.z.c.l.k.g.g.g.k.n.m.Z.m.Z.m.n.k.n.k.k.g.k.k.j.k.j.n.n.n.n.c.v.v.c.c.c.n.c.c.n.n.c.c.n.c.m.c.",
"n.m.m.G.G.H.v.v.c.k.g.g.k.n.m.L.R.F.[.[.[.[.R.T.A.Z.B.j.j.j.n.n.n.c.c.c.k.j.k.j.k.k.k.k.n.n.m.v.c.c.c.c.c.v.v.c.c.m.v.n.v.v.n.v.",
"k.n.m.m.G.G.v.c.k.k.k.m.Y.U.[.].}.#XoXoXOXOX$X].(.T.S.B.j.g.g.c.c.m.c.n.c.k.k.n.k.k.n.n.n.n.v.m.c.c.c.c.c.v.v.v.v.v.v.v.m.c.n.n.",
"k.k.v.v.v.v.v.n.n.n.Y.U.+XOXoX6Xp.4X4X4X4X4X4Xp.oX|.T.S.j.g.g.g.c.v.v.v.v.v.n.m.m.c.m.m.m.v.v.v.c.c.c.c.v.v.v.v.v.v.v.m.c.n.n.n.",
"h.h.c.c.c.v.m.A.Y.I.+XXXp.6X4XqX4X7X7X$.uX) #.4X4Xp.}.[.L.H.c.g.v.v.v.v.v.v.v.m.m.v.v.v.v.v.c.c.n.k.c.c.c.v.v.v.v.v.v.c.n.n.n.k.",
"v.z.h.m.g.j.C.I.#Xr.w.u.4XqXqXuX>.:.:.:.>.*.*.) ) 4X6Xt.$X[.F.J.v.m.c.z.z.K.K.x.H.v.v.v.c.c.c.c.k.n.k.c.c.c.c.c.v.v.c.c.n.k.k.k.",
"v.v.h.g.j.A._.|.q.w.! qXuXiXiXiX4.>.:.:.-.-.>.>.$.) ) 4Xp.t.}.+XJ.z.m.m.m.z.c.K.v.c.c.c.c.g.h.k.k.k.c.c.c.c.c.c.c.c.h.c.k.k.k.k.",
"c.v.c.z.P.(.|.r.9 l qXiXaXaXaX4.4.4.>.8X-.8X2.-.:.>.#.( ! u.u.XX`.C.M.S.K.c.c.c.c.c.h.h.k.k.k.k.m.Z.Z.m.c.h.c.c.c.c.h.k.h.k.k.j.",
"g.c.m.L.U.}.q.9 w #.uXaXaX3.aXrX>.$.$.#.=.8X8X2.2.-.8X.. .z z y.{.(./.P.C.K.c.g.h.g.h.h.n.Z.Z.T.C.A.C.K.m.n.c.h.g.c.h.h.k.k.k.n.",
"g.g.K.U.}.q.9 4 Q qXpXaXaXaXtX3.$.$.>.>.>.:.:.=.O.+.+.+.M z a j 5.8..X+XI.C.n.h.g.g.h.n.J.P.R.U.I.P.Y.b.m.m.m.c.h.h.h.h.c.n.n.n.",
"g.k.C.[.].9 2 D #.9XpXpXaXaXrXeX0X*.>.>.>.:.:.-.2.+.M b g t * 3 ; : 6.XX+XP.z.c.g.h.m.L.U.+X|.|.+X_.I.P.D.m.n.n.c.h.c.k.c.c.m.m.",
"g.B.N.(.}.w.2 ~ 0XpXaXaXpX9X0X8X-.-.:.:.:.:.;.%.&. .p 8 O O O $ 2 - > 6.|.(.J.n.c.v.Y.F.].].t.r.s.F.U.I.Y.b.n.c.c.h.c.c.v.m.m.m.",
"g.m.Y.U.XX0.0 7XtXpXpXpX9XqX#.8X-.2.;.2.;.,.%.| / Y t O O O t s a u k 9 q.{.(.T.G.D.[.].r.w.9 , : 5.{.+X(.P.z.k.c.c.c.v.v.m.b.m.",
"c.v.c.T.|.q.x 8XeXeX8XqX#. .@.@.%.%.%.| @.%. .T T t * t e s m M n ` h u 0 , r.#X[.].t.e.e.q w 0 1 ; ; : 6.(.n.g.c.c.m.m.m.v.m.m.",
"v.v.h.K.U.5.k ;.eXO.+.^ a a U ' ] |  . . .|  .T Y t t t e b m v b s d = r 1 0.q.$Xt.6X6XS S w w + + + ; 5.W.m.c.c.v.K.J.v.v.m.n.",
"v.v.c.Y.W.q.k %.o.n a t 8 t * f ' ' '  .| | | ^ y t O $ s m m e & & o $ @ 3 1 9 e.6X6XS F S l w 4 8 k j r.!.m.g.c.c.H.J.m.v.n.n.",
"v.c.c.K.(.q.k | n m t t r t t f = s n ' O.=.|  .t @ $ r s M N c .   + o O O 2 2 w S F F F 6Xl l W ~ qX:X=X#XG.l.c.c.b.m.c.c.n.n.",
"c.v.c.Y.+Xq.k ] [ [ m [ n b v v % e s } <.eX&.^ y t t s b 1.1.c . & r t t * C Z S G F 5X4XF l l ( W / x i.|.L.c.c.v.m.m.c.c.n.n.",
"c.v.c.Y.(.q.k ` o.1.1.X.M b v v % % s n =.rX&./ i y t t b M N c & e g h ' T E R _ ) ) 5X5X! l D Q C i 3 0.|.L.c.c.n.m.m.c.c.n.n.",
"n.v.n.Y.(.r.j ' 1.1.X.m g r e v v e g n =.9X*./ P i y t g b b b s h n } } T { ) $.) 5X5X5XF H A Z C E k y.XXL.c.c.n.m.n.c.k.k.n.",
"m.m.z.P.(.6.j z 1.[ m r r . & v e v n } =.0XqX#.R J i p t g b b T T h h T T  .$.uXqX) ~ 5X~ H Z Z Z E u e.}.F.v.v.n.n.n.h.h.c.k.",
"m.l.m.J.(.{.9 t f = % % < . & s v g h | 0XrX0X$.Q Z y @ d h h h E R ^ z x z  ./ #.) ( ! ~ F H H Z Z I z w.}.F.H.c.m.m.n.j.h.c.c.",
"Z.n.m.b.R.{.> r $ % = v r r e f g h } ..0X9X0X) ) I Z Z J h h Y T R ^ W x z / / ( / ! ! F H H H Z I R ^ u.oXF.G.n.n.Z.k.k.h.c.c.",
"n.n.v.x.T.W.,   & = m [ M g n T T ^  .| $.9X0X$.$.Q E E L L Y Y R R ^ z z W W R I P W W ! G H H Z _ / / e.OXF.b.n.m.Z.n.k.h.c.c.",
"M.n.v.v.T.U.0.- $ m o.1.M M ' R  ...#.#.*.9XuX>.@./ R E L L Y P R  .^ x W W P I I K 6 w w G S H Z _ / ^ j OXF.G.v.k.k.k.h.h.c.c.",
"l.m.v.c.m.(.q.; r T o.X.M M @.,.*.*.*.*.0XrXtX:.@.|  .Y Y Y Y Y ^ ^ ^ ^ W W I I I Z J 6 q S S H _ I R W e.OXU.K.m.n.n.k.h.c.c.v.",
"k.m.c.c.c.I.i.9 r n  .o.7X7XuXuXuX0X8X*.rXrX2.O.O.| } h E Y Y Y ` ^ ^ ^ W W I I E C i 7 6 q S G G Q I z j OXU.K.k.k.V.k.h.h.v.x.",
"k.m.c.c.h.P.XXy.k n o.eX7X7XpXaXiX0X*.;.=.O.o.X.n ' h s t y p Y ` ] / R I W C I J J 7 7 6 5 A G G Q R a e.OXU.H.M.k.k.k.g.c.v.G.",
"k.n.c.v.c.J.#Xy.0 h O.eXtX7XuXuXiX9X0X-.o.} n } b g t + + + y y T ] / / L C K P i i i 7 6 6 B G D D I a 0 oXF.x.n.n.n.n.h.h.v.x.",
"h.k.m.z.c.v.F.OXj x wXeX7X0XuXiX:.3.;. .y O * s = s t * O @ * y T  . ./ Y K K L K i i V 6 A A S q W Q Q u.oXD.h.c.z.m.m.h.h.v.v.",
"h.k.M.z.c.v.L.|.y.j wXeXqXqXuXiX3.2.%.` t o @ t y h g t t y d y U T T / Y L J J K i K V 6 B A S q W { Q u.OXD.h.c.x.x.b.c.g.c.n.",
"h.k.m.n.c.c.D.|.y.j O.2.8XqX0X4.:.-.%.` t * = g h n h d y d f d d U Y } ^ L K i K K K V 6 B A A q W I Q e.XXD.h.c.x.b.b.h.h.c.z.",
"k.c.M.x.c.c.J.+Xy.j } -.#.0X>.:.:.:.-.| ` U T ` ` ` ' T f d y d f d Y Y Y ^ L i i K C V 6 B A A 5 7 I / e.XXG.h.c.n.b.x.c.h.c.n.",
"k.c.m.v.c.c.m.(.i.< } ,.$.>.;.>.*.9XrXrX&.| o.o.} ` ` ' T f d y d d d L P L L J J K K V 6 B B A 4 8 E ^ e.XXR.c.n.m.b.m.c.g.c.c.",
"h.c.m.x.c.h.m./.8.j h @.,.,.;.-.*.:.iXrX3.-.;.%.] ` ` } ' U U U d y y y L L L J L K C 7 6 B A A 8 8 @ 8 0 }.P.h.n.m.J.b.c.h.c.c.",
"c.n.v.v.c.c.k./. X, u { ,.,.&.=.*.9X9X9X3.:.;.%.o.] ] o.] [ U [ f d d p L K J J J K K V B 6 A A 5 + + 3 : i.Y.h.n.m.m.m.c.c.c.c.",
"k.n.v.v.c.k.Z.). X, 8 R { ,.&.8X*.9X9X*.%.:.;.2.%.o.] o.[ [ U f U d p U L L L L L K C V 5 B B A 7 + + 3 : Q.T.v.n.n.m.m.c.h.c.c.",
"n.c.v.v.c.h.k.C.@X5.k 8 { ,.| =.*.0X>.*.#.%.%.%.{ { [ f = # = = y t y y y P L L L K K V Z 5 5 B D + ; X : !.f.n.c.n.C.m.c.c.c.n.",
"n.n.v.c.c.h.V.S.(.6.9 8 @.%...=.*.$.*.$.>.%. .U # = = o o o o # * @ @ @ 8 i J K L K C V 7 B B 5 B 3 - ; 5.|.b.c.k.n.n.n.c.c.c.k.",
"Z.n.c.c.c.c.Z.S./.E., 2  .] -.=.*.#.#.#.@.] E # o # # o o o = = y * @ @ 8 i L L L K C 7 5 B 5 5 5 4   : 6.`.K.h.c.c.n.n.c.c.n.k.",
"Z.n.c.c.c.c.n.S.Y.W.5.> u ] &.;.#.#.;. .R E = * = f U U = U f [ d y y i y i L W K K K 7 B 5 5 5 q 4 ; : Q./.v.g.h.h.n.m.c.c.n.n.",
"Z.n.c.h.c.v.M.M.C._.E., 3 } / #.&.| ] E E d U [ [ [ [ [ [ m n ' d d y p i i i i K K 7 7 5 5 5 5 q 4 ; 6.@X/.c.h.h.k.n.n.v.c.m.n.",
"A.n.h.h.c.x.b.m.l.T.@X5.> z ^ #.| R y y U ] o.{ ] [ [ = = f f f d d d p L L K i K i 7 7 5 5 5 5 4 9 , 8.@XN.c.c.g.g.n.n.n.m.m.B.",
"S.n.g.h.c.x.b.M.n.n.`.i.j g ( @.| T ' [ ] o.o.{ [ [ [ = f f v f U U Y Y Y L L K K J 7 7 7 5 5 5 4 0 q. X`.f.c.c.h.h.n.n.v.n.n.Z.",
"S.n.c.c.c.n.m.m.n.n./..X9.0 ..@.| | %.%.%.] [ [ U [ f f [ [ [ T ` T T Y Y L L p K J J 7 5 5 5 4 9 w.}..XP.n.c.g.h.c.c.m.n.n.m.B.",
"Y.b.v.v.c.g.k.B.S.V.S.(.{.0.a @...o.O.;... .] ] T [ [ [ [ ' ' ` R R ^ ^ a z ^ p E Z Z 8 5 q 4 9 r.s.F.H.g.h.c.c.v.G.J.m.n.n.k.k.",
"Y.Y.G.H.c.g.j.B.S.S.A.I.W.i.u. ...| O.*.*.@.| | ] ] o.] X.` } R / E Y ^ z h a Y / Z @ B 5 4 2 w.s.F.K.c.g.h.v.c.H.J.m.m.Z.n.m.n.",
"C.n.v.v.c.g.B.B.S.T.A.Y.(.XXyX! +.| +...7X#.....o.2.2.<.O.O.O.} ] R  .^ T }  .Y I i 8 4 2 9 w.t.+XP.K.n.h.c.v.x.G.M.m.n.n.n.n.x.",
"B.k.c.v.c.c.k.n.d.Z.Z.M.I.@X=Xu.+.+.........O.O.o.2.2.<.o.o.O.o.} ' } ' h T T Y J 7 5 1 > 5.i.#X(.P.M.z.n.v.v.x.m.m.j.j.k.g.c.x.",
"j.j.h.h.c.h.c.c.c.v.c.g.A.(.|.p.u.O.%.&.&.#.8X-.3.rX3.2.1.o...| O.n n X.} d Y Y i 4 1 > 5.r.|.`.T.C.C.Z.m.v.v.v.v.k.j.j.g.g.c.v.",
"B.B.n.n.v.v.x.b.H.m.c.m.A.I..X<XM o.| &.*.0XrXrXrX3.2.%.o.` } } ' n n g s h p O 8 3 ; 0 }.XX`.^./.C.S.S.m.x.D.J.K.Z.V.V.k.k.G.G.",
"^.^././.I.I.I.F.I.P.N.N./.`..X=Xu.O.| | =.0X3.;.<.1.X.X.} m f g g g g r r g s & 3 3 0 i.3X.X!.`./././.N.P.I.s.U.W././.^./.I.W.s.",
">X>X%X,Xi.,X XQ.E.E.~.Q.8.<X<X=XwX<.X.+.wXeX2.o.2.<.1.<.1.M M X.<.e v wXwXb g +.+ x yX;X*X%X>XQ.,X.X!.!.!.!..X Xi.8.>X>X,X<X*XXX",
"HX:XGXGXmXcXFX;Xy.vXvXnXcXGXGXjXKXVXJX& xXUXUXkXKXAXVXCXIXKXhXIXkXr hXIXDXkXIXJXxXkXJXFXyXmXnXmXfXZXfX%X3XmXnXcXmXZXbXcXUXjXbXPX",
"PXdXLXKXCXlXGX-X-XcXGXjXCXCXAXgXAXAXSXc xXIXN c IXVXSXVXUXAXzXIXgXX lXIX1.b UXDXlXlXAXNXbXPXBXGX&XGX-X-X-XFX:XjXUXKXlXVXUXgXzXAX",
"AXgXLXUXVXzXPX;X-X;XLX:XbXSXLXzXCXCXLXc & SXHXgXKXSXCXVXIXKXN IXzX. . lXAXzXAXPXCXzXSXAXlXJXDXNXN FXfX%X;XZX;XjXUXUXxXKXLXzXgXLX",
"PXNXCXZXCXMXZX-X%X-XZX-XbXHXFXjXGXHXZX< bXjXHXbXKXSXCXCXCXLXjXPXc < :XbXFXZXSXZXZXbXLXGXlXHXAXBX&XFX1X%X>XnX;XcXBXBXNXLXLXbXjXGX",
"p.1X2X1X1X<X2X#X~.!.2Xi.sXsXsX,XcXvX1X1X=XnXMXy.cXZX&X-X1XMX-XnXvXi.*XnXvX*XMXvXfX*XMXMX&XsXnXsX6.2X`.W.'.2X!. X3X1XsX1X1X3X<XfX",
"W.#X~.7..XE.W.a.S.S.a.W.].{.W./.Q.7.>X.XQ.8.Q.XX8.8.: 9.9.6.i.8.7..X3X~.E.Q.7.~.~.Q.Q.7. X X6. X'.a.I.N./.a.W.W.E.Q.!.'.'.~.~.~.",
"f.Y./././.I.L.H.k.g.b._.W.U.Y.).M.S.T.f.f.).d.I.T.#X/.^.#X)._.R._.T.a.C.R.I._.N.).T.T.C.Y.T.J.f.).C.d.).d.Y.I._.(./.S.^.S.T.R.L.",
"H.l.Z.).C.R.H.l.g.g.T.D.P.T.Z.g.j.g.g.h.c.h.c.c.k.d.Z.A.d.m.z.n.l.n.n.n.z.c.n.z.c.g.h.h.g.h.c.c.n.m.Z.j.m.K.L.D.C.T.V.^.V.z.K.G."
};
