/* XPM */
static char *_1f9c6930a4d4b7ef4c7caf31638abdfmlVGMoqLF9xVtrIe[] = {
/* columns rows colors chars-per-pixel */
"64 64 152 2 ",
"   c #1D1B15",
".  c #353127",
"X  c #534A36",
"o  c #554D39",
"O  c #605C4E",
"+  c #716549",
"@  c #796A48",
"#  c #6A6352",
"$  c #7A6D50",
"%  c #917641",
"&  c #907C51",
"*  c #837E6A",
"=  c #BD8D3E",
"-  c #BF903D",
";  c #9D824B",
":  c #8E805E",
">  c #9E8A57",
",  c #B48542",
"<  c #BF9345",
"1  c #BE964C",
"2  c #BE984E",
"3  c #A78E54",
"4  c #A38F5A",
"5  c #AF9457",
"6  c #BF9A53",
"7  c #B0965B",
"8  c #B5985D",
"9  c #BF9E5B",
"0  c #BFA15E",
"q  c #8D856B",
"w  c #9F9067",
"e  c #A49263",
"r  c #AA9663",
"t  c #AF9B68",
"y  c #B39C65",
"u  c #B39E6A",
"i  c #AC9D74",
"p  c #BFA465",
"a  c #B6A26E",
"s  c #BDA66B",
"d  c #BFA86E",
"f  c #B7A273",
"g  c #BAA673",
"h  c #BDA976",
"j  c #BEAB7B",
"k  c #C19544",
"l  c #C29A4D",
"z  c #C29D54",
"x  c #C19E5A",
"c  c #C4A056",
"v  c #C9A154",
"b  c #C3A25C",
"n  c #CAA65C",
"m  c #C3A463",
"M  c #C9A662",
"N  c #C6A866",
"B  c #CAA965",
"V  c #C2A669",
"C  c #C9A768",
"Z  c #C4AA6C",
"A  c #C9AC6C",
"S  c #D4B26D",
"D  c #C4AD74",
"F  c #CAAE72",
"G  c #C3AF79",
"H  c #C7B077",
"J  c #CBB175",
"K  c #C5B17D",
"L  c #CBB47C",
"P  c #CFB87F",
"I  c #D4B473",
"U  c #D2B67D",
"Y  c #D2B97D",
"T  c #BAAB83",
"R  c #B7AA8A",
"E  c #C0AF83",
"W  c #C6B481",
"Q  c #C9B683",
"!  c #CCB985",
"~  c #C6B58C",
"^  c #C8B788",
"/  c #CCBB8A",
"(  c #D1B781",
")  c #D3BB85",
"_  c #D2BE8B",
"`  c #D8BF8C",
"'  c #C1B596",
"]  c #C6BA95",
"[  c #CEBE92",
"{  c #D5C18D",
"}  c #D9C38D",
"|  c #CFC093",
" . c #CDC19C",
".. c #D4C293",
"X. c #D9C493",
"o. c #DCC996",
"O. c #D3C49B",
"+. c #DBC69B",
"@. c #DCC99D",
"#. c #E3C58A",
"$. c #E0CA95",
"%. c #E4CF9B",
"&. c #CFC4A6",
"*. c #CBC2AC",
"=. c #D3C5A1",
"-. c #DECBA3",
";. c #D6CBAA",
":. c #DDCFAD",
">. c #DFD1AC",
",. c #D5CDB7",
"<. c #DACEB3",
"1. c #DED3B3",
"2. c #E1CCA4",
"3. c #E1CEAB",
"4. c #E3D3A5",
"5. c #E2D2AC",
"6. c #E4D4B3",
"7. c #E5DBB6",
"8. c #E6D7BA",
"9. c #E6D9BE",
"0. c #E8D9BB",
"q. c #EDE0BF",
"w. c #DDD6C4",
"e. c #E5DBC1",
"r. c #EADEC4",
"t. c #E7DEC9",
"y. c #EADFC8",
"u. c #ECE2C5",
"i. c #EDE3CD",
"p. c #EDE5D2",
"a. c #EBE7DD",
"s. c #EEE9DB",
"d. c #F1E7D4",
"f. c #F1E9D6",
"g. c #F2EBDC",
"h. c #F4EEE2",
"j. c #F6F0E5",
"k. c #F7F3E8",
"l. c #F7F3EA",
"z. c #F8F3EB",
"x. c #F9F5ED",
"c. c #FAF6EF",
"v. c #F7F5F0",
"b. c #F9F7F1",
"n. c #FBF9F3",
"m. c #FBF9F5",
"M. c #FBFAF7",
"N. c #FCFAF5",
"B. c #FDFBF8",
"V. c #FDFCFB",
"C. c #FEFDFC",
"Z. c white",
/* pixels */
"Z.Z.Z.Z.Z.Z.Z.Z.Z.Z.Z.Z.Z.Z.Z.Z.Z.Z.Z.Z.Z.Z.Z.Z.Z.Z.Z.Z.Z.Z.Z.d., = n v 2 Z A 2 J J #.j.V.Z.Z.Z.Z.Z.Z.Z.Z.Z.Z.Z.Z.Z.Z.Z.Z.Z.Z.Z.",
"Z.Z.Z.Z.Z.Z.Z.Z.Z.Z.Z.Z.Z.Z.Z.Z.Z.Z.Z.Z.Z.Z.Z.Z.Z.Z.Z.Z.Z.Z.N.X.- v B M % + r n y @ X.0.Z.Z.Z.Z.Z.Z.Z.Z.Z.Z.Z.Z.Z.Z.Z.Z.Z.Z.Z.Z.",
"Z.Z.Z.Z.Z.Z.Z.Z.Z.Z.Z.Z.Z.Z.Z.Z.Z.Z.Z.Z.Z.Z.Z.Z.Z.Z.Z.Z.Z.V.6.z n ( / { e + ; S Y s >.u.V.Z.Z.Z.Z.Z.Z.Z.Z.Z.Z.Z.Z.Z.Z.Z.Z.Z.Z.Z.",
"Z.Z.Z.Z.Z.Z.Z.Z.Z.Z.Z.Z.Z.Z.Z.Z.Z.Z.Z.Z.Z.Z.Z.Z.Z.Z.Z.Z.Z.h.S l B ! ..O.! P I { t : ] u.B.Z.Z.Z.Z.Z.Z.Z.Z.Z.Z.Z.Z.Z.Z.Z.Z.Z.Z.Z.",
"Z.Z.Z.Z.Z.Z.Z.Z.Z.Z.Z.Z.Z.Z.Z.Z.Z.Z.Z.Z.Z.Z.Z.Z.Z.Z.Z.Z.Z.2.1 2 0 H Q ]  . .) ] O   * 7.n.Z.Z.Z.Z.Z.Z.Z.Z.Z.Z.Z.Z.Z.Z.Z.Z.Z.Z.Z.",
"Z.Z.Z.Z.Z.Z.Z.Z.Z.Z.Z.Z.Z.Z.Z.Z.Z.Z.Z.Z.Z.Z.Z.Z.Z.Z.Z.Z.h.n 1 m 0 K ! W K j a i # . q 7.n.Z.Z.Z.Z.Z.Z.Z.Z.Z.Z.Z.Z.Z.Z.Z.Z.Z.Z.Z.",
"Z.Z.Z.Z.Z.Z.Z.Z.Z.Z.Z.Z.Z.Z.Z.Z.Z.Z.Z.Z.Z.Z.Z.Z.Z.Z.Z.Z.3.l 9 D V N W ^ j d & @ X o T q.V.Z.Z.Z.Z.Z.Z.Z.Z.Z.Z.Z.Z.Z.Z.Z.Z.Z.Z.Z.",
"Z.Z.Z.Z.Z.Z.Z.Z.Z.Z.Z.Z.Z.Z.Z.Z.Z.Z.Z.Z.Z.Z.Z.Z.Z.Z.Z.l.U n Z G K Z K ! H d s y t g o.f.Z.Z.Z.Z.Z.Z.Z.Z.Z.Z.Z.Z.Z.Z.Z.Z.Z.Z.Z.Z.",
"Z.Z.Z.Z.Z.Z.Z.Z.Z.Z.Z.Z.Z.Z.Z.Z.Z.Z.Z.Z.Z.Z.Z.Z.Z.Z.V.q.B J H j K H K K H d p F Y Y o.h.Z.Z.Z.Z.Z.Z.Z.Z.Z.Z.Z.Z.Z.Z.Z.Z.Z.Z.Z.Z.",
"Z.Z.Z.Z.Z.Z.Z.Z.Z.Z.Z.Z.Z.Z.Z.Z.Z.Z.Z.Z.Z.Z.Z.Z.Z.V.v.Y Z ! / | Q L K K H d p d F Y %.l.Z.Z.Z.Z.Z.Z.Z.Z.Z.Z.Z.Z.Z.Z.Z.Z.Z.Z.Z.Z.",
"Z.Z.Z.Z.Z.Z.Z.Z.Z.Z.Z.Z.Z.Z.Z.Z.Z.Z.Z.Z.Z.Z.Z.Z.Z.Z.7.0 S { | { ! L K K W j H d F } 4.g.V.Z.Z.Z.Z.Z.Z.Z.Z.Z.Z.Z.Z.Z.Z.Z.Z.Z.Z.Z.",
"Z.Z.Z.Z.Z.Z.Z.Z.Z.Z.Z.Z.Z.Z.Z.Z.Z.Z.Z.Z.Z.Z.Z.Z.v.i.S n s ..| W ^ K K j j H h Z H } $.Y 6.l.V.V.Z.Z.Z.Z.Z.Z.Z.Z.Z.Z.Z.Z.Z.Z.Z.Z.",
"Z.Z.Z.Z.Z.Z.Z.Z.Z.Z.Z.Z.B.N.c.z.j.g.l.N.m.h.e.` A z k n F { | / ^ W K Q j d d d P { } p B { p.n.B.Z.Z.Z.Z.Z.Z.Z.Z.Z.Z.Z.Z.Z.Z.Z.",
"Z.Z.Z.Z.Z.Z.Z.Z.Z.V.b.f.8.@.` Y I B B Y U M z z z < = z N { | { ! W K K K d p Z P o.Y n 0 0 B Y ( ) ` +.-.8.r.l.m.Z.Z.Z.Z.Z.Z.Z.",
"Z.Z.Z.Z.Z.Z.Z.Z.m.g.-.J N M C A M c z l z n n B m k z n N ! { Q j W T j j d p H ! } S 6 l 2 l 2 1 9 m m m V Z J ..t.m.Z.Z.Z.Z.Z.",
"Z.Z.Z.Z.Z.Z.Z.m.t.) b Z L P ) ) U S B n B B B M n v C F F L W { ! ! { j H D Z J Y Y n p v 0 B p b m m V F Q Q L m m :.B.Z.Z.Z.Z.",
"Z.Z.Z.Z.Z.Z.v.t.J B J H W ! Q ! ) L J A B n M B B B S D Z J Y d j L K L h D V A J A A H Z J H K G Z H W W ! Q H J A M u.V.Z.Z.Z.",
"Z.Z.Z.Z.Z.B.p.L A ! ! K L ! W Q K L K K ! L J J J J F F S Z Z d D H d d Z Z B Z M V P Q K K W W K K K W ! / K K ! Q J ) l.Z.Z.Z.",
"Z.Z.N.V.Z.b.O.A / / / ^ W ! Q Q K K W K K K K K H d Z D d p p B p N p N N d Z m b H W W K K W K W G G L ! ! K W / | / A 9.V.Z.Z.",
"Z.Z.m.Z.Z.g.J Q [ / ^ / ! W K K W K W W K Q Q K H d d d d p 0 6 0 p p b N d p m D W K W K K j K K D M W / ^ ! / ! / { K X.m.Z.Z.",
"Z.Z.Z.Z.Z.9.A / / / / ^ ^ W W W Q j K W W j K j L j L d d p p 0 0 p 0 c b b m G K j Q K K K K K G d m G Q ! ^ ! / [ { L ( c.Z.Z.",
"Z.Z.Z.Z.Z.@.J / / ! / / ^ ! W ! W K K W W K K K W L j d h D h Z D d d Z b b p K K K W K K H K K G D b K ^ ^ ^ / / / / ! J g.Z.Z.",
"Z.Z.Z.Z.N.) L _ / ! ^ W W W G G K W L W W W W j K T K j K K j K L j H H m b p K K K j K D D j W K D p D ^ ^ ^ / ! / / _ F p.Z.Z.",
"Z.Z.Z.Z.z.J L / ! / ! W W ^ G V K j j K K W W K K Q L j K K j K W W j P A c 9 H K K K K D G K W K D p D W W W ! ! ! / / A i.Z.Z.",
"Z.Z.Z.Z.6.C Q ) ! / ! W ! ^ D s D j K K H K K W W ^ K G K j K K H W K | d 0 6 F W H D G D K K W K h V Z W W W ! / / _ ! A i.Z.Z.",
"Z.Z.Z.f.A M Q ! / ! ! K K W G p p H K K G G K G K K K j K K K K H W K Q Y 6 6 p L H G K K K K K K H V Z ! ! T ! / ! ! Q B 2.Z.Z.",
"Z.Z.m.@.z N L Q / ! ! ^ ! ^ K V 0 Z K j D D G G H W L K K K K K W W Q { P c 2 N L K W K K K G K K H V Z ^ W j / ! / ! W M ( c.Z.",
"Z.Z.h.J x Z L ! / ! ! W ! W G C 0 V K L L G G G D H K K j Q W j W j Q ! J c 6 N ! Q W K K K G H H d m D ^ W W ! ! ! ! L b A f.Z.",
"Z.Z.d.M 0 Z G W ! ! ! G ^ G D y 0 p D G K K K G K K K / K W W W W W Q P S 2 2 b ! W L K K H D D d m M K ! ! ! ! ! / W L N C p.Z.",
"Z.Z.i.n b V G K W W W G W K V 9 p b s G K G K K W Q Q / ! W ^ ^ | L K K d 2 1 N ! ! W H j D D s p b A K W W W ! / / L D V M i.Z.",
"Z.Z.i.b b Z K W L K K L K G m 6 m Z p V D G K K K Q ! ! / ! ! ! Q K Q Q L c 1 V / Q D D D h d 9 6 c Z h W W K ! ! W H D m b f.Z.",
"Z.Z.p.b b D L K K G H W K h 6 z M J M p V Z G G K L ! / / / ^ K Q Q K P L 0 1 N L H D d Z Z 0 1 2 c m D W K j L W L K D b C j.Z.",
"Z.Z.d.C M G W W W D D Z G V z N A J J m 0 p Z H H H L | | | P J { K K / A 2 6 m A B p b b 0 6 l c b 0 D G K L G L K W D c J m.Z.",
"Z.Z.j.U V G K W E E D m V m V 8.i.Y K Z x 6 6 V A D L P J J N b N p Z Z b 6 6 b b b b c l z b m B b l p G W W G G K L G M ` B.Z.",
"Z.Z.l.J D G K K K L K F V x ` v.V.f.| K N 6 6 6 0 b A N 0 c z 6 0 0 0 0 0 m b 9 0 b B n n B A H _ J 6 x D E D D W W W G m 3.Z.Z.",
"Z.Z.p.G G G K K W G E W G Z F s.V.V.1.D H D N b c M m N p 0 p p p b b 0 9 0 p m Z H L J Y ! A P 1.r.F 6 Z V m D W K W D N i.Z.Z.",
"Z.Z.5.D K G K W W W G W K G D X.n.V.s.G H K H H H L Q W Z p N b b 0 0 m M M V H J L J A Y ! Z / p.b.r.F 9 m D G W G W G D g.Z.Z.",
"Z.B...D K G G K K G G K K K G M r.Z.B.-.D K K K K L / L b 0 0 0 c 0 A Q [ L c Z m m J J I ) Z O.c.B.s.J V D G W K K K G F d.Z.Z.",
"Z.N.( G L G G W W G D K K K D m ` m.Z.g.K H K H K K Q K b 0 0 b b m B A F A c m J P P N } } J 9.N.m.-.N D G W G W W K K G i.Z.Z.",
"Z.b.J D K G G W G G G G G G D p Z g.Z.V.@.A h D K J P F 0 c 2 6 0 c 0 b J L c b F J L J { o.W s.Z.r.Z D G E W G W K G K G r.Z.Z.",
"Z.c.F D G G G W W K G K K K D p x r.Z.Z.u.C b 9 V n N 0 0 b b N B N Z H { N 6 b F P P Z ) o.P g.c.( M G K K K D G W G K G y.Z.Z.",
"Z.n.( V G G G G W K D G K K G m n r.Z.Z.h.J z 6 6 v B A b m c b b B B A L d b L { P L J ) o.J p.r.M p G K K K D G K G G Z i.Z.Z.",
"Z.Z.X.M G L K W W K G K W K G m m i.Z.Z.l.J z z v b L J A A 0 0 b b 0 A { H 0 0 N P H J ) } C 0.2.6 y A G K K G W G G G Z i.Z.Z.",
"Z.Z.0.m L W W L G H L W W L G M C l.Z.Z.l.L n c n M A L Q Q b c N F Z F P S c A J L d N Y J b 8.@.z p D H K H G W G G W Z g.Z.Z.",
"Z.Z.j.C F ! ! K G W W ! ! ! F n } V.Z.Z.c.U b 6 b M L ! ! ..L c 0 b b M J J n Z P F N A Z 0 B i.6.x M G H W K G W W H K J c.B.Z.",
"Z.Z.V.-.L / ! W K G ! ! ! / W g d.Z.Z.Z.N.` b c v b B J Q / { Z b B A N P J 0 J J D L J b c @.c.d.n n F L W W H K K W H ` Z.Z.Z.",
"Z.V.Z.l.` / ! W W K W ^ / ! h f s.Z.Z.Z.Z.6.z b N J Y K L L ) L 0 0 n b Z Z N A Z K P A n { h.Z.N.+.9 D ! ! ! K H W ! Z 3.Z.Z.Z.",
"Z.Z.Z.Z.r.L / ^ W K ^ ^ W W G u [ B.Z.Z.V.3.z z b A ! Q J Z J Q J b 0 Z J H d p H D D p 0 o.N.V.Z.s.f h ! / ! W K W / ( f.Z.V.Z.",
"Z.Z.Z.Z.N.X.J ! ! W ^ ^ ! ^ W g 7 <.Z.Z.v.` z N A N Z D Z G L K W D x m Z m x D G G G G c ) b.Z.m.&.a G P Q ! W W ! / >.V.Z.V.Z.",
"Z.V.Z.V.Z.h.L ! / ^ / / / / / W u 5 <.Z.Z.) n G K G D D D D D G D D x ` e.( V L L L G F n _ c.l.] u h W ! ! ! ! ! _ { h.Z.Z.Z.Z.",
"Z.Z.Z.Z.Z.Z.f.o.[ / / / / / / W j y 3 h.Z.-.n F L L G K K H H K G Z C s.Z.6.F _ ! W L Q A 8.a.T r a W ) { / { ) { X.i.Z.Z.Z.Z.V.",
"Z.Z.V.Z.Z.Z.V.9.X.{ / / / / ^ / ^ j 4 ^ Z.d.F L W W W G K L W ! G M -.M.V.p.F Q ! W W ! J h.,.> u G W _ _ ) ! _ X.>.V.V.Z.Z.V.Z.",
"V.Z.Z.V.Z.Z.Z.c.-.| { / [ [ _ _ ! j f j B.B.X.J / Q W D W ! / / J ` s.N.V.c.J F ! W K J ` m.R 4 D ! ) ! { _ ) { { t.Z.Z.Z.V.Z.Z.",
"Z.Z.Z.Z.Z.Z.Z.Z.f...| | _ [ / ..W e 3 f m.Z.i.C L ! K K W W / Q ` i.l.B.V.m.( F ! ^ L x 8.Z.' f G W { _ { { ` { +.l.Z.Z.Z.Z.V.Z.",
"Z.Z.Z.Z.Z.Z.Z.Z.V.q.X.{ ..+.+.../ i & T h.Z.m.J B W W W ! Q J J h.Z.V.Z.V.Z.X.F W K J C h.Z.*.4 4 D ..} X.} } } 9.Z.Z.Z.Z.Z.Z.Z.",
"Z.Z.Z.Z.Z.Z.Z.Z.V.v.1.| o...^ ../ W G l.Z.V.Z.6.n W L K W Q M 9.V.B.Z.B.V.Z.5.c W W M ) V.B.*.w r W X.X.X.$.} 4.v.Z.Z.Z.Z.Z.Z.Z.",
"Z.Z.Z.Z.Z.Z.Z.Z.Z.Z.l. ./ +.W j ~ W &.B.Z.Z.Z.p.x Z L K F m 6.m.N.Z.B.B.Z.B.-.2 A F z ( c.Z.Z.w.K ! / G { X.^ h.Z.Z.Z.Z.Z.Z.Z.Z.",
"Z.Z.Z.Z.Z.Z.Z.Z.Z.Z.Z.a.*.e.;.| ;.h.v.Z.Z.Z.Z.h.M z F L V N h.N.V.V.Z.Z.V.m.L D G A x B h.Z.Z.c.=.=./ / @.w.w.Z.Z.Z.Z.Z.Z.Z.Z.Z.",
"Z.Z.Z.Z.Z.Z.Z.Z.Z.Z.Z.V.V.Z.n.l.m.Z.Z.Z.Z.Z.Z.m._ J Q L L F h.Z.V.Z.Z.Z.Z.j.U L ! W F ) m.Z.Z.Z.B.m.i.p.c.Z.Z.Z.Z.Z.Z.Z.Z.Z.Z.Z.",
"Z.Z.Z.Z.Z.Z.Z.Z.Z.Z.Z.Z.V.Z.Z.Z.Z.Z.Z.Z.Z.Z.Z.Z.6.U / ! ^ ) l.Z.B.Z.B.B.Z.l._ / ^ _ J i.Z.Z.Z.Z.Z.Z.Z.Z.Z.Z.Z.Z.Z.Z.Z.Z.Z.Z.Z.Z.",
"Z.Z.Z.Z.Z.Z.Z.Z.Z.Z.Z.Z.Z.Z.Z.Z.Z.Z.Z.Z.Z.Z.Z.Z.d.F ! ! ^ +.B.m.m.Z.V.m.Z.c.( ! ^ F X.B.Z.Z.Z.Z.Z.Z.Z.Z.Z.Z.Z.Z.Z.Z.Z.Z.Z.Z.Z.Z.",
"Z.Z.Z.Z.Z.Z.Z.Z.Z.Z.Z.Z.Z.Z.Z.Z.Z.Z.Z.Z.Z.Z.Z.Z.b.J K Q L 3.Z.Z.V.Z.Z.Z.Z.m.( W ! J s.Z.Z.Z.Z.Z.Z.Z.Z.Z.Z.Z.Z.Z.Z.Z.Z.Z.Z.Z.Z.Z.",
"Z.Z.Z.Z.Z.Z.Z.Z.Z.Z.Z.Z.Z.Z.Z.Z.Z.Z.Z.Z.Z.Z.Z.Z.Z.3.F Q L i.Z.Z.Z.Z.Z.Z.Z.V.-.L L 8.Z.Z.Z.Z.Z.Z.Z.Z.Z.Z.Z.Z.Z.Z.Z.Z.Z.Z.Z.Z.Z.Z.",
"Z.Z.Z.Z.Z.Z.Z.Z.Z.Z.Z.Z.Z.Z.Z.Z.Z.Z.Z.Z.Z.Z.Z.Z.Z.z.( K / l.Z.Z.Z.Z.Z.V.Z.V.5.D / s.B.V.Z.Z.Z.Z.Z.Z.Z.Z.Z.Z.Z.Z.Z.Z.Z.Z.Z.Z.Z.Z."
};
