/* XPM */
static char *_d53bdc27f7443bbc6fdc3763d3fd21fVRym6kamazQ9lFN9[] = {
/* columns rows colors chars-per-pixel */
"64 64 207 2 ",
"   c #8B75A5",
".  c #8E78A7",
"X  c #8E7BAA",
"o  c #8878AD",
"O  c #917AA7",
"+  c #937EAA",
"@  c #8E7EB5",
"#  c #7F92C1",
"$  c #7CA1CF",
"%  c #7BA9D6",
"&  c #78B0DC",
"*  c #74B3E0",
"=  c #9582AC",
"-  c #9A84AC",
";  c #9F8AAC",
":  c #808FBF",
">  c #9486B2",
",  c #9A87B1",
"<  c #9689B4",
"1  c #9D8CB3",
"2  c #968ABD",
"3  c #9E8FB9",
"4  c #9F95B7",
"5  c #9D93BB",
"6  c #A18BAE",
"7  c #A792AF",
"8  c #A893AF",
"9  c #A38DB2",
"0  c #A492B4",
"q  c #AA94B3",
"w  c #A199B7",
"e  c #AE9AB3",
"r  c #A393B9",
"t  c #A49ABD",
"y  c #AB9BBA",
"u  c #B295B5",
"i  c #B29CB5",
"p  c #BC9BB7",
"a  c #B39BB9",
"s  c #BA9DB9",
"d  c #AFA1BC",
"f  c #B6A2B5",
"g  c #BAA5B6",
"h  c #B4A4BE",
"j  c #BAA6BD",
"k  c #B5A8BF",
"l  c #BBA9BC",
"z  c #C89CB7",
"x  c #C2A2BB",
"c  c #C2ADBC",
"v  c #CCA9BC",
"b  c #C6B2BB",
"n  c #CBB7BC",
"m  c #CCB8BD",
"M  c #D3BFBF",
"N  c #E8AABC",
"B  c #D4C0BF",
"V  c #998FC0",
"C  c #9F9CC1",
"Z  c #9E9ACC",
"A  c #9B97D5",
"S  c #A29CC3",
"D  c #A499C4",
"F  c #89A6CD",
"G  c #A2A2C4",
"H  c #ACA4C4",
"J  c #A7A7CC",
"K  c #AAA6CE",
"L  c #A7ABCB",
"P  c #ABACCB",
"I  c #B1A5C1",
"U  c #B7A9C3",
"Y  c #BBABC2",
"T  c #B3ADCD",
"R  c #B9AAC8",
"E  c #ABB2CF",
"W  c #BDB2C5",
"Q  c #BEB3CC",
"!  c #A4A4D6",
"~  c #ACA9D1",
"^  c #A5A5D9",
"/  c #A7A8D8",
"(  c #ABB5D1",
")  c #AFBAD5",
"_  c #B6B1D0",
"`  c #BBB5D2",
"'  c #B1BDD6",
"]  c #BDB9D6",
"[  c #B5BCDB",
"{  c #A9AEE2",
"}  c #ABB1E3",
"|  c #AEB6EA",
" . c #B0BAEE",
".. c #B1BCF1",
"X. c #C4ACC1",
"o. c #CAAFC2",
"O. c #D1AFC1",
"+. c #C2B2C5",
"@. c #CDB6C6",
"#. c #C3B7CB",
"$. c #C4BAC9",
"%. c #CDBCCA",
"&. c #D2B6C6",
"*. c #DCB5C4",
"=. c #D3BBC9",
"-. c #DCBECA",
";. c #C5BAD2",
":. c #C3BBD4",
">. c #E1BBC7",
",. c #E4BDC8",
"<. c #FFB5C0",
"1. c #FABBC2",
"2. c #B2C2DB",
"3. c #B6C9DF",
"4. c #B7C3E2",
"5. c #B8C7E2",
"6. c #BBCAE6",
"7. c #BDCEEB",
"8. c #BAD2E5",
"9. c #BCD6E8",
"0. c #BED9EA",
"q. c #B4C3F7",
"w. c #B6C6FC",
"e. c #B7C8FE",
"r. c #B8C9FF",
"t. c #CCC3CE",
"y. c #D7C3C0",
"u. c #DAC6C1",
"i. c #DECBC3",
"p. c #D3C4CE",
"a. c #DBC3CD",
"s. c #CBC3D4",
"d. c #C8C6D7",
"f. c #D4CDD3",
"g. c #D2CAD7",
"h. c #DBCCD2",
"j. c #D5D1D6",
"k. c #DCD2D6",
"l. c #DED7D8",
"z. c #DDD9DA",
"x. c #E2CDC4",
"c. c #EFCDC5",
"v. c #E6C1CA",
"b. c #ECC4CB",
"n. c #ECCACF",
"m. c #FFC1C3",
"M. c #FFCDC7",
"N. c #F1C6CC",
"B. c #F3C8CC",
"V. c #E5D3C6",
"C. c #E9D6C7",
"Z. c #EDDAC8",
"A. c #FFD6C9",
"S. c #F1DECA",
"D. c #FFDACA",
"F. c #E5CED3",
"G. c #E9CDD1",
"H. c #E5D2D5",
"J. c #E9D0D3",
"K. c #E1D6D8",
"L. c #E1D9D9",
"P. c #F5E2CB",
"I. c #F9E6CD",
"U. c #FFECCF",
"Y. c #FFEFD0",
"T. c #CBCDE4",
"R. c #CED1E7",
"E. c #CED3EA",
"W. c #C0DDED",
"Q. c #DAD3E2",
"!. c #DED8E6",
"~. c #D1D5EA",
"^. c #D4D6E8",
"/. c #C5DBF6",
"(. c #C6DCF6",
"). c #D7DDF0",
"_. c #E0DBE7",
"`. c #E2DDE9",
"'. c #C2E1EF",
"]. c #C4E4F2",
"[. c #CBE5FE",
"{. c #CBE5FF",
"}. c #CCE6FF",
"|. c #CCE7FF",
" X c #DFE8F7",
".X c #D5E6FA",
"XX c #D0E8FF",
"oX c #D9ECFF",
"OX c #DAEEFF",
"+X c #EAE6EE",
"@X c #EBE7F1",
"#X c #ECEAF2",
"$X c #E2EDFB",
"%X c #F0EDF3",
"&X c #E4F0FD",
"*X c #E5F1FF",
"=X c #E4F2FF",
"-X c #E6F2FF",
";X c #E7F3FF",
":X c #E8F3FF",
">X c #E9F4FF",
",X c #F5F3F7",
"<X c #F5F6FA",
"1X c #F3F9FF",
"2X c #FBFDFF",
"3X c #FCFDFF",
"4X c #FFFFFF",
/* pixels */
"}.}.}.}.}.}.}.}.}.{.}.-X-X-X-X-X-X-X-X-X1X<X_._._._._._._.!.6.6.6.6.6.6.6.6.4.T.R.R.R.R.^.$X:X-X:X2X3X3X3X3X3X3X3X3X3X3X3X4X4X4X",
"}.}.}.}.}.}.}.}.}.{.{.-X-X-X-X-X-X$X$X$X,X!.- + + + + + + + + + + + + O + + + + + O + + 9 ).$X-X:X2X3X3X3X3X3X3X3X3X3X3X3X3X4X4X",
"{.{.{.{.}.{.{.{.{.{.XX-X-X-X-X>X>XR.3 1 3 y *.*.N >.>.*.*.*.*.*.*.*.*.>.*.*.*.*.*.*.*.>.O.r E.:X>X3X3X3X3X3X3X3X3X3X3X3X4X4X4X4X",
"oXoXoXoXoXoXoXoXoXoXoXoXoXE._ _ _ R p p p v N.N.b.B.B.B.B.B.B.N.B.B.B.B.B.B.B.B.B.B.B.N.b.z R _ ]  X>X>X-X-X-X-X>X-X-X-X-X-X-X-X",
"-X-X-X-X-X-X-X-X-X-X$X{.(._ - - - p N.N.,.*.*.*.*.*.*.*.*.*.*.*.*.*.*.*.*.*.*.*.*.*.*.*.*.*.6   = 4.7.7.7.7.(.{.{.{.{.{.{.{.{.{.",
"-X-X-X-X-X-X-X-X-X-X$X}.S u b.b.b.b.N.N.p + + + + + + + + + + + + + + + + + + + + + + + + + . . X X = = = o ( {.{.}.}.}.{.[.{.{.",
"-X-X-X-X-X-X-X-X-X-X).S X.>.N.N.n.N.b.q P 3.3.3.3.3.3.3.3.3.3.3.3.3.3.3.3.3.3.3.3.3.3.3.3.3.3.3.5.3.3.3.3.3.L J [.{.}.}.}.}.|.{.",
"-X-X-X-X-X-X-X-X:X~.` p >.N.n.n.N.>.x H 5.W.( ( ( ( ( ( ( E ( ( ( ( ( ( ( ( ( ( ( ( ( ( ( ( E E ( ( ( ( ) 0.L < [.{.{.}.}.}.}.|.",
"-X-X-X-X-X-X-X-X-X` - v.N.n.N.N.v.X.3 9.0.2.- - + 6 + 6 - - - - + 6 + + - - - - 6 6 + + - - + 6 + 6 - + X 8.( 5 9./.|.{.|.|.}.}.",
"-X-X-X-X-X-X-X-X>X` , b.G.N.n.n.u w 0.].L q v.v.1.,.,.,.,.v.,.,.,.b.,.N.v.,.,.v.,.,.v.1.v.v.v.v.,.v.v.v = 8.'.3.< 7.|.{.{.|.}.}.",
"-X-X-X-X-X-X-X-X-X` = v.G.G.,.u E 6./.G h &.n.n.G.G.N.G.n.G.n.n.n.n.N.N.n.n.n.n.n.n.G.n.n.n.n.n.N.N.n.v.X.t 2.W.2.G [ {.}.}.}.}.",
"$X-X-X-X-X$X>X$XR.R g v.G.G.,.+ ) 0.( e &.n.n.n.n.G.G.n.G.G.n.G.G.G.G.G.G.n.G.n.G.n.G.G.n.G.n.G.G.G.F.n.G.s H 3./.1 J }.}.}.}.}.",
":X>X:X:X>X>X>X$Xr a G.G.n.n.>.+ 2.2.+ -.G.N.G.G.G.n.G.n.G.n.G.n.G.n.G.n.G.n.n.G.n.G.n.G.n.G.G.n.G.G.n.G.n.G.p < 0.1 L |.{.|.|.{.",
"3X3X2X3X3X3X3X<Xr s N.G.n.G.v.+ ) 2.+ -.G.G.G.G.n.G.n.G.n.n.n.G.n.G.n.G.n.G.G.G.G.n.G.G.G.n.G.G.G.n.G.n.n.G.a 1 0.5 J |.{.{.{.{.",
"3X3X3X3X3X3X3X3Xr u G.G.G.&.y ' 0.2.+ a.G.G.G.G.G.G.G.G.G.G.G.X.u i v.G.G.G.G.G.G.G.G.G.G.G.G.G.G.G.G.G.G.G.=.U 5 = T oXOXoXoXoX",
"3X3X3X3X3X3X,XQ.I X.F.F.J.X.= 9.6.P y v.G.G.G.F.F.F.F.F.F.F.@.f q i +.a.G.J.F.J.F.G.F.F.G.F.F.G.H.F.J.G.H.G.F.a.q = T >X>X-X;X>X",
"3X3X3X3X3X3X`.- =.H.G.J.J.c > 9.C 0 F.F.J.G.H.G.G.H.G.F.F.=.; u.U.S.- X.J.G.J.G.G.F.F.J.G.F.G.J.G.H.G.F.J.F.J.F.G.9 T -X-X-X-X-X",
"3X3X3X3X3X3X`.+ &.J.H.G.J.X.= 0.C q n.H.F.J.G.J.J.G.J.J.o.7 V.I.U.S.- c J.H.G.H.J.J.G.G.J.F.H.G.G.J.F.J.J.G.F.G.F.6 T -X-X-X-X-X",
"3X3X3X3X3X3X`.= =.J.F.G.X.h ) '.5 0 F.G.G.F.F.G.H.J.G.l l M I.U.U.I.B l a a a a X.F.J.J.J.J.G.H.G.G.G.F.G.F.G.G.v.9 T -X-X-X-X-X",
"3X3X3X3X3X3X`.+ &.J.J.F.9 S ].5.H j F.J.H.G.H.J.a.&.@.i n U.U.U.U.U.U.n 7 q 8 8 u @.@.@.=.F.G.H.J.F.F.J.F.F.H.H.F.1 T -X-X-X-X-X",
"3X3X3X3X4X4X`.+ =.H.H.F.1 G 8.> X.H.F.F.H.H.F.F.l O = i.U.U.U.U.U.U.U.U.I.U.I.I.V.- = + 6 a.H.H.J.H.F.F.H.F.F.J.F.1 T ;X-X-X-X-X",
"3X3X3X3X4X4X`.= =.H.H.F.0 G 9.= +.J.J.H.H.G.F.e c C.C.I.U.U.U.U.U.U.U.U.U.U.U.U.I.C.V.C.u.9 @.J.H.J.H.H.H.H.H.H.F.; T -X-X-X-X-X",
":X-X&X&X-X-X^.+ &.J.H.F.0 G 9.> X.J.H.H.F.F.h.; c Y.U.U.U.U.U.U.U.U.U.U.U.U.U.U.U.U.U.U.P.b j f h g =.H.F.H.H.J.F.Y R :.$X-X-X-X",
"{.}.{.{.{./.[ 9 p.J.H.H.6 G 9.= +.J.F.H.H.F.@.e m U.U.U.U.U.U.U.U.U.U.U.U.U.U.U.U.U.U.U.U.U.l 6 6 6 X.a.H.J.F.F.H.J.j <  X-X-X-X",
"{.{.}.{.}.~ 9 h.H.H.F.F.6 G 9.= +.H.H.J.H.=.; V.I.U.U.U.U.U.U.U.U.U.U.U.U.U.U.U.U.U.U.U.U.U.I.I.I.I.g q F.H.G.H.H.J.j 1  X-X-X-X",
"}.}.|.}.}.J ; F.H.F.H.F.0 G 9.= o.J.H.H.l i i.I.Y.U.U.U.U.U.U.U.U.Y.U.Y.U.U.U.Y.U.U.U.U.U.U.U.U.U.U.f 9 F.H.H.F.H.H.l ,  X-X-X-X",
"}.}.{.|.{.J ; F.H.F.H.F.0 G 8.> X.H.G.H.y 8 U.U.U.U.U.Y.U.U.U.U.U.U.U.U.U.U.U.U.U.U.U.U.U.U.U.U.U.U.y.l X.h.J.H.H.H.j 3 #X1X>X1X",
"}.|.{.|.}.J 6 F.H.H.H.F.1 G 9.= +.J.H.H.i 7 I.U.U.U.U.U.U.U.U.U.U.U.U.U.U.U.U.U.U.U.U.U.U.U.U.U.U.U.U.V.6 @.h.H.H.H.j 9 <X3X3X3X",
"}.}.}.}.}.L 9 h.H.H.H.H.9 G 9.= +.J.F.H.a 7 I.U.U.U.U.U.U.U.U.U.U.U.U.U.U.U.U.U.U.U.U.U.U.U.U.U.U.U.U.U.Z.7 Y H.H.H.j 9 <X3X3X3X",
"}.}.}.}.}.J 9 h.H.H.H.h.0 G 9.> +.J.h.y c V.U.U.U.U.U.U.Y.U.U.U.U.U.U.U.Y.U.U.U.U.U.U.U.Y.Y.U.U.U.U.U.U.P.; j H.H.H.j 1 ,X3X3X3X",
"{.}.{.}.}.J 9 F.H.F.H.F.9 5 E X +.J.h.- m Y.U.i.B M M M B u.I.U.U.U.U.U.U.U.U.U.U.U.U.Z.B B B B B M Z.U.P.6 U H.H.H.l r ,X3X3X3X",
"|.XX|.XXXXJ 9 h.H.H.h.h.q X     +.J.h.- m I.Z.;           - P.U.U.U.U.U.U.U.U.U.U.U.U.n             b P.P.; j H.H.H.Y 6 ,X3X3X3X",
"&X&X-X-X$XT 1 F.H.H.p.- 2.E     +.H.h.- n V.;             ; P.U.U.U.U.U.U.U.U.U.U.U.Y.n             O f P.6 j H.H.H.l 9 ,X3X3X3X",
"-X-X-X-X-XT 1 h.H.$.d ) 9.9.E o +.H.h.= n P.B B e         - S.U.U.U.U.U.U.U.U.U.U.U.Y.n   .     O n B x.P.; h H.H.H.j 1 <X3X3X3X",
"&X&X-X-X-XT 6 F.H.j > W.].].8.> +.J.h.= n Y.Y.Y.n         - S.U.U.U.U.U.U.U.U.U.U.U.Y.m     .   = P.Y.Y.P.6 l K.H.K.j 3 ,X3X3X3X",
";X&X-X-X-XT ; l.K.j < 0.].].8.> +.H.i.- n Y.U.U.b         - P.U.U.U.U.U.U.U.U.U.U.U.Y.n         - Z.U.U.P.; f K.H.K.j 9 ,X3X3X3X",
"-X-X-X-X-XT 1 h.K.j > W.].].9.= +.L.h.- n Y.U.U.b         - P.U.U.U.U.U.U.U.U.U.U.U.Y.n         = Z.U.U.P.6 j K.H.L.Y 9 <X3X3X3X",
";X-X-X-X-XT ; l.K.j < 0.].].9.> +.H.h.- n Y.U.U.b   $ % : ; P.U.U.U.U.U.U.U.U.U.U.U.Y.n   $ % # = S.U.U.P.; g K.K.H.U < $X&X&X:X",
"-X-X-X-X:XT ; H.K.j < W.].].8.= +.H.h.= n Y.U.Y.B 4 & & F f P.U.U.U.U.U.U.U.U.U.U.U.Y.B 4 & * F f P.U.U.P.; g K.H.K.l < /.{.|.[.",
"-X-X-X-X-XT ; h.K.j > W.].].9.= +.K.h.- n Y.I.U.Y.V.= X g I.U.U.U.U.U.U.U.U.U.U.U.U.Y.U.Z.; . f I.I.I.U.P.6 g K.k.H.l < /.{.{.{.",
"&X-X:X-X-XT ; l.K.j > W.].].9.> +.K.f.- n I.1.m.A.I.C.V.P.U.U.U.U.U.U.U.U.U.U.U.U.U.U.U.I.C.V.c.m.M.D.U.P.; j K.K.K.l < (.}.}.}.",
"1X1X1X1X1X_ ; l.K.%.I L 9.].9.= +.L.k.= v M.<.<.M.U.Y.U.U.U.U.U.U.U.U.U.U.U.U.U.U.U.U.U.U.Y.Y.D.N N m.D.P.; j K.K.K.l < (.}.}.}.",
"3X3X3X3X3X#.; h.K.K.f.9 ' 8.2.= +.L.h.- z 1.N 1.D.U.U.U.U.U.U.U.U.U.U.U.U.U.U.U.U.U.U.U.U.U.U.D.m.m.1.M.P.; j K.K.K.+.r 7.(.}.}.",
"3X3X3X3X3X` 9 k.K.K.K.f.q + X   +.L.h.- Y =.; V.I.U.U.U.U.U.U.U.U.U.U.U.U.I.U.U.U.U.U.U.U.U.U.U.Y.Y.U.U.P.6 U K.K.K.K.t., 5.}.}.",
"3X3X3X3X3X#.; k.K.l.K.K.p.%.+.+ +.L.h.- Y k.$.i B U.U.U.U.U.U.U.U.U.U.Y.x.u Z.U.U.U.U.U.U.U.U.U.U.U.Y.C.e +.f.K.K.K.K.f.+ 4.}.}.",
"3X3X3X3X3X#.1 k.K.K.H.l.K.K.h.= +.L.f.= Y k.k.Y j m m P.U.U.U.U.U.U.Y.Y.Z.c S.U.U.U.U.U.U.U.Y.Z.m n n b j h.K.K.K.K.k.p.+ 4.}.}.",
"3X3X3X3X3XQ 6 k.K.K.K.K.K.K.f.= +.L.h.- Y K.L.L.+.- - B Z.Z.Z.I.U.U.Z.S.Z.Z.C.Z.Z.C.Z.Z.Z.C.Z.m - - = y k.K.K.K.K.K.K.p.= 4.}.}.",
"3X3X3X3X3X#.1 k.L.l.l.K.z.k.f.= +.L.j.- R L.z.K.k.j.j.q + = - u.U.S.9 + = - - = = - - = = - = e k.j.j.k.K.l.l.l.L.k.L.p.= 4.}.}.",
"3X3X3X3X3X#.1 l.l.k.l.l.z.z.f.= +.L.j.- Y z.z.z.K.L.z.t.$.W + y.Y.I.x.q - $.$.$.$.$.$.$.$.$.$.t.z.L.l.l.K.z.z.z.k.L.l.l.$.H [ oX",
"3X3X3X3X3XQ 1 k.l.K.l.l.L.l.f.= +.K.j.- Y K.K.z.t.+.W +.+.Y O y.Y.U.Y.g = Y W p.L.L.L.L.L.l.l.z.k.z.l.L.z.K.K.z.L.l.l.l.l.0 H >X",
"2X3X3X3X2X;.0 f.f.k.k.l.L.l.f.1 W j.j.- Y L.z.L.U . - - = > . y.Y.U.U.g   o + R f.f.k.l.L.l.l.z.l.L.L.l.K.z.z.z.z.j.k.l.k.0 H -X",
">X>X>X>X-X$XT.- = Y z.l.l.K.l.f.y y j.= Y z.z.K.k 1 @X%X%X_.- u.Y.U.Y.g r @X#X;.= - t.L.l.l.z.z.z.z.l.l.z.z.z.z.k.q j z.z.0 H -X",
"-X-X-X-X$X-X~.. o d z.z.l.z.z.l.t.U w . W z.z.z.k X U +X3X<XQ.Y i f i #._.3X3X;.= ! t R z.z.z.z.z.z.z.z.z.z.z.z.z.1 d f.h ` ~.-X",
"-X-X-X-X-X>X).S = U z.z.z.z.z.z.z.t.4 . W z.z.t.H 2   !.3X3X3Xs.9   y _.3X3X3X$.> q.A S t.z.z.z.z.z.z.z.z.z.z.j.$.= h f.+ T.>X$X",
"-X-X-X-X-X-X-X X< d z.z.z.z.z.z.z.z.j.; W z.f.1 !  .> Q.<X3X3X<Xg.< `.2X3X3X,X#.2 w.w.! < j.z.z.z.z.z.z.z.z.z.t.= . d t., R.:X-X",
"-X-X-X-X-X-X-X$X5 d z.z.z.z.z.z.z.z.z.f.j.t.< } q.w. .D ;.3X3X$.D | 3 Q.3X<XI ! q.w.r.! < j.z.z.z.z.z.z.z.z.T w ~.5 O w ~.$X-X-X",
"-X-X-X-X-X-X-X X3 d z.z.W $.z.z.z.z.z.z.2.d / w.r.e.e.{ ~ R +.K | w./ ~ R Q ^ | r.r.r.! = j.z.z.z.z.z.z.z.z.d 4  Xr 5 d.oX-X$X>X",
"-X-X-X-X-X-X-X$X5 d z.z.4 w z.z.z.z.z.d.8 < w.r.e.r.r.r.{ 2 V | r.e.r.A @ V ..e.e.r.r.{ 5 $.j.z.z.z.z.z.l.s.U R  XT d.-X-X-X-X-X",
"-X-X-X-X-X-X-X$X3 d z.z.w w z.z.z.z.j.;   5 w.r.r.r.r.r.w.w.e.e.e.r.r.e.w.e.e.e.r.r.r.e...> Q z.z.z.z.z.j.1 :.3X-X-X$X-X-X-X-X-X",
"-X-X-X-X-X-X-X$X3 h z.z.0 d z.z.z.z.j.= Z q.w.w.r.r.r.r.r.e.r.r.e.e.r.r.e.r.r.e.r.r.r.e...= W z.z.^.z.t.3 z.%X2X-X-X-X-X-X-X-X-X",
"oXoXoXoXoXoXoX.X4 d z.z.W I k k s.z.j.= ^ r.r.r.r.r.r.r.r.r.r.r.r.r.r.r.e.r.r.r.r.r.r.r.| = 2.z.z.z.z.2.+ +X4X1XoXoXoXoXoXoXoXoX",
"{.{.{.{.{.{.{.{.G k d.z.z.W   3 W f.j.> ! r.r.r.r.r.r.r.e.r.r.r.r.r.r.r.r.r.r.r.r.r.r.r. .= m z.z.z.u.2.y %X4X<X}.{.}.{.}.}.{.{.",
"}.}.}.}.}.}.{.{.}.E 1 j.z.W < #XR y g.- ! r.r.r.r.r.r.r.r.r.r.r.r.r.r.r.r.r.r.r.r.r.e.e. .= W z.z.j.d d ,X3X3X1X}.{.}.}.}.}.}.}.",
"}.}.}.}.}.}.{.{.{.0.2.4 d.W - ,X+Xs.1 O ^ r.r.r.r.r.r.r.r.r.r.r.r.r.r.r.r.r.r.r.r.r.r.e...o - 4 ; 7 2.+X3X3X3X1XXX[.}.}.}.}.}.}."
};
