/* XPM */
static char *_3a7bfcc75bd440afc11ed6ee4bb7b33HbMcY1gjqky72jXn[] = {
/* columns rows colors chars-per-pixel */
"64 64 255 2 ",
"   c #353729",
".  c #59583A",
"X  c #60673E",
"o  c #3C4446",
"O  c #5A5C59",
"+  c #50504D",
"@  c #727156",
"#  c #745B71",
"$  c #6D6D6D",
"%  c #676566",
"&  c #71726B",
"*  c #786E79",
"=  c #7A7978",
"-  c #6C726B",
";  c #5F6356",
":  c #8C6D34",
">  c #83776D",
",  c #2E9113",
"<  c #15AF12",
"1  c #25B31B",
"2  c #2E9925",
"3  c #34BB39",
"4  c #2DB231",
"5  c #13981B",
"6  c #53A126",
"7  c #00CF00",
"8  c #00D601",
"9  c #02DB01",
"0  c #08DA04",
"q  c #15D906",
"w  c #09DB18",
"e  c #18DB1A",
"r  c #16C812",
"t  c #28D117",
"y  c #0BE402",
"u  c #04EB01",
"i  c #04E508",
"p  c #15E906",
"a  c #0AE512",
"s  c #17E917",
"d  c #00F200",
"f  c #1AD727",
"g  c #26D724",
"h  c #2ECA25",
"j  c #27E029",
"k  c #12E829",
"l  c #3BB341",
"z  c #47AC48",
"x  c #4EB251",
"c  c #768570",
"v  c #70B06F",
"b  c #65AA5A",
"n  c #46CC4D",
"m  c #5CC667",
"M  c #5EDA68",
"N  c #939539",
"B  c #A69332",
"V  c #BAAE32",
"C  c #A1A21F",
"Z  c #C1B41A",
"A  c #CFCD15",
"S  c #DDD934",
"D  c #D8CB3F",
"F  c #EDEC39",
"G  c #8E9B4C",
"H  c #B79C46",
"J  c #B39A53",
"K  c #B5AE51",
"L  c #8A8679",
"P  c #908C65",
"I  c #AA9A6F",
"U  c #9CA378",
"Y  c #BAA868",
"T  c #B2AC75",
"R  c #C9B252",
"E  c #C6B96A",
"W  c #CEB470",
"Q  c #A6D25E",
"!  c #DBD84A",
"~  c #D1D053",
"^  c #E6D757",
"/  c #F2E75A",
"(  c #E9EA55",
")  c #DAC87A",
"_  c #D4C86D",
"`  c #E5CC6F",
"'  c #F6F662",
"]  c #7E7782",
"[  c #847B83",
"{  c #94778D",
"}  c #7E8785",
"|  c #7989AE",
" . c #7BA380",
".. c #848383",
"X. c #8C8B8B",
"o. c #888A87",
"O. c #9D9688",
"+. c #949493",
"@. c #9A9A99",
"#. c #908C92",
"$. c #A69F9C",
"%. c #B19B8E",
"&. c #9EA39E",
"*. c #8DB58C",
"=. c #B5AA86",
"-. c #A7A698",
";. c #B7A996",
":. c #B5B49C",
">. c #B1AE89",
",. c #8999B6",
"<. c #929EAA",
"1. c #A4A4A4",
"2. c #ACACAA",
"3. c #A8A8A7",
"4. c #ACB2A7",
"5. c #B7B6AA",
"6. c #A9B4B7",
"7. c #B3B4B3",
"8. c #BBBCBC",
"9. c #B7B7B9",
"0. c #B3A9B3",
"q. c #A6A4AB",
"w. c #D6B987",
"e. c #C5B896",
"r. c #C7B18C",
"t. c #C7BAA9",
"y. c #C9B3AE",
"u. c #92D48F",
"i. c #8FE490",
"p. c #B9C4B7",
"a. c #B4CBAB",
"s. c #AEF4B1",
"d. c #B1E19B",
"f. c #D5C687",
"g. c #C9C397",
"h. c #D8C695",
"j. c #CECE8E",
"k. c #E3C799",
"l. c #EADC9C",
"z. c #F3DA9B",
"x. c #F0D68F",
"c. c #F8E899",
"v. c #E8E794",
"b. c #CAC3A8",
"n. c #D6C6A7",
"m. c #DAD2A9",
"M. c #C7C5B7",
"N. c #D9CBB9",
"B. c #DAD5BA",
"V. c #C2D9B8",
"C. c #E8CBA3",
"Z. c #E9D6A7",
"A. c #F7D9AB",
"S. c #E2CDB4",
"D. c #E9D8B8",
"F. c #F4DBB4",
"G. c #F4DCBC",
"H. c #FCDCBB",
"J. c #FBDCB4",
"K. c #D1F2B6",
"L. c #E7E6A7",
"P. c #FAE6A8",
"I. c #EAE6B9",
"U. c #FCE4B4",
"Y. c #F4E3BD",
"T. c #FEE3BC",
"R. c #FFEBBC",
"E. c #F8E8B7",
"W. c #FEF2B9",
"Q. c #F6F4AF",
"!. c #BABDC8",
"~. c #B2B8D3",
"^. c #9BA8D8",
"/. c #C4BEC8",
"(. c #BBC4C7",
"). c #BCC8D6",
"_. c #B4CCC9",
"`. c #B8F2C7",
"'. c #BDD9E8",
"]. c #C4C4C3",
"[. c #CBCCCC",
"{. c #C5C8C9",
"}. c #D9CCC5",
"|. c #C9D6CA",
" X c #D8D5CA",
".X c #C9CBD5",
"XX c #CAD5D8",
"oX c #D4D4D4",
"OX c #DCDCDC",
"+X c #D9D8D5",
"@X c #E8DAC9",
"#X c #F7DEC6",
"$X c #E5DBD6",
"%X c #EFD6D0",
"&X c #D9E3CA",
"*X c #D8E6DA",
"=X c #D3FDD7",
"-X c #C9F3D2",
";X c #EAE4C5",
":X c #F5E4C3",
">X c #FDE4C4",
",X c #FEEBC3",
"<X c #F5E4CA",
"1X c #FBE5CC",
"2X c #FEEACA",
"3X c #F5E9CB",
"4X c #FDF5C5",
"5X c #E8E6DA",
"6X c #FEEDD2",
"7X c #F7E7DA",
"8X c #E8F6DE",
"9X c #FCF6D7",
"0X c #CBD9E3",
"qX c #D4DEE0",
"wX c #D5DCE7",
"eX c #CDD0EC",
"rX c #EED5ED",
"tX c #D9E4E8",
"yX c #DCFEE7",
"uX c #D8E8F2",
"iX c #CCEBF6",
"pX c #E3E4E4",
"aX c #ECECEC",
"sX c #E7E9E8",
"dX c #F4ECE3",
"fX c #EBFFED",
"gX c #E7F9E8",
"hX c #FFFEE4",
"jX c #F3F3EB",
"kX c #FCF5EA",
"lX c #F2FDED",
"zX c #FEFDED",
"xX c #F8F3E5",
"cX c #E8EBF6",
"vX c #FFECFF",
"bX c #F7EAF9",
"nX c #ECF3F4",
"mX c #EDFEF3",
"MX c #EEF6FB",
"NX c #E8F9FA",
"BX c #F4F4F4",
"VX c #FBF5F4",
"CX c #F5FDF4",
"ZX c #FDFDF4",
"AX c #F4F5FB",
"SX c #FEF5FE",
"DX c #F5FCFD",
"FX c #FFFFFB",
"GX c #FDFEFA",
"HX c #FAFEFF",
"JX c #FFFFFD",
"KX c white",
"LX c #FEFFFF",
"PX c #FCFEFE",
"IX c #FEFEFE",
/* pixels */
"KXKXKXKXKXKXKXKX+...3.$ O 3.@.$ #.{ # [ O 7.lXGX+.4.2.+.] #.* # 7.& L jX& - 1.= $ = o.3.% > #.3.X.$ <.AX+.O +.].c SXKXCXKXKXGXGX",
"KXKXKXKXKXKXKXKX= aX= = 7.o.@.= !.+ #.$ y.= aXKX@.4.2.; 0.X.+ 0.&.5.2.GXL 7.O ; ..L ; % O +...$ o.o 6.GX} #.XX6.].KXKXGXGXVXGXGX",
"KXKXKXKXKXKXKXKX8.$ ].7.o.7.#.] /.+.1.7.{.3.|.sX7.% 3.+X[ $.1.oX+X|.X.GXo.= pXo.3.2.8.8.X.!.[.3.wX} (.AX6.3.7.].BXKXBXKXKXVXGXKX",
"KXKXKXKXKXKXKXKXKXKXAXKXKXGXAXGXGXGXGXGXGXGXGXGXZXGXGXZXKXGXGX X[.8.M.2.[.(.y.sXoXnXsXCXSXGXAXKXGXGXGXGXGXKXaXKXSXDXjXKXGXCXGXGX",
"KXKXKXKXKXKXKXKXGXKXBXAXKXAXGXKXGXGXKXVXKXBXDXGXGXjXCXZXdX4.M.M.5XVXGXKXCXKXKXpXBX{.{.tX{.OXNXnXMXDXAXGXGXDXKXnXKXKXGXKXKXGXGXBX",
"KXKXKXKXKXKXKXKXGXKXKXKXGXKXKXGXGXGXjXKXGXKXnXGXsXGXGXpX4.5XgXZXGXKXKXKXaXKXBXAXDXDXcXXXXXXXXXNXGXAXDXGXKXtXGXBXKXKXKXGXVXKXGXZX",
"KXKXKXKXKXKXKXKXKXBXKXKXBXKXGXAXGXKXKXDXGXGXGXDXGXnXsX5.5XZXZXzXKXGXGXAXKXKXaXGXGXDXmXuX*X0XXX(.tXGXGXcXGXGXGXKXGXGXGXAXZXKXKXGX",
"KXKXKXKXKXKXKXKXAXKXSXGXKXGXKXKXKXAXDXGXGXGXGXGXMXKX].*XGXZXjXZXAXGXGXKXAXDXGXDXDXGXGXDXMXtXXXtX(..XGXDXGXGXMXKXGXGXGXGXKXKXCXGX",
"KXKXKXKXKXKXKXKXKXKXKXKXKXKXKXKXDXKXKXDXKXKXSXGXGX].oXKXKXBXGXKXKXGXGXKXKXKXGXGXDXGXDXDXDXDXNXtX*X(.8.GXKXDXGXKXGXGXGXKXKXGXGXKX",
"KXKXKXKXKXKXKXKXKXKXKXKXKXKXKXKXAXSXAXSXKXKXGXAXaXoXpXKXAXGXKXGXKXKXKXKXKXKXGXGXGXDXDXDXDXDXNXNXpXXX.XXXGXDXGXGXKXKXKXGXGXKXGXGX",
"KXKXKXKXKXKXKXKXKXKXKXKXKXKXKXKXKXGXKXKXKXKXKXkXy.qXVXKXKXKXKXDXKXKXKXKXKXKXKXKXGXGXDXDXDXGXGXDXnXnXOX7.cXGXKXGXGXKXKXKXGXKXGXGX",
"KXKXKXKXKXKXKXKXKXKXKXKXKXKXKXKXKXGXKXGXjXkXZXxX5.dXZXZXKXKXKXSXGXKXGXKXGXKXKXKXGXKXDXGXDXGXDXDXDXGXtX.X{.GXDXGXKXGXKXKXKXKXGXKX",
"KXKXKXKXKXKXKXKXKXKXKXKXKXKXKXKXKXBXZXZXzXzXhXI.;XhXzXkXGXSXSXGXKXGXGXKXGXKXGXKXGXKXKXKXGXDXSXGXGXDXDXnX(.pXKXGXKXKXKXKXGXGXGXGX",
"KXKXKXKXKXKXKXKXKXKXKXKXKXKXKXKXGXGXZXzXhX9XI.g.I.9XhXzXZXKXSXKXKXKXGXGXGXGXKXKXGXKXKXKXKXKXKXKXGXnXGXGXoX(.KXGXKXKXGXGXKXKXGXKX",
"KXKXKXKXKXKXKXKXKXKXKXKXKXKXKXGXZXZX7XK.m.m.e.>.j.Z.;X9XVXGXSXGXKXGXGXGXGXGXGXGXKXGXKXKXKXGXGXKXKXDXDXKXpX7.CXDXKXKXGXKXKXKXGXGX",
"KXKXKXKXKXKXKXKXKXKXKXKXKXKXKXKXCXzX5Xe.I I _ L.) f.m.m.@XdXSXSXGXZXZXGXGXGXKXKXKXGXGXKXKXKXGXGXGXKXtXGXtX(.aXSXKXKXKXKXGXGXKXKX",
"KXKXKXKXKXKXKXKXKXKXKXKXKXKXKXGXGXZX3X9XQ.J E ` _ c.P.U.G.n.%X%XVXzXzXZXGXDXDXGXKXKXKXGXGXKXGXVXGXZXKXAXcXXX!.GXKXGXGXGXKXGXGXDX",
"KXKXKXKXKXKXKXKXKXKXKXKXKXKXKXKXCXZXhXZ.E R V ` ` c.c.A.>X1X%XS.N.5XzXZXGXGXDXDXGXKXSXSXGXKXGXCXZXGXKXGXcX.X{.GXGXGXGXGXKXKXGXDX",
"KXKXKXKXKXKXKXKXKXKXKXKXKXKXKXKXGXZXhX=.I W B J ` c.Q.E.Y.>X7X#XD.D.@X7XCXKXGXGXCXKXGXSXSXGXKXGXCXKXGXGXuX0X).GXGXGXGXGXKXKXGXDX",
"KXKXKXKXKXKXKXKXKXKXKXKXKXKXKXKXAXaX:.U w.Y J N Y f.Z.W.,XG.#X1X6X#X}.}.+XjXzXZXkXGXGXGXSXSXGXGXGXKXDXGXwXXX.XGXGXGXGXGXKXKXKXDX",
"KXKXKXKXKXKXKXKXKXKXKXKXKXKXKXKXKXGXN.;X9Xg.Z.h.h.h.Z.E.,XT.H.>X#X7X7X%X@X X5X9XzXZXVXGXGXKXGXmXZXKXDXGXwXXX0XKXGXGXSXGXGXKXKXGX",
"KXKXKXKXKXKXKXKXKXKXKXKXKXKXKXKXGXZXjXhXzXg.>.I >.>.m.I.I.T.J.U.H.#X7X7X;X XB.D.9XkXGXGXZXCXGXGXSXKXDXNXeX).uXDXSXGXGXGXKXKXKXGX",
"KXKXKXKXKXKXKXKXKXKXKXKXKXKXKXKXKXGXZXZXzXn.b.P . . >.I.,XR.P.J.T.H.#X#XE.I.D.D.@X7XkXZXhXjXDXGXGXDXDXcXuX~.uXGXGXGXGXGXGXKXKXGX",
"KXKXKXKXKXKXKXKXKXKXKXKXKXKXKXKXKXGXGXjXxXM.xXM.P ; c n.Y.U.A.R.P.U.T.U.Q.P.I.;X@XS.N.3XhXzXKXAXGXDXGXuXuX~.MXGXGXGXSXGXGXKXKXKX",
"KXKXKXKXKXKXKXKXKXKXKXKXKXKXKXKXGXKXZXZX X}.5X-.-.@ O.I.Y.Z.x.P.P.z.v.c.v.v.W.Q.%XkXn.=.4XhXnXGXMXDXcX0X0X~.DXDXGXGXGXGXSXGXGXGX",
"KXKXKXKXKXKXKXKXKXKXKXKXKXKXKXKXGXSXZXjXy.N. X;.L L B.9XY.Z.w.Y f.J ) E _ ) L.:XkX%XZ.f.E l.zXmXGXGXtXtX).0XDXGXSXGXGXGXGXKXKXKX",
"KXKXKXKXKXKXKXKXKXKXKXKXKXKXKXKXGXAXGXdXt.$X@XB.N.B.9X3XD.U.A.k.r.T =.T v.T T >.@X1Xz.K ~ _ Q.9XZXsX*XtX(.uXDXGXKXGXGXSXGXKXGXKX",
"KXKXKXKXKXKXKXKXKXKXKXKXKXKXKXKXKXGXGX7Xt.6X6X6X6X<X3X:X:X,XR.Z.> > =   c L.I.g.;.>X` C ( S ~ v.hX5X5XoX).DXDXGXKXKXGXGXGXKXKXGX",
"KXKXKXKXKXKXKXKXKXKXKXKXKXKXKXKXKXVXZX@Xe.>XF.T.Y.I.G.2X,X:XG.S. XDX~.,.o ; ;XK.D.Y.x.V S A S ~ L. XtXp.tXDXDXDXKXKXGXGXGXKXKXDX",
"KXKXKXKXKXKXKXKXKXKXKXKXKXKXKXKXKXBXZXN.n.T.J.A.C.U.T.>X#XG.2X1XlXiX^.^.} + X I.6X>XP.R Z A F ! j.M.+Xp.nXGXDXGXKXGXKXGXKXKXGXGX",
"KXKXKXKXKXKXKXKXKXKXKXKXKXKXKXKXGXCXZXN.Z.U.U.z.w.U.U.>X2X#X1X;Xa.=X,.| ,.o.P 4XD.>XC.H C Z S ~ j.4.M.&XCXDXDXGXKXGXKXGXKXGXDXDX",
"KXKXKXKXKXKXKXKXKXKXKXKXKXKXKXKXGXDXZXn.G.F.A.w.U.R.A.>X2XG.#X>XQ.a.).,.<.8XK.Q.Y.1XA.W V D ^ _ l.>.:.zXDXDXGXGXGXZXZXGXKXKXGXGX",
"KXKXKXKXKXKXKXKXKXKXKXKXKXKXKXKXKXGXVXt.t.#XS.w.A.J.T.T.#X>X>X#XI.9XdX}.$XI.L.Q.F.4Xl.V ' ( _ f.W T b.zXGXBXGXDXDXZXZXZXGXKXGXSX",
"KXKXKXKXKXKXKXKXKXKXKXKXKXKXKXKXKXZXZXM.#X1X#XC.C.A.T.>XT.>X>X1X>X#XD.#X,XR.P.c.,XA.E ~ ( V E k.n.r.g.7XGXKXDXDXCXZXzXZXZXKXSXGX",
"KXKXKXKXKXKXKXKXKXKXKXKXKXKXKXKXKXjXZX}.%X>XG.C.J.J.J.J.H.T.T.F.U.R.1XN.n.Z.,X,XJ.) V / ! B ) R.Y.J m.ZXGXAXAXGXKXZXZXZXGXGXGXGX",
"KXKXKXKXKXKXKXKXKXKXKXKXKXKXKXKXKXVXVX@XN.#XD.Z.T.T.T.T.T.T.T.J.Z.U.2X#XZ.m.S.>XJ.) ^ / R H x.R.w.@ >.hXBXKXKXAXKXKXZXZXGXGXKXKX",
"KXKXKXKXKXKXKXKXKXKXKXKXKXKXKXKXGXKXkXdXt.3XG.F.k.C.H.,XT.T.H.T.R.U.n.D.4XZ.n.>Xw.J ` R H R ) _ G m.B.&XZXGXGXKXGXGXGXKXZXGXGXGX",
"KXKXKXKXKXKXKXKXKXKXKXKXKXKXKXKXGXGXVXkXt.3X>XG.A.C.k.C.A.T.T.T.2X2Xk.w.Z.U.G.G.Y : R J W _ Q C N d.K.9XfXfXMXGXSXSXGXSXKXZXZXCX",
"KXKXKXKXKXKXKXKXKXKXKXKXKXKXKXKXKXGXZXkXN.D.1XY.4XJ.k.k.C.A.J.J.n.#XW.z.h.U.D.r.r.I w.w.) E Q Q 6 , 6 u.-XlXCXmXKXGXGXGXKXGXZXCX",
"KXKXKXKXKXKXKXKXKXKXKXKXKXKXKXKXKXjXGXzX$Xn.<X#XF.T.,XT.C.k.Z.>XH.t.U.W.e.e.g.>.I %.r.T K N C Q 6 1 , , x s.gXmXKXSXSXSXGXKXCXCX",
"KXKXKXKXKXKXKXKXKXKXKXKXKXKXKXKXKXGXGXGX7XB.D.6X:X,XF.G.4XF.>XT.R.Z.k.t.y.y.;.U :.>.P P _ 6 , 6 h t < h 2 2 s.fXDXKXSXvXGXGXGXAX",
"KXKXKXKXKXKXKXKXKXKXKXKXKXKXKXKXKXGXGXGXkX$X}.D.:X6X>X>X2XG.#XD.A.h.%.r.%.;.5.a.M.M.U U b 6 , 1 t t q r < < x i.fXKXSXSXSXGXDXZX",
"KXKXKXKXKXKXKXKXKXKXKXKXKXKXKXKXKXGXGXGXZXxX@XB.N.<XD.:XD.D.S.e.r.I %.y.t.5.4.p._.|.M.V.P 2 < t q p p q s t 5 b gXGXGXSXSXGXGXGX",
"KXKXKXKXKXKXKXKXKXKXKXKXKXKXKXKXKXGXGXGXGXZXxX5Xb.t.;.e.=.;.%.I %.%.y.y.b.b._.`.'.uXqX&Xu.z r s y 0 u q s j < x yXDXGXvXSXGXGXDX",
"KXKXKXKXKXKXKXKXKXKXKXKXKXKXKXKXKXKXSXSXGXGXZXzXZXN.O.O.L O.;.b.y.y.}.%X@X X'.iXiXcXeX~.`.m t y p 9 9 u p e 1 2 =XDXGXSXSXGXKXGX",
"KXKXKXKXKXKXKXKXKXKXKXKXKXKXKXKXSXKXKXGXKXKXGXGXkX X+XzX7X5X$X+XrXrXkXVXZXCXiX'.'.'.~.).iXm q p a 0 7 i a q h 2 s.gXGXSXSXGXGXCX",
"KXKXKXKXKXKXKXKXKXKXKXKXKXKXKXKXKXKXGXKXKXSXGXZXCX XdXZXVXZXZXGXGXGXhXhXSXAXiXiX_._.eXMXNXm r s w w 7 i s p h 4 s.yXGXSXGXKXCXfX",
"KXKXKXKXKXKXKXKXKXKXKXKXKXKXKXKXKXKXKXKXKXGXGXKXOX].KXGXGXZXKXGXSXDXhXZXGXMXeX)._.uXSXGX-Xm f w f k 8 8 s q 1 l `.mXKXGXSXKXZXCX",
"KXKXKXKXKXKXKXKXKXKXKXKXKXKXKXKXGXGXGXAXKXKXaXVX[.oXOX+X+X$XaXnXBXaXpX$X.X.X*XcXKXGXKXDX-Xx f a w k 0 i i f 4 x yXmXDXKXKXGXZXZX",
"KXKXKXKXKXKXKXKXKXKXKXKXKXKXKXKXGXGXGXKXBXBXAX7.GXKXKXAXaXpXpXpXqXpXpXcXnXmXDXGXGXSXGXmX`.3 e a w a 8 i y g 4 v yXmXGXKXGXGXGXGX",
"KXKXKXKXKXKXKXKXKXKXKXKXKXKXKXKXKXGXKXGXKXBX9.pXCXKXKXKXKXKXKXAXKXSXSXKXGXKXCXCXSXSXKXmXs.3 e i q p 8 0 q h 5 u.mXDXKXKXGXGXGXKX",
"KXKXKXKXKXKXKXKXKXKXKXKXKXKXKXKXKXAXBXKXaX8.aXKXGXKXGXKXKXKXKXGXGXKXGXKXKXKXGXGXGXGXGXmX`.h s u q p 9 y q g 2 s.mXKXKXKXKXGXKXKX",
"KXKXKXKXKXKXKXKXKXKXKXKXKXKXKXKXKXBXKXOX].pXaXKXKXKXKXKXKXKXKXGXGXGXGXSXGXGXGXKXGXGXGXNXi.h k u y p u y q t 2 K.CXKXGXGXKXKXGXGX",
"KXKXKXKXKXKXKXKXGXKXGXGXSXGXGXKXSXGX[.{.AXBXKXGXKXAXAXGXKXKXKXKXZXGXKXKXGXGXGXSXGXSXGXfXi.4 k u u u u u p < z =XCXKXGXGXKXKXGXGX",
"KXKXKXKXKXKXKXKXGXKXGXKXGXKXKXGXGX{.*XAXVXKXKXAXKXKXKXKXGXAXCXGXlXZXGXGXSXGXKXKXGXGXGXfXi.4 e i d d d u p < m yXNXGXGXGXKXKXSXGX",
"KXKXKXKXKXKXKXKXGXGXKXGXKXKXGXKX].aXGXKXKXGXGXKXKXGXKXKXKXKXKXGXZXKXGXvXSXGXKXSXGXGXCXfXu.3 g a a i a a f 5 M yXMXDXGXGXKXKXGXSX",
"KXVXKXGXAXBXKXBXAXKXKXBXKXGXaX[.+XKXKXAXGXGXKXSXGXGXGXKXAXKXcXGXCXjXGXvXGXvXSXKXGXBXGXfXv z j f f w k < 5 5 s.NXMXKXMXDXGXGXBXGX",
"KXAXGXKXKXBXpXKXKXBXGXBXGXaXKX[.AXsXGXaXAXGXaXsXAXAXKXKXGXjXKXGXZXGXSXvXGXGXGXGXCXGXsX*X*.z n n n n n 3 l b `.SXcXGXGXoXCXGXKXAX",
"KXKXGXAXBX7...oXX.9.1.{.OX].9.OXBX$ oX8.[.8.GX@.[.{.aX].7.X.GX8.p.sX+XwX/.8.(.tXp.jX{.} s.v i.m u.s.Q u.*._.rX/.q.0./.&.*XsXKXGX",
"GXGXGXKXKXsX@.+X3.@.1.KX7.[ ..@.CX$ ..#.$ = KX$.1.% o.$ X.X.GXX.o.@.% * #.o.c - O +XSX@.+X .*.z 4.$.c c - &.{ > # [ #.[.CXGXGXGX",
"KXSXAXGXKXAX+.X.2.= 7.AX].X.7.2.aX1.7.$ 1.% aX7.+.O o.= o.@.BX@.7.@.# ] !.1.&.c c pXbX0...+. .*.+.> L t.y.1.[ # #.[ @.&XlXlXBXSX",
"KXGXKXGXKXKXjXqXAXsXsXSXKXAXaXCXAXSXGXCXAXjXAXBXVXaXKXKXaXOXKXBXnXMXAXbXAXcXmXfX8XCXGXSXrXSXOXOXSXrXVXGXBXVXvXvXvXjXlXgXCXGXGXSX",
"AXKXKXAXGXAXKXKXKXBXGXGXaXGXBXKXKXGXaXpXGXGXKXKXKXKXpXAXKXaXKXKXKXnXSXGXKXDXmXfXlXjXvXrXSXSXSXGXAXNXGXDXgXGXGXbXSXKXCXlXgXGXSXbX",
"KXKXGXCXKXoX8.7.$XsXBX].KX/.X.aX+XKX..0.OXpXoXBX1.OX2.].oXX.[.AX5X!./.eX(.*X_.&.*XaXrXrXvXvXbXq.cX~.6.*X*XNXwXpXpXaXV.&X-.bXvXvX"
};
