/* XPM */
static char *acb01d0b313242c4e67c48aef6e6b6e2GdWuYwcNtymstLFS[] = {
/* columns rows colors chars-per-pixel */
"64 64 249 2 ",
"   c #020203",
".  c #040908",
"X  c #150105",
"o  c #190715",
"O  c #091516",
"+  c #16181A",
"@  c #16120C",
"#  c #290500",
"$  c #230515",
"%  c #2F1013",
"&  c #1E1F21",
"*  c #371827",
"=  c #30182A",
"-  c #182A29",
";  c #193937",
":  c #0E312E",
">  c #262629",
",  c #273429",
"<  c #293736",
"1  c #353B35",
"2  c #372E2F",
"3  c #122A1D",
"4  c #531C2E",
"5  c #4E342E",
"6  c #5D111E",
"7  c #17453B",
"8  c #28453B",
"9  c #314C3C",
"0  c #47493A",
"q  c #684438",
"w  c #173643",
"e  c #363B44",
"r  c #283945",
"t  c #513946",
"y  c #632F45",
"u  c #1B4847",
"i  c #19504F",
"p  c #284945",
"a  c #354C45",
"s  c #2B534A",
"d  c #295448",
"f  c #39564C",
"g  c #264B55",
"h  c #374855",
"j  c #2A5657",
"k  c #3C5353",
"l  c #385959",
"z  c #1C6258",
"x  c #296558",
"c  c #37665A",
"v  c #36614E",
"b  c #2B5C64",
"n  c #335C64",
"m  c #3C5965",
"M  c #3C4D61",
"N  c #3D6462",
"B  c #366965",
"V  c #3C6B6C",
"C  c #376667",
"Z  c #3C756D",
"A  c #396A71",
"S  c #377879",
"D  c #2E6D6B",
"F  c #434E54",
"G  c #435B5C",
"H  c #445956",
"J  c #51504F",
"K  c #725058",
"L  c #46655C",
"P  c #4E7055",
"I  c #465C67",
"U  c #485F71",
"Y  c #675D69",
"T  c #436C64",
"R  c #42636C",
"E  c #4B656B",
"W  c #496967",
"Q  c #536C65",
"!  c #536D6A",
"~  c #576768",
"^  c #477469",
"/  c #55766C",
"(  c #446B74",
")  c #496A74",
"_  c #556B75",
"`  c #4C747B",
"'  c #4B7B7B",
"]  c #487674",
"[  c #5C7472",
"{  c #547B73",
"}  c #577979",
"|  c #677A69",
" . c #657776",
".. c #6F726F",
"X. c #647058",
"o. c #89334E",
"O. c #925C72",
"+. c #836E76",
"@. c #AD6779",
"#. c #A05062",
"$. c #3C8578",
"%. c #4A837A",
"&. c #5C847C",
"*. c #578779",
"=. c #55826B",
"-. c #67867A",
";. c #699478",
":. c #708D77",
">. c #397982",
",. c #5B7B87",
"<. c #577888",
"1. c #667D86",
"2. c #787B83",
"3. c #B66D85",
"4. c #B87784",
"5. c #C2798D",
"6. c #4A8784",
"7. c #588686",
"8. c #599488",
"9. c #5A8A92",
"0. c #5B9694",
"q. c #678986",
"w. c #778B89",
"e. c #64918A",
"r. c #689688",
"t. c #799589",
"y. c #6A8B95",
"u. c #768B93",
"i. c #689B97",
"p. c #759C92",
"a. c #7D9B93",
"s. c #779697",
"d. c #5BA996",
"f. c #6AA899",
"g. c #73A392",
"h. c #73A39C",
"j. c #7CAB9C",
"k. c #78A89A",
"l. c #67B19C",
"z. c #78B39A",
"x. c #77A98A",
"c. c #6D9AA4",
"v. c #769AA3",
"b. c #5AAAA1",
"n. c #6AA7A6",
"m. c #7DAAA3",
"M. c #76A8A7",
"N. c #6CB9A7",
"B. c #7AB5A4",
"V. c #78B4A8",
"C. c #79ACB3",
"Z. c #78B6B6",
"A. c #6DB6B2",
"S. c #76C2B5",
"D. c #7FBCC1",
"F. c #86958C",
"G. c #839D9A",
"H. c #859895",
"J. c #8D9295",
"K. c #AE838F",
"L. c #84A49B",
"P. c #8DA49D",
"I. c #84A89B",
"U. c #94A79B",
"Y. c #87B79A",
"T. c #99B29F",
"R. c #869CA4",
"E. c #949DA3",
"W. c #8CA3A3",
"Q. c #82ADA4",
"!. c #8BACA3",
"~. c #86A7A7",
"^. c #94ACA4",
"/. c #96AAA8",
"(. c #84B2A3",
"). c #85B2AB",
"_. c #8BBCAB",
"`. c #89B5A8",
"'. c #93B4AB",
"]. c #98B6AA",
"[. c #84AAB5",
"{. c #83B3B3",
"}. c #89B8B8",
"|. c #95B6B7",
" X c #95ABB2",
".X c #A5B6A9",
"XX c #A6BAB7",
"oX c #A9B0B0",
"OX c #D08197",
"+X c #89C7B8",
"@X c #96C3B8",
"#X c #8AC3A7",
"$X c #A5C4B9",
"%X c #AFC1AC",
"&X c #C6C8B3",
"*X c #87BCC1",
"=X c #95BBC6",
"-X c #93C4C5",
";X c #A9C8C5",
":X c #B8C8C6",
">X c #B7D4CB",
",X c #BCD6D6",
"<X c #A8D1C9",
"1X c #BFEDE2",
"2X c #C6D6CA",
"3X c #C7DAD7",
"4X c #D2DBD6",
"5X c #C5CBC7",
"6X c #E3D8D8",
"7X c #CAE4DA",
"8X c #D5E5DA",
"9X c #ECF3DD",
"0X c #CAE6E7",
"qX c #D8EAE8",
"wX c #D9F5EB",
"eX c #DCF8F6",
"rX c #D7EFF1",
"tX c #ECEDED",
"yX c #E6ECE7",
"uX c #F4ECEC",
"iX c #E3F3ED",
"pX c #EBF3EE",
"aX c #E9F9E7",
"sX c #FEFCED",
"dX c #F6F5EA",
"fX c #E6EBF3",
"gX c #F1EDF3",
"hX c #E5F5F4",
"jX c #EBF5F3",
"kX c #E4FCF4",
"lX c #ECFBF5",
"zX c #E6FDFB",
"xX c #ECFEFD",
"cX c #EAF3FA",
"vX c #F4F4F3",
"bX c #FBF5F5",
"nX c #F4FBF5",
"mX c #FDFCF5",
"MX c #F4F6FB",
"NX c #FCF6FA",
"BX c #F4FEFD",
"VX c #FEFAFE",
"CX c #FAFEFE",
"ZX c #FFFFFD",
"AX c white",
"SX c #FEFFFF",
"DX c #FEFDFE",
"FX c #FDFEFE",
"GX c #C3D7E0",
/* pixels */
"ZXZXZXZXZXZXZXZXZXMXVXZXZXmXmXmXbXmXbXZXFXCXMXZXNXVXVXVXZXCXBXCXmXZXvXZXZXcXVXVXVXZXbXmXZXZXCXCXZXZXZXZXZXZXZXZXZXZXZXZXZXZXZXZX",
"ZXZXZXZXZXZXZXZXZXZXFXFXmXmXmXmXmXVXbXZXCXCXCXMXVXZXVXVXZXCXcXCXdXmXZXvXjXVXCXZXVXVXmXmXZXZXCXCXCXZXZXZXZXZXZXZXZXZXZXZXZXZXZXZX",
"ZXZXZXZXZXZXZXZXVXZXZXmXZXmXZXmXVXmXFXZXpXxXBXCXZXVXVXVXZXCXdXnXdXaXdXCXCXxXcXCXVXvXmXZXmXZXCXCXZXZXZXZXZXZXZXZXZXZXZXZXZXZXZXZX",
"ZXmXZXZXZXZXZXZXMXZXZXZXZXmXmXZXdXCXCXCXCXBXMXCXZXVXVXZXZXmXnXnXnXnXaX:X,XBXCXCXZXvXZXZXbXZXCXCXZXZXZXZXZXZXZXZXZXZXZXZXZXZXZXZX",
"ZXmXZXZXZXZXZXZXZXZXZXZXZXdXdXnXZXiX2XXX:XqXCXMXVXVXVXZXmXmXmXnX8X.X:.9 8 w.XXqXnXCXZXmXFXZXVXBXZXZXZXZXZXZXZXZXZXZXZXZXZXZXZXZX",
"ZXZXZXZXZXZXZXZXZXbXZXZXmXnXmXZX4XG.G.w./ P.zXxXMXMXVXmXbXmXsX9X:.:.;.Y.p.W H -.4XZXZXmXVXVXZXBXZXZXZXZXZXZXZXZXZXZXZXZXZXZXZXZX",
"ZXZXZXZXZXZXZXZXZXvXZXZXnXmXnX4XF.q.'.|.p.q.>XxXnXCXZXZXsXmXsX2X=.Y.$X#XQ.g.-.p U.ZXCXmXZXvXZXVXZXZXZXZXZXZXZXZXZXZXZXZXZXZXZXZX",
"mXZXZXZXZXZXZXZXZXMXZXmXtXmXaXH.s.`.).~.@X} s.BXCXCXZXmXbXmXdX.X=.Y.z.r.k.@XQ.p -.BXnXmXZXgXZXVXZXZXZXZXZXZXZXZXZXZXZXZXZXZXZXZX",
"ZXCXZXZXZXZXZXZXZXbXZXZXpXmX.Xt.|.m.r.h.@Xe.7.xXhXCXZXmXZX9XsXF.:.#X;.=.^ f.@X{ q.CXBXmXFXFXNXVXZXZXZXZXZXZXZXZXZXZXZXZXZXZXZXZX",
"CXCXZXZXZXZXVXZXVXZXZXnXCX2X:.U.m.} ( 7.}.h.} 0XxXCXZXvXmXdXsXF.:.#X=.v c %._.m.-.wXnXCXVXVXVXCXZXZXZXZXZXZXZXZXZXZXZXZXZXZXZXZX",
"nXZXZXZXZXVXZXVXMXZXMXnXmX.X..].r.V B B i.p.} ,XxXBXCXnXZXnXmX:.;.z.=.x %.6.M.).! 7XiXZXVXFXVXZXZXZXZXZXZXZXZXZXZXZXZXZXZXZXZXZX",
"CXZXZXZXZXZXVXZXZXZXCXnXnXU.t.U.e.B Z V h.Z.9.;XxXxXCXCXZXnXZX:.x.#X*.x B ' m.=XL 3XpXCXFXVXCXZXZXZXZXZXZXZXZXZXZXZXZXZXZXZXZXZX",
"mXmXZXZXZXZXVXZXVXZXnXnXnXU.t.].e.C ( ' Z.}.<.q.|.s.w.J.w.F.P.L =.(.p.( j <.}.|.R 3XnXCXvXCXZXVXZXZXZXZXZXZXZXZXZXZXZXZXZXZXZXZX",
"CXCXZXZXZXVXZXVXvXZXCXnXnXT./ %Xm.6.' ' e.0.j j E k h F F k Q a f ! ) ( S n.*Xy.q.rXCXCXvXZXVXBXZXZXZXZXZXZXZXZXZXZXZXZXZXZXZXZX",
"CXCXZXZXZXZXZXZXVXZXCXnXnX2X:.U.}.s.7.' ' D n n R E E _ ~ ~ ! W W m g m 7.c.c.1.XXzXMXCXMXCXZXVXZXZXZXZXZXZXZXZXZXZXZXZXZXZXZXZX",
"mXZXZXZXZXZXVXVXZXvXZXBXlXnXU.-.}.s.} q.7._ } ! I _ ~ ~ E Q ~ ~ [  .E 1.v.<.j ) 0XxXhXCXCXMXZXZXZXZXZXZXZXZXZXZXZXZXZXZXZXZXZXZX",
"ZXmXZXZXZXZXZXZXmXmXZXnXnXnXkXW.l k > , 1 @ & > e I _ ~ ! H 9 X.Y 2.J. X).,.l ^ ;XBXhXiXCXCXBXZXCXCXCXCXCXZXCXZXCXCXCXCXCXZXZXZX",
"mXZXZXZXZXCXCXZXZXtXmXmXnXlXBXs.G O   % X # 5 * o = r I < > J > e 4 e e < 8 { I.r.I.xXCXqXZXZXZXbXCXCXZXCXCXlXpXnXCXCXCXCXnXZXCX",
"ZXmXZXZXZXCXZXZXmXmX9XsX8X7X^.t. .+ X % # #.4.@.* $ = 2 $ y 4.o.$ X o O . d z._.e.r.$XnXmXZXVXbXZXZXZXCXMXCXZXZXZXZXZXZXZXZXZXZX",
"ZXZXZXZXZXZXZXZXsXsXdX6X%X| P L.H.J X # 6 3.#.5.4 $ = o $ #.@.5.4 $ O O ; e.+Xf.B.j.-./.4XuXVXbXNXMXVXZXZXZXVXVXZXZXZXZXZXZXZXZX",
"ZXZXZXZXZXZXZXVXmXsXsX%X=.9 ;.#X(./ . X 6 @.#.@.% = Y o = 3.o.3.y o   - T V.S.l.B.f.p.H Y 6XZXbXZXVXVXZXZXVXVXZXVXVXVXZXZXZXVXZX",
"ZXZXCXCXZXZXZXZXsXsX.XX.0 ;.x.z.f.x.H @ % OXK.K = Y J.t = O.3.3.* o o I j.V.l.S.l.z./ 9 ..6XZXbXZXVXMXNXZXMXMXVXVXVXZXVXVXZXZXVX",
"CXCXCXZXZXZXVXVXsX9X&X0 =.x.Y.x.d.S.r.9 @ X.+.2 1 !  .G & t 4...o > E W.@XV.l.B.z.k.L t.yXvXmXVXCXVXBXBXVXgXNXVXVXVXZXZXZXZXVXZX",
"mXCXCXZXZXZXVXZXsX9X9X&XP ;.x.z.N.d.f.k.k 3 J H F W G _ F r F > > ~ W.'.h.B.V.B.r.^ ].kXnXCXmXZXcX3XoXJ.w.E.4XVXVXVXVXVXZXZXZXZX",
"CXCXZXCXZXZXZXVXmXsX9X9X%X=.=.z.z.z.j.j.g.[ [ 8 + + - r  .w.; q.v.R.}.m.h.).).m.! !.BXwXxXBXpX;Xs.w.u.w.h F 2.VXCXCXZXZXCXZXZXCX",
"ZXCXCXZXZXZXZXVXmXsXsX9XaX%XP ;.x.x.)._.j &.p . . .   . H s.V h.[.{.}.m.m.m.} T  .0XfXxXqX|.-.q.y.} u.1.H. .r qXCXCXCXCXCXCXCXCX",
"ZXZXZXZXZXZXZXZXmXdXsXsXaXaXU.v t.P.!.e.7.Z.; O . o . . ! }.6.6.}.n.n.{.{.' ; ;  XBXxXfXq.T T %.T ) m l R.1.> :XBXCXCXCXZXBXCXBX",
"ZXZXZXZXCXCXZXZXsXmXsXsX9XnXaXt.a ~ ).e.Z -X9.3 O & 1 H s.-X8.S A.n.M.n.' ; r R.zXCXxXu.f } 7.^ V ` m k 1. XU GXBXCXCXCXCXCXCXCX",
"VXZXZXZXZXCXCXZXmXmXdXsXmXaXjXpX8Xt.c i.B Z.}.~.~  .J.XX;X|.0.D A.D.c.>.g u n v.0XcXGXm ] } ^ B C g ` l 1.R.Y fXCXCXZXZXZXZXCXCX",
"mXVXZXZXCXCXCXCXZXdXmXmXmXZXjXCXkXwXq.u b c.[.M - - a :.'._.C.S 9.9.<.b D D u g 9.u.` _ ) g C ^ ` } I _ =Xe J.MXVXVXVXZXZXZXZXZX",
"mXmXZXZXCXCXCXCXZXdXmXmXuXZXVXyXxXeX;X: p w u.F O   . < [ R.*Xn A <.c.<.b b b 6.A u : W R m ) ( R <.h _ u.r :XNXVXVXVXZXVXZXZXZX",
"VXVXVXZXCXCXCXCXpXZXdXbXZXVXVXCXwXxXI.: y.U U ~ O       >  .=XI <.C.*X9.b A b i A n A j ) ` l ` ) m R.y.e oXcXZXVXVXVXVXZXZXZXVX",
"VXZXZXZXCXCXCXCXZXZXZXZXZXBXxXCXlX%X; w 9.}.( T 9 @ % # $ ..~.V v.*X*X<.b b >.g w <.A g A ( m R y.R.1.I oXMXBXMXCXCXZXZXZXZXVXZX",
"ZXVXZXZXCXCXZXZXVXVXZXVXVXBXBXwXT.L 8 l y.=XZ.B 9 2 5 q 5 ..r.] *XC.D.c.<.<.<.>.g b A g w <.C.[.v.I h E.BXCXgXCXCXCXCXCXZXZXVXVX",
"VXZXZXZXZXCXZXZXCXVXZXZXBXxXBX;X8 9 &.e.C.C.A.<.0 , 5 q 0 F.] 8.*Xn.c.D.C.c.>.M A r ) ` g m <._ U  XqXBXCXMXMXZXCXCXZXCXZXVXZXVX",
"ZXVXZXZXZXCXCXZXCXVXZXVXBXjXxXq.9 ^ 7.M.*XD.n.6.9 , J 2 0 w.D Z.n.n.C.A.C.C.<.g ( g g m A M w <.0XeXcXMXCXVXZXvXZXCXCXZXZXZXZXZX",
"VXZXZXZXCXCXZXZXZXNXZXCXBXhX,Xf ^ *.8.{.A.A.Z.9.9 3 9 , Q -.S A.b.S.S.l.b.C.n.<.( n g E <.M r R.BXxXfXBXBXgXZXZXZXCXCXCXZXZXZXVX",
"VXZXZXZXZXCXCXZXZXVXVXCXCXxX^.p c r.C.Z.C.>.>.>.=.d 3 9 -.B d.b.S.b.0.$.0.D.Z.9.A n m <.U U M I GXBXMXBXVXVXZXuXZXZXZXZXZXZXZXZX",
"ZXZXZXZXZXCXZXZXVXZXVXCXCXxXq.s V v.M.v.n.>.S z Z *./ | { B A.S.d.$.z z %.Z.Z.0.V j g ,.M U _ h R.eXBXCXZXgXVXVXZXZXCXCXZXZXVXZX",
"VXZXVXZXCXCXZXZXNXZXMXxXBXkXQ j ^ c.}.-Xi A A.n.Z ] p.=.{ V.A.$.D x z u x i.C.f.n A A [.) m <.M r 3XBXBXZXVXVXbXZXZXZXZXZXZXZXVX",
"ZXZXZXZXCXCXZXZXVXVXCXBXBX,Xp L ] n.=Xy.w <.D.C.f.6.c H W C x u 7 7 7 7 7 ] +X8.B ] b i.}.( ( I p G xXBXZXVXVXmXZXZXZXZXZXZXZXZX",
"ZXZXZXZXZXZXZXZXZXVXVXCXxXXX; C ' [. X` : <.C.n.}.{.R :  .W ' ] r.t.g.I.{ s *.h.V s j M.}.M.u ` R < W.CXZXbXVXVXZXZXZXCXZXZXZXZX",
"VXZXZXZXZXZXZXZXCXVXVXCXxX'.; ^ i.}.1.h h _ [.M.V.' l ;XzXxXxXzXxXBXkXxX0X{ T _.x ] ; B 7.}.s.c T 8 k lXCXvXVXmXZXZXZXCXZXZXZXZX",
"ZXZXZXZXCXZXZXZXVXVXVXBXxX!.7 ] i.=XM I XXh R.}.|.C E xXcXxXzXhXxXCXiXBXBXW.l Q.f j u 7 s e.).c j L 8 :XCXZXdXZXZXZXZXZXZXZXZXVX",
"ZXZXZXZXZXZXZXZXVXVXCXBXBX!.d ^ i.*XM E.NX~ _ ~.h.T R.xXBXMXCXZXtXZXCXxXBX].c ^.^ c 7 <X<Xs r.p.v Z 8 a.CXZXdXZXZXZXZXCXZXZXZXZX",
"ZXZXZXZXZXZXZXZXVXZXCXxXxXk.d Z n.C.l :XZX:XH } Q.] s.BXBXZXZXvXZXZXCXjXBX/.a I./ p s 7XzXL.; -.*.c d / kXnXZXZXZXZXZXZXCXZXZXZX",
"ZXZXZXZXZXZXZXVXVXVXVXBXxXr.d %.V.i.p 4XCXCXP.^ ).e.l yXtXVXmXbXZXMXBXjXBX$XG ].W L 8 >XxXqXH.d g.*.c P kXpXnXmXZXmXZXCXZXZXZXVX",
"ZXZXCXCXCXZXZXZXVXVXBXBXzXq.7 7.A.i.p rXBXiXnXG.d ).G G.VXyXZXZXZXVXCXxXxXXXk !.=.f a 3XCXkXyXa *.@X=.f xXdXnXZXZXZXZXZXZXZXZXZX",
"CXCXCXCXCXCXCXZXVXZXZXBXzXc d f.+X%.R xXxXMXcXBX[ W I.f XXBXvXZXCXFXCXVXnX@Xv #X*.8 8 3XBXCXpXH ^ z.s L.xXiXCXvXZXZXZXVXZXZXZXZX",
"ZXCXCXCXCXCXCXZXVXZXCXnXkXc c l.V.] ) BXCXVXMXCX/.p ].q.a .XmXZXZXVXVXFXmX].c B.8.x , %XCXMXCX| / z.9 $XBXkXMXZXZXZXZXZXZXZXZXCX",
"ZXZXCXCXCXZXZXZXVXVXbXCXqXv *.S.m.( } CXZXVXVXBX/.8 @X].P < 5XmXZXFXZXFXCXP.c B.B.=.8 >XCXpXCXQ / z.d >XxXBXjXZXZXVXZXZXZXZXZXZX",
"VXZXZXZXZXZXZXVXVXNXvXCX3Xs g.#Xm.m 2.BXVXVXMXVXW.L ^.I.-., :XCXCXMXZXmXnXa.^ B.#X8.f qXCXvXqXf *._.c $XeXBXnXCXZXZXVXZXZXZXZXCX",
"VXZXVXZXZXVXZXVXVXbXvXCX$Xf B.`.~.k H.BXVXNXMXZXE./ '.I.L $XBXCXCXmXZXvXCX-.=.z.z.*.T lXnXCXXXa g._.*.$XxXxXBXCXZXVXZXZXZXZXZXZX",
"VXVXZXVXZXVXVXVXVXFXbXCX^.P j.(.~.k XXVXNXMXNXZXXX[ $X-.{ nXBXpXCXBXZXjXCX{ 7.B.z.8./ xXyXCX].H Y._.g.$XxXxXnXCXZXZXZXVXZXZXZXZX",
"VXVXVXVXVXZXVXZXZXCXMXBXa.{ j.j.m.W 3XCXcXCXBXqX:XL.F.f :XxXyXZXBXBXZXvXCX/ r.B.B.8.=.eXhXkX>X;.I.(.j.$XkXkXlXCXZXZXZXZXVXZXZXZX",
"VXZXZXVXZXVXZXZXCXCXlXxXr.;.k.B.p.{ eXxXrXxXcX>Xw.$XQ :.CXBXCXnXCXCXZXvXBXQ i.B.l.r.} wXBXkXlX].r.`.I.!.,XwXnXCXZXZXZXZXZXZXZXZX",
"ZXZXZXZXVXmXCXCXCXkXxX>X^ k.g.#Xk.j 1X$Xp.'.^.a.XX:.L 7XCXCXbXZXCXnXZXbXBX! i.f.z.V.q.eXCXlXeXwX@Xk.L.^.P.F.T.yXMXCXbXNXZXVXFXCX",
"ZXZXVXVXVXCXCXCXxXxXzX`.^ (.k.z.z.7 f.g.k._.L.k.G.~ ^.MXjXMXZXVXCXnXZXMXBX[ e.).n.m.I.0XqXwXxXkXwX].L.t.H.J.J.J.5XtXZXZXVXVXFXZX",
"CXCXZXZXZXFXBXlXxX7X<Xr.r._.k.(.r.x *.*.p.`.`.L.P.^.lXlXZXbXbXVXnXZXZXtXCXW.*.M.V.V.s.q. .$XkXkXxX7X$XP.H.J...~ ..&XgXNXMXZXVXZX",
"CXCXZXZXVXnXlXkX7XI.g.g.(.#Xp.j.=.&.g.=.;.q.a.U.7XiXCXtXZXMXNXZXnXZXMXuXCXXX] M.M.M. Xw.F.].7XxXxXkXlXqX5X%XoXJ.J.4XVXVXZXZXCXbX",
"CXCXZXZXZXbXjXpXU.-.e.z.r._.L.F.:X7X7X7X7X$X>XkXCXlXFXZXvXbXVXMXZXmXgXVXZX;X( m.i.e.~.H.W.| :.wXxXlXCXCXCXCXtXyXgXZXZXVXVXZXZXZX",
"CXCXZXZXVXNXvXjX^.{ *.I.! L.XX7XnXZXBXnXBXlXlXCXvXCXtXVXVXNXZXVXVXVXbXVXZXfXq.V ' 7.G. . .! I.xXlXpXFXCXZXZXFXZXFXbXgXvXZXZXVXZX",
"CXZXZXVXVXNXMXlX7X_.`.$XI.XX7XCXbXZXZXvXnXCXCXpXvXZXVXVXZXZXtXZXvXZXVXbXCXBX;X<.D e.~.u.J..X7XkXBXCXZXZXFXVXMXZXZXZXZXZXZXZXMXMX",
"CXZXZXVXNXNXFXnXnXxXeXwXkXnXBXvXVXuXVXZXpXvXMXZXZXbXZXVXNXZXZXZXCXbXVXZXgXxXeXeXeXrXxXBXhXxXxXkXnXMXZXbXVXZXZXNXMXZXZXMXZXZXZXZX"
};
