/* XPM */
static char *ea750a260214497acfc775539c279a43LUPtoWyTdO2aPSAx[] = {
/* columns rows colors chars-per-pixel */
"64 64 256 2 ",
"   c #010402",
".  c #080206",
"X  c #140007",
"o  c #060F16",
"O  c #370201",
"+  c #300608",
"@  c #020329",
"#  c #030438",
"$  c #08122E",
"%  c #270036",
"&  c #380F32",
"*  c #112E31",
"=  c #343236",
"-  c #2F271C",
";  c #500B0B",
":  c #6A110A",
">  c #712B0D",
",  c #50142D",
"<  c #532C33",
"1  c #732D29",
"2  c #5F1F1C",
"3  c #234639",
"4  c #00014B",
"5  c #030343",
"6  c #020559",
"7  c #081353",
"8  c #2F0E53",
"9  c #093145",
"0  c #313A47",
"q  c #00016B",
"w  c #030666",
"e  c #170268",
"r  c #071467",
"t  c #02017B",
"y  c #030774",
"u  c #031776",
"i  c #16176D",
"p  c #260969",
"a  c #0A2C71",
"s  c #342A71",
"d  c #50364A",
"f  c #702C4E",
"g  c #4B346C",
"h  c #571E63",
"j  c #164E55",
"k  c #2C4C53",
"l  c #2F5273",
"z  c #316970",
"x  c #1C586A",
"c  c #514D4B",
"v  c #6F4F52",
"b  c #515170",
"n  c #4A6D74",
"m  c #6A6874",
"M  c #6B546A",
"N  c #6D493B",
"B  c #8C3113",
"V  c #913B28",
"C  c #982F1F",
"Z  c #934A34",
"A  c #AC4E35",
"S  c #AE6631",
"D  c #914E4E",
"F  c #947056",
"G  c #B1704E",
"H  c #8E7474",
"J  c #AD706A",
"K  c #A25764",
"L  c #CB714E",
"P  c #CC7C6B",
"I  c #D46D51",
"U  c #C36D3C",
"Y  c #59867B",
"T  c #B3856E",
"R  c #A58767",
"E  c #D3916D",
"W  c #E7966A",
"Q  c #E59976",
"!  c #EA8E74",
"~  c #DCA679",
"^  c #EDA872",
"/  c #D58D54",
"(  c #E8C078",
")  c #020383",
"_  c #030788",
"`  c #031889",
"'  c #010296",
"]  c #031899",
"[  c #171892",
"{  c #072788",
"}  c #062697",
"|  c #11338F",
" . c #283092",
".. c #0814AB",
"X. c #0527A4",
"o. c #0436A9",
"O. c #0629B5",
"+. c #0238BA",
"@. c #1632AE",
"#. c #2930AA",
"$. c #321981",
"%. c #2C4A95",
"&. c #346F8D",
"*. c #104FB3",
"=. c #2D4EAF",
"-. c #0D6CB6",
";. c #2D6BB0",
":. c #144B95",
">. c #4D5293",
",. c #68538D",
"<. c #4E6D93",
"1. c #707487",
"2. c #4D6FB0",
"3. c #6A75B3",
"4. c #5356B0",
"5. c #0438CA",
"6. c #003AE1",
"7. c #0244C6",
"8. c #1656D9",
"9. c #0E4FD4",
"0. c #2C59CE",
"q. c #0868DB",
"w. c #156AD6",
"e. c #2B71D2",
"r. c #0D58ED",
"t. c #2557ED",
"y. c #0367E8",
"u. c #0367F9",
"i. c #1767F9",
"p. c #0276F7",
"a. c #1072E9",
"s. c #2B70F2",
"d. c #5273CB",
"f. c #707BC7",
"g. c #413A99",
"h. c #8A658E",
"j. c #3882A6",
"k. c #538F98",
"l. c #6D8F95",
"z. c #5193B4",
"x. c #6D99A8",
"c. c #71AEB2",
"v. c #58ACAE",
"b. c #0F83D0",
"n. c #328BD6",
"m. c #33A6D4",
"M. c #108AF0",
"N. c #2689E8",
"B. c #2A9AEC",
"V. c #379AE9",
"C. c #2F93F4",
"Z. c #25A6EA",
"A. c #36A7E9",
"S. c #37A5F9",
"D. c #2DAAF9",
"F. c #5491D1",
"G. c #6F8FCB",
"H. c #50AAD2",
"J. c #6FAACE",
"K. c #4B9BF1",
"L. c #6F91EA",
"P. c #4CB0F4",
"I. c #6DB6F6",
"U. c #58C5FB",
"Y. c #54CFF1",
"T. c #67C8FF",
"R. c #68D9FE",
"E. c #6FD2F1",
"W. c #68D9E2",
"Q. c #73C0BA",
"!. c #939392",
"~. c #AF9595",
"^. c #90ABAD",
"/. c #AEB2B5",
"(. c #9F9DA9",
"). c #D2978C",
"_. c #EB9287",
"`. c #D4AB90",
"'. c #E9AA87",
"]. c #F7AB8A",
"[. c #F8B797",
"{. c #ECB092",
"}. c #D6B1AB",
"|. c #EEB6A8",
" X c #DD9FA2",
".X c #A6C9B8",
"XX c #EDC497",
"oX c #F4CCB3",
"OX c #E7DFBF",
"+X c #8C93CB",
"@X c #8FAECD",
"#X c #8FB1F6",
"$X c #ABB7F3",
"%X c #9EA4E8",
"&X c #EDBEC3",
"*X c #91D0D3",
"=X c #A8C9D5",
"-X c #B3CFCF",
";X c #ADE2DB",
":X c #8ECFF6",
">X c #B8D7EA",
",X c #A5DAFD",
"<X c #B0CFF2",
"1X c #B9E7FE",
"2X c #B4EAF2",
"3X c #9CE2D3",
"4X c #CED5D2",
"5X c #F0D3CC",
"6X c #D3E9D8",
"7X c #E5E7DA",
"8X c #FAE7DA",
"9X c #FDF7DA",
"0X c #F0F0D0",
"qX c #C5DCFD",
"wX c #D8DAFD",
"eX c #CDD6E4",
"rX c #E6DDE4",
"tX c #DBEAE8",
"yX c #C6E7FD",
"uX c #D7EAF9",
"iX c #C9F8FD",
"pX c #DCFDFE",
"aX c #D9F7F9",
"sX c #D0EEEA",
"dX c #E4E3E3",
"fX c #ECECEC",
"gX c #E8E8E8",
"hX c #F3EDEC",
"jX c #F9E9E8",
"kX c #EBF3EC",
"lX c #E9F6E9",
"zX c #FDF4E3",
"xX c #F3F4ED",
"cX c #FCF4EC",
"vX c #F3F9ED",
"bX c #F8F7E6",
"nX c #EDEDF2",
"mX c #E6EBFA",
"MX c #F4EDF3",
"NX c #FBEDF3",
"BX c #F7EDFB",
"VX c #ECF3F3",
"CX c #EDF9F5",
"ZX c #E4F3FE",
"AX c #ECF4FD",
"SX c #E3FDFF",
"DX c #ECFCFE",
"FX c #E5F6F4",
"GX c #F5F5F5",
"HX c #FAF4F4",
"JX c #F3F9F3",
"KX c #FCFBF4",
"LX c #F4F5FB",
"PX c #FCF4FB",
"IX c #F4FDFD",
"UX c #FCFCFD",
/* pixels */
"jXPXNXNXUXIXfXCXKXgXbXKXcXHXUXhXcXPXUXd.5.r.u.9.q >.|.[.^ ^ _.E 2 d 2.F.I.R.Y.W.W.Y.R.R.D.A.B.N.s.u 7 <XIXUXNXPXPXNXvXvXvXvXLXPX",
"PXhXPXUXMXBXUXVXJXKXKXgXKXPXfXUXPXeX<X0.7.r.i.+.r b }._.].{.~.~.d 0 F.K.P.R.W.W.W.W.Y.R.U.A.V.N.V.} a <XAXLXBXPXPXHXxXvXvXJXLXLX",
"FXDXLXPXPXPXPXPXnXmXDXFXIXUXMXZXpX;.;.q.r.u.i.+.6 d  X`.}..Xx.F.G.G.F.m.P.R.U.E.W.W.Y.R.U.V.S.V.V.w.*.iXIXLXHXNXNXHXxXvXJXJXPXLX",
"FXIXFXnXUXBXMXUXUXFXDXSXZXyXuX1X2Xe.q.y.u.u.r.7.u g !.~.-X@Xm.P.L.K.m.m.P.T.P.T.H.W.Y.R.I.K.P.K.V.e.=.1XpXmXMXKXKXHXGXJXGXLXGXPX",
"JXlXDXIXFXVXKXlX7XKXCXaX1X;.;.w.y.y.y.*.5.r.i.i.8.0.} %.L.H.Y.U.A.n.R.R.b.-.*.} ;.m.U.R.T.I.Y.m.C.e.e.yXSXZXAXGXvXJXLXIXLXGXKXvX",
"IXAXLXLXVXCXIXCXIXmXuXZX,X0.w.9.u.u.r.+.*.8.r.u.u.r.+.*.K.F.:XR.P.D.Y.U.m.;.=.:.e.N.P.P.T.T.W.m.B.C.n.,XyXDXDXvXxXJXAXLXPXLXcXcX",
"BXPXBXhXKXGXmXDX<X=.0.s.i.9.i.y.y.o.` } +.8.r.u.u.M.p.Z.T.I.2X1XH.Y.b.w.:XyX1XuXI.w.N.S.m.R.Y.Z.D.B.N.K.z.qXAXKXvXvXLXLXLXLXcXzX",
"PXBXPXKXxXLXIXaX#X8.i.r.i.r.y.q.w.} t } #.5.i.u.u.p.M.Z.E.*XiXiXR.R.e.*.<XZXAXZX#X*.a.D.A.R.Y.Z.D.B.K.n.;.qXDXgXvXJXAXIXPXPXcX9X",
"NXHXKXgXLXIX@X2.t.t.i.6.6.9.7.o.*.` _ ..@.8.i.y.q.b.A.m.z.H.R.:XP.V.E.:XyXBXNXnX>X:XP.q.s.S.Z.Z.D.C.S.-.a <XDXCXvXvXAXLXLXLXzX9X",
"HXhXGXIXSXaXI.;.e.0.9.5.+.O.o.o.X.' ' X.5.9.y.y.b.q.H.m.m.H.T.R.S.A.:X<XtXvXjXhX6X2XI.:.s.P.D.B.D.S.n.:.a =XIXJXvXCXLXLXLXLXbXzX",
"KXHXZXSX#XF.;.u { a u { ` ` ] ....' ' O.5.9.p.y.y.a.N.n.K.A.S.D.D.A.E.;X0X9X8XjXuXiX*XF.F.e.s.S.C.C.n.:X:XuXDXfXkXJXLXAXLXHXcXzX",
"7XIXSXpXL.0.o.` r r 7 r w q ) ' ' ' ' X.O.9.y.y.y.p.N.N.V.B.D.M.D.m.W.3X6X9X8XHXZXSX<X^.G.d.e.K.B.e.;.iXSXZXVXKXJXGXLXLXLXGXvXbX",
"aXDX+XG.=.@.....X.o.} | ` ) _ ) q 6 w y ` *.y.u.y.p.M.B.S.A.S.Z.Z.m.E.3X6XbXMXBXmXIX.Xk b <X#Xn.n.n.;.:XuXAXUXPXGXGXGXGXGXJXxXHX",
"DXSX<.i q t ..@.X.} | | | t _ e r 5 5 4 u @.r.r.p.p.M.M.S.V.V.A.Z.m.E.3XsXJXnXnXuXIX^.  0 CX2Xn.e.;.&.1XZXAXPXBXPXPXJXGXxXxXGXGX",
"0XhX/.+X+Xf.G.G.+XG.G.L.L.{ @.] a # # 4 w } 0.r.u.p.p.a.C.N.N.N.D.n.E.,XuXZXkXgXlXCX(.  = DX1XH.P.a a >XAXgXMXUXPXBXvXvXvXvXGXLX",
"9X9XcXKXUXIXPXIXIXAXIXJXqX| @.} a 5 # 5 w [ 5.6.u.u.p.y.N.M.N.N.S.B.T.:XyXmXVXlXlXlX!.  = IX1X*XI.7 @ =XIXPXMXPXPXBXxXxXvXxXLXLX",
"9X9XcXLXLXmXZXAXZXLXAXBXwX+X4.G.G.4 r r 6 } O.r.u.u.y.b.M.p.q.N.Z.A.H.H.1XSXuXIXFXKX(.  = IXsXeX-X$ o -XsXIXIXnXUXMXhXKXUXxXGXUX",
"9X9XvXLXLXAXAXLXIXUXUXUXmXmXAXZXSX;. .u q } O.9.r.y.q.q.y.y.9.e.-.-.;.2.<XZXAXmXtXvX^.  0 LXnXfX7X    6XDXSXDXIXMXKXKXhXhXUXPXfX",
"vXGXGXLXLXLXGXxXlX0X0XvXDXaXaX<X:X0.0.] y ` ] 7.r.y.a.r.r.0.2.<.J.F.G.J.<X<XaXuXSXDX/.* c GXjXgXOXc * ^.4X/.-XtXUXGXhXKXKXGXGXIX",
"AXIXLXGXHXcXbX9X0XlXlXFXSXpXiX;.0.t.t...t ` _ X.+.7.8.8.0.d.@X@XqXuXVXuX@X1.-XDXsXaX4XY /.KX5X~.R !.!.c = o . l.UXkXhXKXKXMXGXUX",
"SXSXLXGXzXzXzXzXKXaXpX1X,X,X1Xe.9.r.t...) ` _ ] 5.5.0.=.>.1.(.`.5X5XrXMX/.h.-XCXCXlX4X!./.8X5X}.~.R R k c o   !.GXJXKXhXfXUXHXVX",
"pXpXAXGXzX8XzXbXFXSX,X;.;.*.0.8.8.6.5.] _ _ _ ] ' ]  .>.h.h.oX5X}.}.}.}.5X4XjX7X7XlX0X4XOX5XoX`.}.X X X   . o !.JXvXvXGXGXGXLXGX",
"aXZXAXcXzXzXcXIXqXaX,X*.y.s.r.t.t.*.o.} _ ) t ) ' [ [ k R R XX[.'.{.|.`.oXoX5XjX8X0X0XoXoXXXoX|.`.+ . - . . - !.UXlXlXKXKXnXnXUX",
"SXAXGXcXzXcXGXAX1X*.w.w.r.6.5.5.+.] u y ) _ y q t _ y 8 R S ~ W ].Q / S '.[.'.oX|.{.}.{.|.'.[.E ).2 + }.cXxX4XFXCXJXJXkXGXGXLXMX",
"ZXBXPXKXzXhXZXSX:X*.a.w.w.5.O.O.O.] q q _ y 6 4 i t ) $.H F ~ / ^ ^ U U ~ ^ {.{.{.{.[.].].].].P ).< ; 5XUXKXIXIXCXJXvXJXKXGXLXLX",
"UXUXHXjXcXPXDXSX:X*.9.5.+.] ` _ ' ' q w q q 7 r 4 q _ e 8 , F G / ^ W W W ^ ~ '.[.]._.! P L I : 1 |.5XjXHXKXfXVXCXJXvXJXGXGXGXPX",
"rXNXcXjXGXIXDXuX#Xe.w.+.O.] _ ) ..' t y w q q 6 4 r e w p p h.J / ! ].].~ E ~ XX^ [.! / I U A B 2 8XHXjXjXUXfXIXJXvXvXxXJXGXLXJX",
"jXKXKXKXLXZX$Xz.F.*.+.X.] ] #...#.' t y q t _ _ 6 4 # 4 t e g , V C G P R S G / G ! S B A B C ].|.jXjXHXLXUXLXIXJXJXKXGXHXGXLXIX",
"cXcXjXfXIXZX@X%. .} ] _ _ [  . .#.) t u y ) ' ' y 4 # $ e 6 7 % , 2 D J G G G S S G V : : ; B jXjXcXHXUXMXIXUXgXGXGXcXKXKXHXJXIX",
"8XcXxXVXIXIXwX$X$X#X#X%X%X#X#X%X#X#.} [ ] @.O...#.u 5 @ # # % % , , < < 2 - > B B : B : B  X XjX8XNXHXGXAXLXLXLXHXHXHXcXxXGXGXLX",
"MXUXUXUXCXFXDXIXUXPXUXPXLXIXDXSXSX<.} X.} @.@.#.@.[ 7 # o . . X % % o X X + - > ; ; ; ; 1 8XPXUXKXKXGXCXDXZXAXUXPXHXHXHXHXGXCXCX",
"UXLXVXCXJXVXVXUXMXPXNXGXnXVXFXFXSXx.L.#XL.0.{ ` ` #.,.1.v D v d & 8 & & < 1 V A A A C C Z h.~.fXKXdXIXIXVXLXUXnXLXHXvXKXHXGXGXLX",
"DXCXCXCXJXJXxXGXPXUXPXGXGXxXkXlXvXUXIXPXLX4.r 4 e g 5XXX5X|.'. X1 , g s D G L ! _._./ I S ; N hXfXxXGXMXLXPXPXPXGXGXGXJXGXHXHXGX",
"AXCXCXJXvXvXvXxXUXdXPXUXgXGXKXgXvXgXeXeX$X3.b n M H ).E I L Z Z , & g M J E Q {.'.).W I U B Z 8XcXGXGXGXPXHXGXLXJXFXCXLXGXGXcXNX",
"AXJXFXJXJXxXHXxXhXUXGXnXUXPXfXIXsXDXIX3.>.+X4XXX{.~ J Z ; : ; ; 8 8 D K W XXoX9XoXXX[.].W U T jXNXGXHXHXNXHXHXGXGXCXGXJXGXGXvXNX",
"AXDXGXGXJXvXvXxXUXfXPXUXnXGXUXFXSX>X$X+X,.~.`./ ^ J D D + , + + 4 p K I Q XXOXOXXX'.].].W L E 5XcXGXGXPXPXHXPXLXGXCXCXCXJXGXHXcX",
"GXAXGXGXGXGXvXGXKXfXPXUXnXVXIXZXSX2.%.%X4X)./ / G f 8 8 @ X X . | s K I _. X X`.( ^ [.[.].E `.zXcXGXGXPXHXPXHXHXGXGXVXJXJXGXxXGX",
"GXGXJXGXGXGXHXxXGXUXCXfXUXIXmXIXaXd.g.+X&XT / G J M e e 8 * - * :.$.D A _.|.`.XX( ^ ].]._.P ).cXHXAXLXLXBXNXMXGXGXJXCXCXGXJXxXGX",
"GXGXGXHXGXHXGXGXUXdXLXUXgXZXUXuXZX2.s h. XZ ; , 8 p t g.>X>XaXiX|  .h : G Q ~ XX{.{.].! ! G R zXJXCXLXLXPXHXHXHXGXkXCXJXJXJXGXGX",
"GXGXGXLXHXGXHXGXKXKXGXCXDXAXZXaXaX,.$.h. XA ; f 8 p y  .2X;XiX1X%.g.h , L W E {.{.].! I P K H vXFXZXAXAXPXPXPXUXGXJXGXCXJXVXGXGX",
"KXcXhXUXPXMXUXGXxXKXGXVXIXDXuX3.4.u p K K ~ 0X5XmX<X3.@XFXsXc.G.yXmX>.h f : C I U L A B : + o k n eXIXIXnXPXUXgXGXKXfXJXUXfXGXUX",
"fXKXUXrXBXUXrXHXKXkXJXUXmXZXDX>.=.` e ,.F XX9X6XpX=Xl.(.7XtX+XG.uXZX=.[ h h D J G J C : + o o k z uXaXmXUXPXhXUXPX7XKXkX6XUXIXfX",
"HXvXHXUXBXBXUXGXxXKXJXCXAXLXmX>.*.] q 8 = R 4X.Xv.*XuXgXKX9XeXyXuXpX0.+.@.[ %. . .g.p # * k j l.l.;XsXaXLXLXPXHXGXKXGXJXIXGXGXPX",
"KXxXgXUXPXgXUXGXkXKXxXVXIXIXwX%.X.] ) e $ l.;X*Xk.@XIXhX8XzXZXpXSXaX;.o.+.X.=.@.#.#. .7 * z j l.x.=X-XFXmXMXUXhXxXKXdXKXUXgXGXUX",
"lXKXUXrXLXUXgXPXKX7XJXUXmXLXGXa u { #.#.i f.@X&.x x.lX7XgXhXyX>X-X1X=.@.@.u 7 @ # 5 4 @ $ j l +Xl.*Xc.4XIXIXhXUXKX7XKXMXdXUXUXnX",
"bXvXPXAXBXPXLXPXKXbXJXUXmXPXmXi r |  .$. .2.H.z.j k.CXvXhXmX>X,X>X<X=.` u r @ . @ @ @ # o j l x.x.x.l.sXIXLXMXKXHXNXUXHXxXPXPXHX",
"KXhXgXUXLXrXUXGXxXKXxXnXIXUXwXi 6 +X%X%X%XG.%.&.<.J.sX6X4X>Xc.Q.J.*X=.#.G.@X0 o # 6 7 j 3 Y k.&.k.x n iXIXAXUXjXcXUX7XKXUXfXMXUX",
"bXvXUXnXLXUXnXPXKXgXJXUXmXUXBX7 # wXUXLXDXx.* k.J.*XpXsX;X;Xk.v.H.H.| i $XDX,.@ 6 i r z z Q.v.j j 3 j =XIXVXgXUXKXgXUXcXgXUXPXMX",
"vXGXGXLXLXLXPXGXKXfXKXUXgXUXLX(.!.eXPXPXwX>X@Xx.z k.2X3Xc.c.v.z.;.;.+X+XwXBX<.5 w w a $ 3 <.n z z !.^.sXFXVXKXkXKXGXKXGXGXGXLXKX",
"GXGXGXKXGXKXGXGXfXUXVXdXUXUXdXnXkXKXPXPXUXPXuX/.* k.;X3Xc.c.J.J.{ %.<XLXPXPX3.6 [ 6 4 @ $ k j * 3 gXIXIXCXIXIXPXGXGXLXGXGXHXGXGX",
"GXGXLXGXGXLXKXIXUXdXGXUXdXnXUXGXIXIXrXMXPXPXmX-XY ^.c.c.<.&.:.;.| :.yXIXtXmX3.6 w u 7 @ $ k z x.l.IXIXlXVXVXnXGXLXHXLXGXGXPXLXGX",
"GXLXKXGXGXGXGXGXUXfXGXUXGXfXGXVXDXIXUXUXPXNXKXJXIX^.0 k l %.u r { a <XIXmXPX3.r { =.a $ $ * z pXIXkXtXIXJXGXUXGXHXGXKXGXGXJXGXGX",
"KXLXIXKXGXGXGXGXgXUXGXfXUXUXgXIXaXaXkXNXNXjX9XbXKX4Xm ,.s | ` } 2.2.eXSXIXUX>.6 u | a l b 1.l.iXIXJXIXUXGXPXUXfXHXLXGXPXIXGXGXJX",
"GXGXGXGXGXGXPXGXLXMXGXGXkXUXUXFXSXpXUXHXcXcXzXbX6XIXKX$Xr u X.=.aXAXIXIXPXUX4.i | { G.KXAXIXDXSXtXUXUXfXJXfXhXUXHXKXGXGXGXGXJXLX",
"GXGXGXGXLXGXLXGXJXUXGXfXGXGXfXLXpXpXUXNXjXjX9XvXlXFXIX$X6 u @.@.wXBXLXAXMXBX4.6 { a 3.DXmXBXIXnXUXLXKXhXUXhXMXUXHXPXGXGXGXLXGXIX",
"PXGXGXPXKXGXHXGXxXUXGXGXUXGXVXUXFXZXUXcXjXKXlXlXDXeXDX<Xr r *.2.mXPXMXUXLXKX3.4 r :.3.pXIXIXgXUXUXdXUXLXGXHXUXgXHXGXPXGXHXJXJXJX",
"GXGXGXGXGXGXGXJXPXVXGXUXVXGXUXGXUXUXrXPXUXdXCXSXiXiXpX@Xa a ;.2.mXrXUXUXmXsX3.7 | a x.pXpXaXnXPXdXUXGXfXUXHXrXUXHXHXGXGXGXJXGXCX",
"LXKXLXPXPXKXLXPXxXUXGXfXUXPXfXUXgXUXBXPXNXGXSX=Xk.@X1X1XsXyX1XpXLXPXxXlXm x &.J.G.z.J.,X;X>X4XKXPXGXPXUXGXHXUXUXPXPXPXPXKXLXGXLX",
"GXKXGXGXGXGXLXGXLXGXLXPXGXGXGXLXMXPXPXPXPXIXIX=Xl.c.;X<XpXiXiXaXtXlXtXDXk.j k.z.H.G.J.3X3X3X-XKXJXIXGXfXGXfXhXGXGXGXGXGXLXJXGXJX",
"GXGXGXGXGXJXGXJXKXfXKXUXfXGXUXGXPXPXNXGXfXnXVX/.k n *Xx.x.^.4X4X4XsXCXaXj o x z x x j.Q.Q.3X4XhXGXIXGXVXUXPXfXPXKXGXGXGXGXGXGXJX",
"LXPXIXKXPXGXPXKXVXUXGXfXUXPXkXUXNXNXPXJXKXHXNX/.0 b ^.1.x.^.4X7XOX.XCXFXk o * z j x &.k.x.3X6XHXIXtXJXUXfXGXUXkXKXLXPXLXLXLXKXLX",
"GXGXGXGXGXGXGXGXGXPXHXGXPXGXGXPXPXMXGXlXhX!.v , f d b n -X/.c < v c -XtX.Xc.n j <.l.k.x.l.b M HXJXCXFXCXFXkXGXVXGXKXGXGXKXGXGXGX",
"GXGXGXGXGXGXGXGXUXfXLXUXfXGXUXMXUXMXlXlXbXv + ; 2 , = m tX/.d & + - (.-X-XZX!.0 1.x.x.^.Y = < MXgXIXCXlXUXIXdXUXGXGXGXGXGXGXJXJX",
"GXGXPXGXLXKXGXGXGXUXGXfXUXKXfXUXMXUXJX6XbXF ; : 1 , < k M m v K ).~.eXmXrXrX1.d 0 0 0 k d < v }./.-XtXtXFXCXVXGXHXLXGXKXLXGXKXLX"
};
