/* XPM */
static char *_a7221c6437e4b019ca7063b7158ce47whTXSaut9aWIhvfs[] = {
/* columns rows colors chars-per-pixel */
"64 64 252 2 ",
"   c #070202",
".  c #1C1B1C",
"X  c #181517",
"o  c #140D09",
"O  c #2A1806",
"+  c #341A08",
"@  c #231D1B",
"#  c #2B1D1B",
"$  c #261B13",
"%  c #341D15",
"&  c #39230B",
"*  c #2C231B",
"=  c #27231A",
"-  c #33231B",
";  c #382718",
":  c #362916",
">  c #1B1B25",
",  c #261E27",
"<  c #1C2430",
"1  c #242423",
"2  c #2A2423",
"3  c #2C2A25",
"4  c #24232A",
"5  c #2B262B",
"6  c #2C2B2C",
"7  c #262927",
"8  c #332A23",
"9  c #332C2C",
"0  c #382925",
"q  c #3C332B",
"w  c #383229",
"e  c #2C2B33",
"r  c #2A2B37",
"t  c #322C33",
"y  c #362F3A",
"u  c #2E3338",
"i  c #333233",
"p  c #3B3434",
"a  c #3D3A34",
"s  c #34333A",
"d  c #3C3B3B",
"f  c #39373A",
"g  c #2D322B",
"h  c #1E211A",
"j  c #432915",
"k  c #49341A",
"l  c #523419",
"z  c #462C26",
"x  c #433329",
"c  c #493729",
"v  c #543B26",
"b  c #463A37",
"n  c #553D36",
"m  c #562E22",
"M  c #653A30",
"N  c #3C4137",
"B  c #59442A",
"V  c #49433A",
"C  c #58473A",
"Z  c #5B533E",
"A  c #684838",
"S  c #734B3D",
"D  c #695438",
"F  c #74563C",
"G  c #67482C",
"H  c #3C3B44",
"J  c #373845",
"K  c #2C3549",
"L  c #443C45",
"P  c #4D3F4A",
"I  c #3E414B",
"U  c #3D4B65",
"Y  c #474648",
"T  c #584B47",
"R  c #595349",
"E  c #4A4A54",
"W  c #58565A",
"Q  c #4E5154",
"!  c #664C43",
"~  c #784D45",
"^  c #685547",
"/  c #785849",
"(  c #685A54",
")  c #785C56",
"_  c #7B6549",
"`  c #68635B",
"'  c #796657",
"]  c #78715F",
"[  c #595A64",
"{  c #4C5267",
"}  c #635F64",
"|  c #5D6470",
" . c #686567",
".. c #776A67",
"X. c #6A6975",
"o. c #777678",
"O. c #747074",
"+. c #5C625E",
"@. c #8E613B",
"#. c #82594C",
"$. c #895C54",
"%. c #86654C",
"&. c #976D4A",
"*. c #9A724C",
"=. c #886757",
"-. c #936B5C",
";. c #956A58",
":. c #88745C",
">. c #95735E",
",. c #9A7658",
"<. c #8C724D",
"1. c #A67B56",
"2. c #AF7D48",
"3. c #896B64",
"4. c #956C62",
"5. c #9A6C64",
"6. c #9A6B66",
"7. c #8B7566",
"8. c #947363",
"9. c #9C7464",
"0. c #9D736A",
"q. c #9C7B6C",
"w. c #977A65",
"e. c #837A76",
"r. c #977C75",
"t. c #826D72",
"y. c #A47C63",
"u. c #A3746A",
"i. c #A47B6B",
"p. c #A97969",
"a. c #AB7C74",
"s. c #A57B73",
"d. c #B27D74",
"f. c #A36D63",
"g. c #9B835A",
"h. c #AD874F",
"j. c #B8874D",
"k. c #BC924F",
"l. c #AE8A51",
"z. c #AB8559",
"x. c #B48454",
"c. c #B48C54",
"v. c #BB8C55",
"b. c #B2865B",
"n. c #B58B5B",
"m. c #BB8D5A",
"M. c #BA8655",
"N. c #B69057",
"B. c #BD9255",
"V. c #BB915A",
"C. c #B7945C",
"Z. c #99856C",
"A. c #8C837A",
"S. c #978376",
"D. c #8F8169",
"F. c #AC8A63",
"G. c #A4836C",
"H. c #AB836C",
"J. c #AB8C6C",
"K. c #A78565",
"L. c #B38B64",
"P. c #BA8D62",
"I. c #B38B6C",
"U. c #B38667",
"Y. c #A9946B",
"T. c #BB9264",
"R. c #B79468",
"E. c #AC8373",
"W. c #A88776",
"Q. c #B18474",
"!. c #B4857B",
"~. c #B38B7B",
"^. c #BA8C7D",
"/. c #B78875",
"(. c #A89677",
"). c #B89677",
"_. c #B7A37B",
"`. c #C18D53",
"'. c #C18E5C",
"]. c #C19356",
"[. c #C3945A",
"{. c #C89759",
"}. c #C28D4F",
"|. c #C39466",
" X c #C69A79",
".X c #C28A7B",
"XX c #C9A27C",
"oX c #7B7A85",
"OX c #6E7792",
"+X c #5C6880",
"@X c #887C89",
"#X c #7B838F",
"$X c #7889AA",
"%X c #88878A",
"&X c #968B86",
"*X c #99948C",
"=X c #8B8B95",
"-X c #8C9199",
";X c #969598",
":X c #998A95",
">X c #AC8C84",
",X c #B88B83",
"<X c #A89687",
"1X c #BD9482",
"2X c #B99886",
"3X c #A59A97",
"4X c #BE9E93",
"5X c #A9A39C",
"6X c #B5A698",
"7X c #BBA685",
"8X c #999AA5",
"9X c #939CB9",
"0X c #8691AC",
"qX c #A79BAA",
"wX c #98A2B7",
"eX c #A7A5A8",
"rX c #B5ABA7",
"tX c #B9B4AD",
"yX c #A7A9B5",
"uX c #B9B7B7",
"iX c #B3AEB5",
"pX c #C29485",
"aX c #C89A88",
"sX c #C79B93",
"dX c #CD978E",
"fX c #C9A486",
"gX c #D5AA8B",
"hX c #C6A798",
"jX c #D7A997",
"kX c #D7B492",
"lX c #C6BCB7",
"zX c #CDB2A7",
"xX c #BCC2B6",
"cX c #C8C5BD",
"vX c #D2C9BE",
"bX c #F6CBAE",
"nX c #8F9CC6",
"mX c #9BA9C7",
"MX c #99ABD5",
"NX c #97ABD8",
"BX c #A6ACC8",
"VX c #A8B2C4",
"CX c #A7B6D8",
"ZX c #B9BACA",
"AX c #A3B6E4",
"SX c #C6BBC3",
"DX c #BBCBEF",
"FX c #CAC9C6",
"GX c #C6C4D4",
"HX c #D6D1CC",
"JX c #CFD6F1",
"KX c #DBDDE1",
/* pixels */
"l.l.l.l.l.l.l.N.l.l.l.N.l.N.l.l.h.l.m.x.2.j.v.j.v.T.XX_.Y.' V b c : w g 6 y y y s 7 a 1 g = p 3 N w Z _ ] Y.(.Y.g.R.Y.g.Y.g.g._.",
"c.l.l.l.l.l.N.l.N.N.l.N.N.l.N.N.c.x.m.v.j.j.v.j.N.T._.Z._ C V V q g a q t t t y +.e. .` +.o.o. .7.] A.D.Z.(.Z._.Y.Y._._._._._.Y.",
"l.l.l.h.l.l.c.c.l.N.N.l.N.N.N.C.V.x.v.V.j.j.k.h.T.R.z.F B V T V V q V p t t 9 f  .` A.tXe.` V rXA.Z R Z.S._ v (.(._.Y._ Z Y.(.B ",
"N.N.l.l.l.l.N.N.N.l.N.N.N.N.C.C.V.x.c.m.h.j.j.c.T.*.D k V C Y Y V N a g 9 t q T ] D.R 6XA.Z V &X7.` ` *XD.' B 7.g.Z.D.' D (.D.V ",
"N.l.l.c.c.c.N.N.l.l.N.N.N.N.N.N.V.c.v.v.j.l.C.R.h.D k k V V Y N Y d p g a a w C A._ ] D.t.3.M @XA.R ! 3Xr.c x 3.7.D.:.D.Z.(.A.D.",
"N.N.N.c.c.N.N.N.N.c.N.N.N.N.N.N.c.j.v.c.c.C.T.R.D v & V V g s Y Y V N i b b : C D.Z.:._.,X$.3.@XS.&X&Xr.r.7.7.7.' <Xr.=.D.7X(.5X",
"N.c.N.c.c.N.N.B.B.N.N.N.B.N.N.N.v.j.v.c.l.R.C.<.l k : w g g s I Y Y Y N V w w ^ Z.Z.Y.%.3.s.~ z $.3.t.z ) ) c ! C >X6XS.2XzXtXhX",
"B.N.c.N.B.N.B.C.C.B.C.B.N.C.C.B.B.B.v.c.c.R.l.F & : : = g a I Y Y Q Y a N w B D.7X_.G.fX~.,XsXsX>XhXzX% t.>X% m S.2XhX2X6X(.7XkX",
"N.m.N.B.c.c.n.V.V.V.V.V.N.c.V.V.B.B.B.c.h._._ k & : - 6 g s f H I N s a a w C <.7X_.(.fXjX8.3.zXsXs.>X~ ) r.z ) W.4X4XzXpXW.Q.kX",
"c.V.N.m.c.c.B.N.N.B.N.V.V.V.V.B.].k.B.N.z.).D : $ * 3 3 e u u s u g g i q w C ] _.kX_.Z.1XsXpXsX,Xs.2X2X,X,Xr.sX2X4Xi.4XgXgXfX X",
"m.V.V.c.v.c.B.V.V.V.m.V.V.V.V.V.B.B.N.C.R.z.k O * * 2 3 6 e e e 3 7 7 g 9 - b _ 7X7X_.(.2XhXsX4XpX2X,X2X>X>X>X3.r.,X~.fXkXgX XP.",
"c.B.V.m.c.v.v.m.V.V.V.V.V.V.V.B.k.k.l.C.R._ & O * * 2 9 6 5 5 , 1 1 4 3 9 3 w T D.D.,.Z.%.A C ~ 0.6.~ A ' 7.' & ; A / G..X.X|.1.",
"m.N.m.v.c.v.m.V.B.V.V.V.V.V.[.V.k.k.N.C.l.B O * * * 3 6 , , # @ 1 1 = 7 i 9 0 q q B G B : + + + z z + % n b - w & & j D z.z.P.b.",
"v.V.V.N.m.c.c.V.B.V.V.T.V.V.V.V.k.{.k.C.g.k & ; = * 2 2 , # # @ h = = g i s 9 0 = * ; : ; c c q : z z $ 9 q o 0 b w j / R.U.b.b.",
"B.n.m.c.c.v.v.V.N.V.V.[.|.V.[.V.k.k.C.C.*.& & * # 2 2 , # # $ $ $ = 7 = 9 t t y V q x V Z C V c ; x w $ g Y g * = $ : D Y.K.P.b.",
"c.B.m.V.c.v.c.V.c.V.V.V.[.[.[.B.k.l.N.C.<.& & # 2 2 2 * # # # # $ = 3 = , 2 5 x x V C ^ ' ' ^ D V 0 * q 3 h g 7 g 8 : B ,.z.R.2.",
"V.c.c.V.v.c.v.].B.V.].V.].].].].}.k.C._._ & = h 1 1 . @ 0 2 # 0 * * * 2 0 0 x n C ! ' 7.7.7.' / A x % - 5 5 2 9 3 $ : k ,.R.l.l.",
"V.n.c.m.V.c.v.V.v.V.].].].].{.].{.k.l.F.D O = = = 1 = 3 0 0 # % * - 8 x x c c n / =.7.q.Z.q.w.=.D v - - - 2 5 5 8 * : k g.R.l.l.",
"V.V.v.V.m.c.v.[.v.V.].[.V.m.].].k.k.C._.F : = = = 1 9 q q 0 - z x 0 0 x n n ^ ) 3.q.G.W.W.W.q.w.' C j # # 2 5 5 6 8 O k K.R.h.l.",
"N.n.V.V.V.v.V.[.B.B.B.].].].].].].{.C.z.B O O 8 3 - q c b c n n ^ C C ! / =.4.q.W.W.~.Q.~.Q.H.w.4.~ c - # # 2 5 8 8 O k K.F.h.n.",
"V.C.V.[.V.m.B.[.B.B.[.V.[.].].{.].].R.z.F k $ ; w ; c Z ^ / =.3.3.3.=.7.s.W.W.W.1X,X,X^.1X).~.q.w.) n 0 % , , # 8 0 O B K.C.h.l.",
"T.V.V.V.V.B.V.[.V.V.[.{.[.[.].{.}.B.|.|.).:.z - x w Z ' :.S.2X>XW.7.3.3.w.W.,XsXsXpX1XpXpXaX^.E.q.3.^ m % # # # - ; O F K.F.b.h.",
"V.V.V.V.V.B.V.[.V.[.{.[.[.[.{.{.{.{.m.1.K.-.v k k c ' (.(.1XfX2XW.q.=./ ~ / 9./.~.1XpXpXaXpX1X~.W.r.' P z # # % - ; + <.F.b.T.h.",
"V.V.V.V.V.V.].|.V.[.[.[.{.[.|.{.{.{.|.b.K.;.v c j B :.fX2X).).H.Z.Z.w.' G M A / u.Q.1X1X1X1X).^.,X>Xr.) b % $ $ ; ; & w.F.U.|.h.",
"V.T.V.V.V.V.[.[.[.|.{.[.|.{.{.{.{.`.m.P.U.H.A v j F K.).gX XI./.W.W.W.Z.q.-./ D %.y.~.~.G.,.,.9.q.3.3.3.! j - O j + D ,.J.n.P.M.",
"C.V.V.V.V.V.[.|.[.[.[.{.{.{.{.{.{.}.m.P.p.y.F G l %.).gXkXXXU.y.:.:.:.>.>.=.%.#.=.q.~.W.9./ A v A A ~ / ! c ; + + M ,.R.R.b.n.m.",
"m.V.V.V.V.V.V.[.V.{.[.[.[.[.{.{.{.{.'.P.U.;.;.F v <.).kXkXkX XI.>./ D A S D F =.-.i.~.i.%.F ~ / A ~ ) ) / n & + j %.). XP.b.x.M.",
"V.V.V.V.V.V.[.[.B.V.C.{.[.].].{.{.|.'.P.|.;.y.=.G ,.fXfXgXjXgXfX2XZ.=.%.%.=.-.p.-.W.1Xu.#.F =.w.0.>X0.8.4.A + j F z.).T.n.n.x.M.",
"n.V.V.m.B.V.[.[.V.[.].].].[.].].}.{.'.P..Xp.I.,.&./.gXfXfXgXgXgXaX2X,X~.~.~.!.a.f.d.dX,X-.~ ~ S 4.0.4.i.G.A j G ,.I.L.z.n.M.x.M.",
"C.V.V.V.c.V.V.[.B.B.V.[.[.B.].].}.{.'.|.fX XaX1.,.).gXfXXXXXdXfX2XaXaX,X^.!.Q.u..X.XdX.Xa.-.~ M M ~ / G.~.F l *.F.L.n.n.m.M.x.`.",
"n.N.V.m.m.V.].[.V.V.].].[.[.].].`.{.'.|.XXbXgXQ.y.).aX X XaXaXfXjXhXpX^.d.d.d.d.dXdXdX@X!.!.a.-./ %.-.~.).%.F J.F.F.P.T.m.M.M.j.",
"m.V.B.V.V.v.V.[.[.].].[.].[.].].{.'.'.P.XXbXgXQ.I. X).R..X X.XaXpX^./.d.d.f.u.d.dXjXjXdXd.pX^.d.!.Q.Q.1X).*.&.).R.l.b.v.x.'.'.2.",
"k.B.B.B.v.v.`.'.B.k.k.].].{.k.B.'.|.|.|.|.gXkXU.I.I.I././.).).~.pX/.Q.p.u.p.d.dXdXdXjX.Xd.dX.X XdXdXXXdXXX@.b.n.n.M.c.M.m.m.2.M.",
"v.M.k.v.`.`.'.'.B.B.[.[.B.B.B.B.'.'.'.'.'.|. X1.U.U.F.H.J././.Q.Q.p.u.u.u.d.pXdXpXdXjXdXd.d..XdXdXdXdXXXgX@.m.M.m.m.M.c.M.m.U.M.",
"V.v.V.v.m.'.'.'.`.v.B.[.B.B.B.B.{.'.'.|.'.M.P.1.1.1.1.p.K.p.H.H.a.a.a.p.u.$.#.#.f.d.d.d.d.f..X.XaXdXgX X X*.P.n.n.c.M.M.b.P.2.U.",
"V.V.m.m.'.'.'.'.m.`.C.].{.C.V.V.'.{.'.'.'.P.'.*.1.1.1.y.K.G.H.H.p.p.E.^.@Xf.$.~ ;.#.#.d..Xf..X.X.XdX X.X Xy.|.n.n.n.n.n.P.M.P.M.",
"T.T.'.P.'.'.|.'.'.M.'.'.'.V.'.].}.}.}.`.m.|.P.&.&.;.,.K.H.H.I.Q.i.u.u.E..Xd.p.f.5.$.S p..Xp.Q.H./. X.X/.R.P.R.n.n.n.n.n.n.n.b.b.",
"T.P.P.P.'.'.'.'.`.'.`.'.'.'.].'.j.}.}.M.v.T.T.%.&.;.,.y.G./.E.H.i.y.u.i.d.d.u.f.i.5.;./.^.p.p.y.H.U.U.p.I.R.T.b.n.n.c.n.n.b.b.b.",
"T.P.P.m.m.M.M.'.M.`.M.`.`.m.m.'.}.}.}.`.m.P.R.*.%.<.>.K.H.H.p.p.-.-.4.u.a.a.a.a.a.i.Q.~./.i.,.f.y.1.1.1.n.|.P.c.n.c.c.c.n.n.b.b.",
"P.P.m.n.m.M.m.M.`.`.M.m.'.m.V.].}.}.j.'.b.F.).K.=.%.>.q.a.G.y.,.;.$.#.) $.$.4.6.s.0.~.i.i./.-.,.1.*.*.1.1.|.b.M.v.v.x.M.v.M.x.x.",
"n.V.V.n.c.v.v.j.k.j.`.].v.V.m.].}.'.v.T.1.).).Z.A ] =.G.i.i.>.f.=.S A #.$.$.#.$.$.6.$.u.9.-.y.9.*.*.*.1.n.n.M.].m.M.M.j.`.j.`.2.",
"n.C.v.c.j.v.v.k.}.B.v.v.v.v.C.N.'.2.1.I.J.(.7.C 3.' ' 3.8.w.;.>.-.$.;.a..Xd.6.6.6.) ~ ~ -.5.i.1.1.&.*.z.|.|.x.*.M.M.j.M.`.M.}.}.",
"c.c.m.B.k.B.}.j.j.h.c.N.V.T.T.T.U.P./.).D.' C V rX....' 7.u.,.y.!.i.5.f.a.@X.X@Xs./ m M %.>.G.,.;.&.1.F.z.U.|.P.x.M.M.j.j.2.2.2.",
"c.c.v.c.v.B.B.k.B.N.c.C.L.F.F.F././.(.S.^ b b o.lX..t...3.q.9.y.u.u.5.0.f.d.d.6.,X$.M ~ =.-.u.9.;.%.J.gX).I.F.1.n.n.M.M.M.2.}.}.",
"c.n.V.m.c.V.V.c.N.l.z.z.F.).(.~.w.3./ W Y f H -XiXoX%X) ) 7.u.y.u.i.f.f.6.6.6.6.s.6.#.$.4.=.>.>.=.C ^ Z.G.G.(.K.K.U.n.1.2.2.M.'.",
"x.n.n.n.m.V.V.n.z.b.R.).).J.w.=.A P x L L J J 9XBX=X%X( ! =.,.p.pX1Xd.f.$.$.6.6.$.4.4.0.4.$.=.=.^ - * c C D :.G.H.I.U.F.1.2.2.1.",
"L.n.P.n.n.T.T.n.R.R.J.K.:./ n z x L L L I K K mXVX8X@X` ^ ^ %.f.!.,XpXpXd.f.f.$.$.6.6.0.5.$.#.A q p w w * * ; c =.w.G.J.L.U.d.M.",
"L.I.L.L.I.I.R.J.w._ A c z q x x L P L J I K K mXBX0X| X.( ! S %.u.d.,X@X@Xd.d.d.6.s.6.6.4.' ~ b 9 d i 3 9 p 0 # & c D =.8.G.H.Q.",
"K.I.).(.G.S.] C b q t t 5 L t L J J L L Y r I $XDX9X$XU O.( m / ) w.-.s.d.d.@X,XpX@X@X3.t.Y f 7 s e t f > 9 L , 9 @ 0 y - T T t.",
"J.K.>.Z.( C b p y J J J y r E L P H J y t < I VXCXNX9XOX@X3.! v D ! / 4.$.f.f.6.d.3.$.t.W r 7 r t e y > H , , , y t > , t t y 4 ",
"%.7XZ.c z 0 b L , W E r r 4 P r y H Y d H Q K $XCXMXMX0X@X@X..) A B ~ ( S 3.a.$.$.) ) @XY @ r r 4 L , E , 4 H r > , J r J , , J ",
"O <X7.w ( Q t f H [ E 4 E { r P E L r u I X.< $XDXNXnXnX0XO.t.hX( n n ! M P P ! P ..3XO., X 7 < e H > X e 4 4 > H X > X W 8Xy , ",
"c *XR &X3XeXo.eXeX-X .#X=X;X+.%XyXoXH f E =X{ DXDXDXNXnXnX+X..HXt.zXrXt.t.zX@X@X@XqXGX@Xi X. .o.y r =X| > E [ X.> [ X.Y 4 qXr r ",
"w 5X .lXX t H ZXI X.o.VX%X8XeX;X%X;XW 4 J 8X+XDXAXJXAXnXMX$XoXSXe.3X:XlXqXqXOXGXBXGXZXBX{ xX+.eXX.eXo.8XoXyX8XoX[ 8XoX8XP 0Xe 4 ",
"3 ;XQ yX[ #XX.yX< #X-X5Xo.oXo.+.+.eX .7 I wXOX$X$XJXAXNXCXCXyXZX@X3X@XSX@X9X{ CXAXJX@XBX{ 8X   .%XiXoX-X%X[ -X .-XiX[ uXW 8Xe e ",
"u eXY [ -X%XE O.r +.Q Q -X-XY #X%XeXE . Y #X{ OXnXDXNXNXDXJXJXZXSXqX@XGXqXJXmXJXGXJX@XBXoX8XX =XX.=XO.X.X.=XW FXoX8X[ -Xe 8Xe 7 ",
"u =X=Xr e > 4 y u 7 e g 1 7 7 7 N g g s 4 u K < $XMXNXNXnXJXnXL P @XoXL 9XDX@XAXmXmX| K { u . d u 7 oX+.1 E %XY o [ #XY e iXX u ",
"u r I 4 e H e r u f i 1 . g N g g h 1 e s r K K 0XMXCXCXMXOXU +Xy , y r U @XCXMXCX+X< < . I i 1 > u   e . e   4 i . > X +.=X7 . ",
"u s 1 4 7 s @ 2 7 6 3 g N h h g h V d 7 4 H r > { 0X0X0X{ OX0X{ X.P , J K > { @X#X| > u u o g g h 7 g 1 7 s g 1 1 7 7 1 f g 6 g ",
"h %Xp O. .t W lXW FXrX7 e.KXFXFXxXN g 5X@ e J J ;XwX0XBX| K | yXX.X.L { GXZXBXZX0X< 8Xu I Q h . *X%Xh e.i   O.*X  1 2 5XeXFX5X;X",
"R tXa 3X3XV ( HXtXe.vXA.e.FXHXxXHXZ N cX5 L 5 7 o.yXFX#X| u O.KX8X . .o.yXqX;XiX=XX FXa o.O.X ..HXFX%X` a @ T xX*X` X tX3XKXtXHX",
"W A.o $   % ( HXlXtXcXY o.xXxXFXrXN N rX, , b L 1 -X+.N I e 8XKXeXQ +.o.qXrX3XrX&X$ eXV o g 9 = 5XV *XA.w q lX5X] V o 5XtXHX3X*X",
"Z vXS.A.b w R lXC <XtXV o.HXFXxXcXN ) qX  ..tXw h vXN N Y R ` iX4 O.&Xo.5XtXeX6X..$ rXq x lXR R 5XR w o   5X]   o 3 q *X5XA.S.*X",
"c cX^ 6XzX' T zX3.HXHX+.A.iXxX*XvXY # vXrXvX` O 3 +.FXxXQ ` Y uX*XeXA.o.&XR ' 5X6X  <XlXlX&XX 3X' &XtXlXq T HX5XvXA.w <XcX<XrXtX"
};
