/* XPM */
static char *_f6cee3352dc4050aee4b13233255f61OfeM0U6fk2R9yjTq[] = {
/* columns rows colors chars-per-pixel */
"64 64 244 2 ",
"   c #010101",
".  c #0B0B0B",
"X  c #150D0C",
"o  c #110F11",
"O  c #141314",
"+  c #1A1513",
"@  c #1A1619",
"#  c #1C1B1B",
"$  c #161918",
"%  c #0E0F11",
"&  c #221D1C",
"*  c #211917",
"=  c #1C211C",
"-  c #26231D",
";  c #1C1D22",
":  c #211F21",
">  c #242324",
",  c #292525",
"<  c #2C2A27",
"1  c #25252A",
"2  c #2C2B2B",
"3  c #262829",
"4  c #312D2C",
"5  c #2D2C31",
"6  c #333334",
"7  c #3C3A3B",
"8  c #363637",
"9  c #2E312B",
"0  c #453C3A",
"q  c #41392E",
"w  c #584A37",
"e  c #4F4136",
"r  c #6A5638",
"t  c #3C4041",
"y  c #4A4A4B",
"u  c #464546",
"i  c #524A47",
"p  c #5B5249",
"a  c #535254",
"s  c #5A5859",
"d  c #4F5150",
"f  c #6C5E4A",
"g  c #635746",
"h  c #6A5E52",
"j  c #73654C",
"k  c #6C6259",
"l  c #776957",
"z  c #7A705A",
"x  c #646464",
"c  c #6C6D6C",
"v  c #776C65",
"b  c #7C7469",
"n  c #787776",
"m  c #6E706F",
"M  c #8A734D",
"N  c #84725B",
"B  c #897758",
"V  c #947B58",
"C  c #856B4A",
"Z  c #847464",
"A  c #8C7C63",
"S  c #8A7C6B",
"D  c #84776A",
"F  c #927F6A",
"G  c #857B77",
"H  c #907E72",
"J  c #99825C",
"K  c #A1855E",
"L  c #8F8269",
"P  c #958364",
"I  c #94836B",
"U  c #9B8868",
"Y  c #8C8478",
"T  c #938372",
"R  c #9B8B74",
"E  c #958B7D",
"W  c #9B8D7B",
"Q  c #938875",
"!  c #999176",
"~  c #A38D6B",
"^  c #A48A64",
"/  c #A3916B",
"(  c #AC996E",
")  c #AA926B",
"_  c #A59473",
"`  c #A4937C",
"'  c #AA9A7C",
"]  c #AA9875",
"[  c #B19D7C",
"{  c #B49974",
"}  c #AA9571",
"|  c #B4A27A",
" . c #BAA47A",
".. c #C1A87F",
"X. c #838383",
"o. c #8D8A88",
"O. c #948C84",
"+. c #948B89",
"@. c #9C9283",
"#. c #9C958B",
"$. c #949494",
"%. c #9B9A9B",
"&. c #9B9594",
"*. c #9A8B90",
"=. c #A39582",
"-. c #AC9B84",
";. c #A4968B",
":. c #A39A8C",
">. c #AA9B88",
",. c #A49996",
"<. c #B09F8B",
"1. c #ABA18B",
"2. c #B5A484",
"3. c #BBA986",
"4. c #BCAA8B",
"5. c #B7A589",
"6. c #ABA397",
"7. c #B2A394",
"8. c #BBAB94",
"9. c #B6A99A",
"0. c #BDB09F",
"q. c #AD9EA1",
"w. c #A3A3A3",
"e. c #ACA3A3",
"r. c #ACACAB",
"t. c #B5ACA3",
"y. c #BCADA1",
"u. c #B5ABA9",
"i. c #BDB2A8",
"p. c #B3B3B3",
"a. c #BBBBBB",
"s. c #C1AA84",
"d. c #C2B28D",
"f. c #CBB28C",
"g. c #C5B489",
"h. c #C2AF92",
"j. c #C2B193",
"k. c #CBB492",
"l. c #CBBA94",
"z. c #C5B49A",
"x. c #C9BB9D",
"c. c #D1BB95",
"v. c #D2BC99",
"b. c #D4BA87",
"n. c #CCBCA4",
"m. c #C5B7A8",
"M. c #C6BBB6",
"N. c #C9B7AB",
"B. c #DBC49C",
"V. c #DBC69A",
"C. c #E3C48C",
"Z. c #EBCD94",
"A. c #E3CA9B",
"S. c #E6C998",
"D. c #EED19D",
"F. c #F2D29A",
"G. c #D4C2A4",
"H. c #DDCBA4",
"J. c #D4C4AB",
"K. c #DBCBAB",
"L. c #D9C5A7",
"P. c #CDC3BC",
"I. c #C9C3BA",
"U. c #DACBB3",
"Y. c #D5C9BB",
"T. c #DBD1B9",
"R. c #CCC2A6",
"E. c #E3CDA4",
"W. c #E4CEAB",
"Q. c #E9CEA7",
"!. c #E5D1A6",
"~. c #E4D1AB",
"^. c #EBD4AC",
"/. c #EBD1A1",
"(. c #F2D5A4",
"). c #F3DAAC",
"_. c #F5DAA9",
"`. c #E0CDB7",
"'. c #E3D2B2",
"]. c #EAD6B3",
"[. c #EDDAB5",
"{. c #EDDBBB",
"}. c #E6D5BB",
"|. c #F4DDB7",
" X c #F7E3B8",
".X c #C2C2C2",
"XX c #CCCBCC",
"oX c #CDC6C2",
"OX c #D6CBC6",
"+X c #DBD3CB",
"@X c #DDDDDD",
"#X c #D5D4D3",
"$X c #D3CED1",
"%X c #E2D2C1",
"&X c #E3D3CB",
"*X c #ECDBCD",
"=X c #EAD9C7",
"-X c #E5DDD4",
";X c #ECDCD4",
":X c #ECDDDB",
">X c #E5D8D5",
",X c #F1DEDB",
"<X c #EAD7CD",
"1X c #F8E6C6",
"2X c #EBE1D6",
"3X c #EDE3DC",
"4X c #E7E2DD",
"5X c #F4E3D4",
"6X c #F8E5D5",
"7X c #F3E3DD",
"8X c #FAE6DE",
"9X c #FAE9D9",
"0X c #FFF5DE",
"qX c #E4E4E4",
"wX c #EDE4E2",
"eX c #ECEBEC",
"rX c #F3E5E3",
"tX c #FAE6E2",
"yX c #F4EBE3",
"uX c #FBECE5",
"iX c #F3EDEB",
"pX c #FAECEA",
"aX c #EEF0EE",
"sX c #FCF2E5",
"dX c #F4F2ED",
"fX c #FDF4EC",
"gX c #FEFAEC",
"hX c #FFF8E6",
"jX c #F4EEF5",
"kX c #F5F4F4",
"lX c #FBF5F3",
"zX c #FEFCF5",
"xX c #F6F5F9",
"cX c #FBF6FC",
"vX c #F6F9FA",
"bX c #FEFAFF",
"nX c #FFFDFF",
"mX c #FFFEFF",
"MX c white",
"NX c #FEFFFF",
"BX c #FEFEFE",
"VX c #FFFFFE",
"CX c #F4F9F6",
"ZX c #EEEEF1",
/* pixels */
"MXMXMXMXMXMXMXMXMXMXMXMXMXMXMXMXvXBXBXBXBXvXxXMXjXbXbXcXbXbXcXjXbXMXMXvXMXMXvXMXMXBXMXMXbXMXMXcXMXMXMXMXMXMXMXMXMXMXMXMXMXMXMXMX",
"MXMXMXMXMXMXMXMXMXMXMXMXMXMXMXMXBXvXBXBXxXBXMXjXMXbXjXbXMXcXcXbXMXbXxXvXMXcXkXMXvXBXBXMXMXvXbXMXMXMXMXMXMXMXMXMXMXMXMXMXMXMXMXMX",
"MXMXMXMXMXMXMXMXMXMXMXMXMXMXMXMXBXvXcXbXBXvXjXMXiXMXMXzXzXzXzXqXBXBXBXzXCXBXzXxXMXzXzXBXMXbXbXMXMXMXMXMXMXMXMXMXMXMXMXMXMXMXMXMX",
"MXMXMXMXMXMXMXMXMXMXMXMXMXMXMXMXjXMXMXeXvXMXzXzXzXsX%XP.m.1.1.R.>.:.;.#.6.Y.gXzXzXzXzXCXMXMXbXbXMXMXMXMXMXMXMXMXMXMXMXMXMXMXMXMX",
"MXMXMXMXMXMXMXMXMXMXMXMXMXMXMXMXbXjXcXMXzXzX3XM.9.>.R -.8.3./ _ x.T.! j Q z g 1.T.hXzXzXzXzXbXBXMXMXMXMXMXMXMXMXMXMXMXMXMXMXMXMX",
"MXMXMXMXMXMXMXMXMXMXMXMXMXMXMXMXcXlXcXpXM.:.:.` =.x.x.[ ( | | ( _ ( 8.3./ 2.8.! ! i.sXzXzXvXMXMXMXMXMXMXMXMXMXMXMXMXMXMXMXMXMXMX",
"MXMXMXMXMXMXMXMXMXMXMXMXMXMXMXMXzXuXi.D D 7.5.A 4.] / g.^.D. .^ ( V.V.U | | ] | L L m.fXzXzXMXMXMXMXMXMXMXMXMXMXMXMXMXMXMXMXMXMX",
"MXMXMXMXMXMXMXMXMXMXMXMXMXMXMXzX<XH >.`.4.R z.L.U c.B.( J ( V._.V.J | ).| / R.4.-.f Q -XBXMXMXcXMXMXMXMXMXMXMXMXMXMXMXMXMXMXMXMX",
"MXMXMXMXMXMXMXMXMXMXCXMXBXxXMXdX1.4.' ' {.K.P 3.L.) ) Q.A.s.^ ^ V.[.| J f...) v.}.F h q.iXbXcXMXMXMXMXMXMXMXMXMXMXMXMXMXMXMXMXMX",
"MXMXMXMXMXMXMXMXMXBXMXMXxXzXkXOXj 4.4.2.U j.[.| ~ f.v.^ ) Q.|.c.J ^ V./...{  .} -.v.F p BXMXMXvXMXMXMXMXMXMXMXMXMXMXMXMXMXMXMXMX",
"MXMXMXMXMXMXMXMXBXBXxXkXkXMXMXY.r P 3.2.H.] [ {.k.2.b.v.s.V U f.f.{ V M V K V C M F N 0 oXdXMXCXMXMXMXMXMXMXMXMXMXMXMXMXMXMXMXMX",
"MXMXMXMXMXMXMXMXBXBXMXBXMXCXMXo.=.B N P P 4.B B V r r w B { U J M f.f...S.f.{ ^.W.5.z.z.Y zXzXBXMXMXMXMXMXMXMXMXMXMXMXMXMXMXMXMX",
"MXMXMXMXMXMXMXMXBXMXMXvXMXMX@Xo.pX,X8.f N U 1Xn.N V L.`. X].~. X1X|.^.^._.).(./.^.|.{.U.S Y.yXCXMXMXMXMXMXMXMXMXMXMXMXMXMXMXMXMX",
"MXMXMXMXMXMXMXMXMXkXzXxXqXMXr.M.cX,X8XzX7.H 7.6XL.5.].v.!.[.!.V.E.c.!.[.V.A.(.V.Q.Q.].K.J.Q gXCXzXMXMXMXMXMXMXMXMXMXMXMXMXMXMXMX",
"MXMXMXMXMXMXMXMXMXBXMXMXMXqXX.p.q.*.q.*.M.7.;.gXn.U {.Q.!.H.A.H.A.E.Q.E.A.S.D._.(.b.Q.~.=Xz T.gXzXMXMXMXMXMXMXMXMXMXMXMXMXMXMXMX",
"MXMXMXMXMXMXMXMXxXMXkXkXMX&.$.a.M.$XOX$XN.M.;X`.%XF `.`.H.H.[.[.'.W.!.Q.A.D.Z.Z.S.S.|.H.K.R.1.gXMXMXMXMXMXMXMXMXMXMXMXMXMXMXMXMX",
"zXMXzXMXMXMXMXMXMXkXMXBXlXo.#XzXsX-X#XdXzXtXM.;.gXW n.G.1Xn.' L G.{.'.H.A.Z.F.Z.Z.F.(.l.1XU.Q zXzXMXMXMXMXMXMXMXMXMXMXMXMXMXMXMX",
"zXMXMXMXMXMXBXMXMXvXBXzXyXs ,.O.Y Y Y v e.zX,X;.6Xn.I sXS k 2X7.=.n.{.Q.S.Z.Z.Z.Z.C.A.!.'.T.Z zXMXMXMXMXMXMXMXMXMXMXMXMXMXMXMXMX",
"MXMXMXMXMXBXMXBXMXMXlXvX-Xn i Y w :.6.O.k G &XN.pX*XR ` Z 0.7.5XI 4.{.Q.A.D.C.Z.F.C./.!.~.T.z gXzXMXMXMXMXMXMXMXMXMXMXMXMXMXMXMX",
"zXMXzXMXMXBXMXBXCXMXzXxXMXM.#.2XY.- p &.*.*.D >X*XT.=.W 8.+Xm.7.Q 2.].B.S._.C.F.Z.V.).!.T.{.k gXMXMXMXMXMXMXMXMXMXMXMXMXMXMXMXMX",
"MXzXMXMXMXMXBXBXBXBXBXzXzXG oX@.M.8 s v ,.&Xu.<X8XhXj -.w l y.W R 2.].B.A._.C.D.Z._.A. XT.T.z zXMXMXMXMXMXMXMXMXMXMXMXMXMXMXMXMX",
"MXMXzXMXMXBXBXMXBXMXCXMXoXu.oXt.pXN.H P.,X>XpX&X*X,XR R Y.S Y.;XA 2.|.~.A./.S.(.(.V.~.U.6X6.#.zXzXMXMXMXMXMXMXMXMXMXMXMXMXMXMXMX",
"zXMXzXMXMXMXBXBXMXMXCXdXo.4X+.+X7X7XcXtX:XpXtX,X,X}.C ' -.S N.Y.A 8.].~.V.A.A./.!.V.[.K.%XQ 2XzXMXMXMXMXMXMXMXMXMXMXMXMXMXMXMXMX",
"zXMXMXMXMXBXBXMXMXvXMXdX&.4XoXyXyX2X,X,X,X:X<X8XR l z.g m.l %X*X_ l.H.H.E.Q.!.V.B. XR.5XW 6.zXkXMXMXMXMXMXMXMXMXMXMXMXMXMXMXMXMX",
"MXMXMXzXMXMXBXBXvXMXvXr.u.dX3X3Xi.OX9XuX&X,XuXN.f h.N n.<.F OXN.R G.}.W.].].W.W.[.}.6X=.6.gXzXMXMXMXMXMXMXMXMXMXMXMXMXMXMXMXMXMX",
"zXMXMXMXMXBXBXMXBXaXxX&.OXzX-X-XOX@.7X+X,X,X<XI ~ z.5.h.n.N H l G.=X{.W.W.W.E.n.h.z.I t.gXzXMXzXMXMXMXMXMXMXMXMXMXMXMXMXMXMXMXMX",
"MXzXMXMXMXBXBXBXMXMXMX#X*.o.b b :.#.M.z 7.m.<.A =X~ v.x.`.W 0 Y.Z A N N F _ ` -.n.=.E fXzXCXzXCXMXMXMXMXMXMXMXMXMXMXMXMXMXMXMXMX",
"zXMXMXzXMXBXMXMXBXaXMXzXoXx M.#.b N.7.k H F F ` s.[ ~ P [ z.I 9.6X=X`.%X,X6X9XuX6X:.3XzXdXBXMXzXMXMXMXMXMXMXMXMXMXMXMXMXMXMXMXMX",
"MXMXMXMXMXMXBXBXBXBXeXMX6.y n O.Z Q E @.1.Q [ h.U k.[.| / T.>.T pX,X,X,X,X*X<X;X,X;.zXiXBXBXaXBXMXMXMXMXMXMXMXMXMXMXMXMXMXMXMXMX",
"MXzXzXMXMXMXBXMXvXBXMXdXqXY p O.9.` 9.L =.U F 3.) f.V.H.R.P 8.W 8X<X,XtX9X8XtX8XOXG lXzXzXBXBXvXMXMXMXMXMXMXMXMXMXMXMXMXMXMXMXMX",
"zXzXMXMXMXMXBXBXBXvXxXzXBXzXb b w f z w l _ P d.V.| ( J 3.R.2.` 8X<X,XtX:X:X,X:X>Xn dXBXBXCXBXvXMXMXMXMXMXMXMXMXMXMXMXMXMXMXMXMX",
"MXMXMXMXMXMXMXBXMXCXMXzX4XzX6.g f j z x.<.x.h.~ | V.3./ ( 0.L ! pX,X,XtX:X,XtXrXrX&.kXBXBXBXeXBXMXMXMXMXMXMXMXMXMXMXMXMXMXMXMXMX",
"zXMXMXMXMXBXbXMXMXbXMXzXyXgXl =.z.[ ' 3.2.J _ | ( U l.] ~ -.Q <.8XtXtX:X;X7X3X:XrXr.>XbXbXjXMXMXBXBXBXeXBXMXMXkXMXMXMXMXMXMXMXMX",
"MXzXMXMXBXMXMXMXxXMXzXzXgX:.D L 4.4._ / / | / g.3._ K.K.8.}.H <.uX;X<X7XpX7X:XwXpXXXw.cXeXMXbXBXBXBXMXMXMXkXBXBXMXMXMXMXMXMXMXMX",
"MXzXMXMXBXMXMXMXcXMXzXzXhXL W R.] 2.| ( z g.| 3.| _ '.] J.R w }.<X8XtX>X;XuXwX+X>XwX,.cXcXbXMXcXMXkXBXBXxXMXMXMXMXMXMXMXMXMXMXMX",
"MXMXMXMXBXBXMXMXMXMXzXzX4Xb ! J._ J 4.4.M  .G.P G.] =XK.` W Q 8XuX;X;XuX:X+XwXbXpXwXw.$XMXqXMXbXkXBXMXMXMXMXBXBXMXMXMXMXMXMXMXMX",
"MXMXMXMXBXBXMXMXcXMXkXzXzXb 9.` R V 4.4.~ V '.U ' 2.J.! j 7.%X8X;X3X;X;XpXlXoXY s i 0 : a 7 $.bXMXMXBXxXMXBXeXzXMXMXMXMXMXMXMXMX",
"zXMXMXMXMXBXBXBXMXMXlXzX+Xb b w I ' h.2.[ r z.n.` 1.W g *XfXuX<X7X-XtXlX+XX.0 & + : 8 : ; o a XXr.CXMXkXvXzXBXMXMXMXMXMXMXMXMXMX",
"MXMXMXMXMXMXMXMXbXkXzXzXOXt.9.9.` 4.] 8.h.N ` n.l Z %XuX<X,X;X,X:XzXpX,.0 X * 4 4 * , , : : o > O X.kXMXbXxXMXMXMXMXMXMXMXMXMXMX",
"MXMXMXMXMXMXMXMXvXzXBXBX+Xk I.E J.' j J.n.Y.R Z y.T fX7X:X>XtXpXiX,.0 * - 4 & * & O 4 & : : 6 > 2 . x qXMXvXMXMXMXMXMXMXMXMXMXMX",
"bXMXbXMXMXMXMXMXBXBXCXMXlX6.v O.T.U.=.n.W T k P.+XH rX:XrXlX;Xe.0 < * & > & & > < > 2 2 2 > # @ # # @ 3 s w.qXzXMXMXMXMXMXMXMXMX",
"MXMXMXMXMXMXBXMXCXBXBXzXBX4Xo.v W 6.Q >.@.9XfXS +XM.bXrXOX&.i * < > & & - # - < , & @ @ @ $ > 2 6 : # # % > X.xXMXMXMXMXMXMXMXMX",
"bXMXMXMXBXBXBXBXBXBXzXaXzXzXdX-X,.O.y.OXzX3Xh X M.e.G u , & + 6 X + , 4 2 > # O $ # > 9 2 > # # $ > u X.a.qXvXMXMXMXMXMXMXMXMXMX",
"MXbXMXMXBXBXBXBXvXBXMXMXCXCXMXzXzXzXzX3XBX*.X 7 @ > . % @ * X @ 6 3 @ o $ > 3 3 8 2 : @ # 2 u a $.#XMXMXzXMXMXxXMXMXMXMXMXMXMXMX",
"bXMXMXMXBXBXBXBXBXaXvXMXzXxXxXiXwXBXBXMX#X, : @ $ ; O 5 < 9 9 = O # > 1 > 3 3 = % > y $.@XMXzXBXBXMXMXxXkXBXMXMXMXMXMXMXMXMXMXMX",
"MXMXMXBXMXBXBXBXBXvXvXvXMXMXMXMXMXzXkXbX&.. 5 : 1 1 ; 8 $ = = O 3 5 5 1 $ $ 3 8 $.XXMXMXxXeXkXMXCXkXCXMXMXMXMXMXMXMXMXMXMXMXMXMX",
"bXMXBXBXBXBXBXBXCXBXBXBXMXBXvXkXBXcXbXZXs 5 1 1 1 3 6 8 > 9 9 9 > # $ 1 t X.$XBXBXvXCXBXzXMXMXkXzXMXMXMXMXMXMXeXMXMXMXMXMXMXMXMX",
"MXbXBXBXBXBXBXBXBXBXCXBXBXMXBXMXMXMXcXcXu % 1 ; ; ; ; % = = . $ 3 t n XXBXBXBXvXBXBXMXBXvXBXzXMXMXMXMXMXCXBXMXMXMXMXMXMXMXMXMXMX",
"MXMXMXMXMXMXMXMXMXBXBXMXMXMXMXMXMXBXbXeXm 6 d a y a d m d c w.p.@XMXeXMXkXMXzXkXMXaXMXMXMXMXBXMXMXMXMXMXMXMXMXMXMXMXMXMXMXMXMXMX",
"MXMXMXMXMXMXMXMXMXMXMXMXMXMXMXMXMXCXMXMXxXkXMXMXMXMXMX@XMXMXCXMXeXMXMXMXkXxXMXMXMXMXMXzXMXzXxXBXMXMXMXMXMXMXMXMXMXMXMXMXMXMXMXMX",
"MXMXMXMXMXMXMXMXMXMXMXMXMXMXMXMXBXBXkXMXBXBXBXkXkXvXMXMXBXeXBXMXMXMXkXMXMXMXMXxXxXMXBXxXBXvXMXMXMXMXMXMXMXMXMXMXMXMXMXMXMXMXMXMX",
"MXMXMXMXMXMXMXMXMXMXMXMXMXMXMXMXkXMXMXMXzXBXBXMXMXiXvXMXeXBXkXMXBXMXxXMXMXCXBXMXBXMXMXMXMXMXMXbXMXMXMXMXMXMXMXMXMXMXMXMXMXMXMXMX",
"MXMXMXMXMXMXMXMXMXMXMXMXMXMXMXMXBXMXBXCXBXBXdX@Xo..Xw.kXxXw.w.r.MXBXMXMXMXMXMXMXaXBXxXBXMXMXzXCXMXMXMXMXMXMXMXMXMXMXMXMXMXMXMXMX",
"MXMXMXMXMXMXMXMXMXMXMXMXMXMXMXMXkXMXkXBXMXMXMXkXc   w.CXMX&.6 .XBXkXzXxXMXvXvXBXMXBXMXzXxXMXMXMXMXMXMXMXMXMXMXMXMXMXMXMXMXMXMXMX",
"MXMXMXMXMXMXMXMXMXMXMXMXMXMXMXMXBXBXMXMXMXxXMXxXMX> s xXMX%.w.BXMXvXMXeXBXBXMXMXMX@XMXMXkXMXBXMXMXMXMXMXMXMXMXMXMXMXMXMXMXMXMXMX",
"MXMXMXMXMXMXMXMXMXMXMXMXMXMXMXMXMXMXxXMXMXzXMXxXCXa.. $X@Xc BXBXeXo.x x $XMX.Xx n s #XMXkXMXkXMXMXMXMXMXMXMXMXMXMXMXMXMXMXMXMXMX",
"MXMXMXMXMXMXMXMXMXMXMXMXMXMXMXMXMXMXMXMXMXMXMXMXBXMX9 u n XXMXvXs n MX$.9 MX7 .XMXx .XMXMXMXMXvXMXMXMXMXMXMXMXMXMXMXMXMXMXMXMXMX",
"MXMXMXMXMXMXMXMXMXMXMXMXMXMXMXMXMXMXMXMXMXMXMXMXkXMX.X  n MXMXqXO o.p.$.. eX7 5 w.MXMXMXeXMXMXMXMXMXMXMXMXMXMXMXMXMXMXMXMXMXMXMX",
"MXMXMXMXMXMXMXMXMXMXMXMXMXMXMXMXMXMXMXMXMXMXMXMXBXBXeX. XXkXBXqX. w..X.XXXvXkXa . 3 @XMXBXBXMXMXMXMXMXMXMXMXMXMXMXMXMXMXMXMXMXMX",
"MXMXMXMXMXMXMXMXMXMXMXMXMXMXMXMXMXMXMXMXMXMXMXMXBXeXeX  p.MXMXxXO r.CXvXaXXXp.kXMX7 o.CX#XeXMXaXMXMXMXMXMXMXMXMXMXMXMXMXMXMXMXMX",
"MXMXMXMXMXMXMXMXMXMXMXMXMXMXMXMXMXMXMXMXMXMXMXMXMXeXw.  x qXMXBX$.O r.a.x $X< w.qXu oX@X  r.BXzXMXMXMXMXMXMXMXMXMXMXMXMXMXMXMXMX",
"MXMXMXMXMXMXMXMXMXMXMXMXMXMXMXMXMXMXMXMXMXMXMXMXCXkX$.w.w.a.MXMXMXp.c %.vXvXa.w.X.qXZXMXw.@XBXBXMXMXMXMXMXMXMXMXMXMXMXMXMXMXMXMX",
"MXMXMXMXMXMXMXMXMXMXMXMXMXMXMXMXMXMXMXMXMXMXMXMXBXBXMXMXxXMXaXMXMXMXCXeXxXMXaXMXkXBXBXBXMXMXBXkXMXMXMXMXMXMXMXMXMXMXMXMXMXMXMXMX",
"MXMXMXMXMXMXMXMXMXMXMXMXMXMXMXMXMXMXMXMXMXMXMXBXBXMXBXkXzXxXBXMXMXxXMXMXzXMXBXBXMXMXZXMXvXBXxXMXMXMXMXMXMXMXMXMXMXMXMXMXMXMXMXMX"
};
